<?xml version="1.0" encoding="UTF-8"?>
<svg xmlns="http://www.w3.org/2000/svg"
     xmlns:xlink="http://www.w3.org/1999/xlink"
     version="1.2"
     width="150mm" height="98.48mm" viewBox="0 0 150 98.48"
     stroke="none"
     fill="#000000"
     stroke-width="0.3"
     font-size="3.88"
>
<g fill="#E42621" stroke="#000000" stroke-width="0.05" id="img-68b52f48-1">
  <path d="M116.16,83.97 L 115.98 84.33 114.76 85.14 112.52 85.02 109.36 84.76 109.2 84.18 108.86 84.12 107.96 82.84 108.19 82.56 108.16 82.12 107.4 82.6 107.03 82.64 106.44 83.16 105.62 83.32 105.3 83.2 104.68 81.88 105.26 81.04 105.23 80.47 104.95 80.12 103.8 79.89 103.52 80 103.47 79.77 103.25 79.8 103.1 79.63 103.01 79.22 102.5 78.72 102.26 77.93 100.94 77.2 101.13 78.02 100.56 78.5 100.28 77.86 99.14 78.26 98.62 77.39 97.98 77.45 97.62 76.74 98.11 76.12 98.09 75.4 98.02 74.7 98.49 74.52 98.94 74.58 99.32 74.14 99.05 73.92 98.41 73.93 98.11 73.58 97.68 73.43 97.59 72.72 97.16 72.47 97.58 72.29 97.8 71.95 97.92 71.61 97.8 70.84 98.65 69.68 98.61 69.52 97.45 68.91 97.29 68.92 97.01 69.04 96.79 69.66 96.54 69.74 96.29 69.41 95.91 69.37 95.61 68.95 95.58 67.98 95.91 67.82 96.22 68.1 96.51 67.72 96.47 67.2 95.67 66.87 95.71 66.12 95.02 66.06 94.97 66.58 94.65 66.79 94.58 67.56 93.91 68.02 94.18 67.63 94.25 67.1 94.24 66.91 93.92 66.81 92.74 68.01 92.41 67.98 92.16 68.41 91.95 68.32 91.6 67.66 92.3 66.51 91.93 66.54 91.87 66.31 92.31 66.13 92.58 65.77 93.25 65.92 93.31 65.23 93.52 64.88 93.64 64.92 93.75 64.63 93.34 64.19 92.97 64.34 93.05 64.05 93.09 63.9 92.92 63.79 92.73 64.22 92.37 64.21 91.99 63.75 92.04 63.16 91.85 62.91 91.8 62.23 91.22 61.8 91.37 61.34 91.61 61.37 91.61 61.17 91.8 61.21 92.17 60.88 91.97 60.51 91.82 60.59 91.61 60.34 91.74 60.19 91.65 60.08 91.83 59.98 91.56 60.03 91.49 59.85 91.93 59.86 92.02 59.73 92.08 59.63 92.69 58.5 91.35 57.49 91.97 57.37 92.84 57.6 92.95 57.22 93.44 57.21 93.89 57.68 94.82 57.98 94.76 58.27 95 58.54 95.49 58.29 95.48 58.88 95.88 59.84 96.58 60.92 97.76 62.04 97.71 62.55 97.27 63.59 96.98 62.73 97.42 62.53 97.5 62.18 96.27 60.84 96.1 60.26 95.47 59.25 95.8 60.07 96.02 61.47 96.53 62.44 96.93 62.46 96.94 63.06 98.34 66.02 98.48 66.74 100.93 69.47 102.06 71.02 102.9 73.89 103.44 74.34 103.69 74.36 103.85 75 104.07 75.22 104.41 75.23 104.75 76.2 105.35 76.51 105.48 76.56 105.46 76.77 104.51 76.24 105.21 76.86 104.88 76.82 105.03 77.02 105.38 76.87 106.38 77.24 105.58 76.83 105.59 76.6 106.37 77.01 108.15 77.04 108.95 77.55 109.11 77.84 110.18 78.02 111.28 79.75 111.77 79.98 113.31 79.71 113.46 79.65 113.67 79.93 113.68 80.38 113.88 80.78 113.77 81.36 114.3 81.61 114.51 82.06 114.81 82.04 114.84 82.18 115.41 82.38 115.67 83.01 115.85 83.21 115.78 83.57 116.16 83.97 z"/>
</g>
<g fill="#DC221E" stroke="#000000" stroke-width="0.05" id="img-68b52f48-2">
  <path d="M98.48,38.35 L 98.5 39.71 97.9 41.21 96.96 42.89 96.45 44.74 95.93 47.25 95.74 50.13 95.29 50.16 95.6 50.26 95.61 50.9 95.76 50.34 95.55 52.76 95.67 54.88 95.6 55.18 95.58 54.78 95.35 55.59 95.02 55.8 95.14 55.94 94.93 56.48 95.06 56.62 95.24 56.19 95.15 56.96 95.49 58.29 95.49 58.29 95 58.54 94.76 58.27 94.82 57.98 93.89 57.68 93.44 57.21 92.95 57.22 92.84 57.6 91.97 57.37 91.35 57.49 91.01 57.49 90.05 57.91 88.32 57.34 87.59 56.09 87.36 56.34 86.81 55.84 86.84 56.44 84.44 55.43 84.28 55.24 84.83 54.75 84.97 54.37 84.39 53.69 84.08 53.73 84.24 53.08 84.31 52.68 84.17 52.47 84.4 52.17 85.07 52.38 84.74 51.52 85.32 50.36 86.51 50.27 86.99 49.56 87.23 49.57 87.03 49.03 86.46 48.58 86.44 47.82 86.71 47 86.36 46.3 86.13 46.43 85.85 46.13 86.53 45.45 86.65 45.51 87.41 44.89 88.18 44.64 88.65 44.79 88.49 44.24 88.75 43.5 88.71 43.29 88.93 43.32 89.25 42.9 89.49 43.17 89.83 43.15 89.93 43.17 92.2 41.26 92.17 40.88 91.58 40.73 91.65 38.17 91.51 37.88 90.37 37.78 89.97 38.13 89.47 37.61 89.4 37.58 88.9 37.67 88.58 36.51 88.23 36.5 87.9 36.12 87.55 36.15 87.25 35.6 87.57 35.29 87.41 34.64 86.98 34.39 86.34 34.45 86.66 33.4 86.33 33.14 85.84 33.06 86.01 31.7 85.76 30.29 85.51 30.05 85.04 30.1 84.94 29.68 85.91 28.88 85.93 28.91 86.75 29.18 86.86 29.78 87.04 29.86 86.77 30.82 87.16 31.09 87.3 31.48 87.21 32.43 87.52 32.61 87.53 32.88 88.05 33.37 88.64 34.91 88.62 35.1 88.96 35.41 88.93 35.79 89.76 35.93 89.91 36.12 90.35 36.04 91.05 36.77 91.43 36.67 91.98 36.99 92.15 36.89 92.49 37.24 92.68 37.23 92.77 37.49 92.95 37.37 93.05 37.44 92.95 37.56 93.4 37.8 93.98 37.74 94.02 37.91 94.2 37.77 95.05 37.77 96.13 37.97 96.3 38.31 96.49 38.35 96.42 38.47 97.19 38.95 97.43 38.95 97.45 38.56 97.83 38.44 97.81 38.29 98.48 38.35 z"/>
</g>
<g fill="#E82923" stroke="#000000" stroke-width="0.05" id="img-68b52f48-3">
  <path d="M85.91,28.88 L 84.94 29.68 85.04 30.1 85.51 30.05 85.76 30.29 86.01 31.7 85.84 33.06 86.33 33.14 86.66 33.4 86.34 34.45 86.98 34.39 87.41 34.64 87.57 35.29 87.25 35.6 87.55 36.15 87.9 36.12 88.23 36.5 88.58 36.51 88.9 37.67 89.4 37.58 89.47 37.61 89.97 38.13 90.37 37.78 91.51 37.88 91.65 38.17 91.58 40.73 92.17 40.88 92.2 41.26 89.93 43.17 89.83 43.15 89.49 43.17 89.25 42.9 88.93 43.32 88.71 43.29 88.75 43.5 88.49 44.24 88.65 44.79 88.18 44.64 87.41 44.89 86.65 45.51 86.53 45.45 85.85 46.13 86.13 46.43 86.36 46.3 86.71 47 86.44 47.82 86.46 48.58 87.03 49.03 87.23 49.57 86.99 49.56 86.51 50.27 85.32 50.36 84.74 51.52 85.07 52.38 84.4 52.17 84.17 52.47 84.31 52.68 84.24 53.08 83.02 53.05 82.68 53.33 82.38 53.22 82.27 52.88 82.41 52.16 82.21 51.09 82.46 50.36 81.55 49.21 81.75 48.25 81.61 47.42 80.45 45.96 80.63 44.15 81.07 43.94 80.45 43.36 80.7 42.72 81.02 42.49 81.84 42.33 82.36 42.41 82.67 42.71 83.39 42.41 83.58 42.53 83.24 42.18 83.58 42.07 83.03 41.8 82.34 41.79 81.65 41.15 81.11 40.9 81.19 40.64 81.67 40.85 81.7 40.69 81.39 40.55 81.35 40.25 81.02 40.23 80.47 39.51 80.41 38.55 79.99 38.17 80.01 37.79 79.83 37.49 79.41 37.28 78.51 36.06 80.6 34.2 81.09 34.64 81.48 33.96 81.73 33.85 81.89 33.32 81.81 32.42 81.27 32.19 81.07 32.53 80.77 32.33 80.59 32.44 80.46 31.28 81.63 30.39 82.41 30.36 82.98 28.64 83.62 28.17 84.65 29.06 85.47 28.3 85.91 28.88 z"/>
</g>
<g fill="#EC2B25" stroke="#000000" stroke-width="0.05" id="img-68b52f48-4">
  <path d="M84.24,53.08 L 84.08 53.73 84.39 53.69 84.97 54.37 84.83 54.75 84.28 55.24 84.44 55.43 86.84 56.44 86.81 55.84 87.36 56.34 87.59 56.09 88.32 57.34 90.05 57.91 91.01 57.49 91.35 57.49 92.69 58.5 92.08 59.63 92.02 59.73 91.93 59.86 91.49 59.85 91.56 60.03 91.83 59.98 91.65 60.08 91.74 60.19 91.61 60.34 91.82 60.59 91.97 60.51 92.17 60.88 91.8 61.21 91.61 61.17 91.61 61.37 91.37 61.34 91.22 61.8 91.8 62.23 91.85 62.91 91.4 63.26 91.33 63.89 90.39 64.05 89.92 63.88 89.74 63.47 89.24 63.61 89.02 63.51 88.47 61.61 88.2 61.71 87.99 62.04 87.65 62.08 87.42 62.58 86.6 62.78 86.05 62.09 85.79 62.26 85.55 62.81 83.57 61.92 83.05 61.59 82.39 61.58 81.81 62.3 81.52 62.34 80.81 62.01 79.74 61.08 78.58 60.96 77.99 60.46 77.48 60.6 76.99 60.48 77.96 59.3 77.8 57.61 78.11 57.3 78.05 56.87 77.73 56.55 77.21 56.42 76.77 56.53 76.09 57.26 75.29 57.09 74.97 56.41 74.25 55.69 73.94 55.39 73.44 54.37 73.69 53.77 73.26 53.21 73.69 52.59 73.7 52.29 74.36 52.37 75.29 51.43 75.96 51.1 76.2 50.65 77.6 49.55 78.73 48.38 79.67 46.84 80.45 45.96 81.61 47.42 81.75 48.25 81.55 49.21 82.46 50.36 82.21 51.09 82.41 52.16 82.27 52.88 82.38 53.22 82.68 53.33 83.02 53.05 84.24 53.08 z"/>
</g>
<g fill="#E02420" stroke="#000000" stroke-width="0.05" id="img-68b52f48-5">
  <path d="M76.99,60.48 L 75.63 59.64 75.41 59.66 74.96 59.11 74.37 58.99 74.53 58.38 73.89 58.2 73.88 57.99 73.57 57.74 73.3 57.82 73.23 57.29 73.04 57.27 72.42 57.92 71.51 58.24 71.16 59.28 70.48 60.09 70.44 60.66 70.99 61.19 70.85 61.75 71.49 62.13 71.26 63 70.53 63.33 70.17 63.29 69.9 63.52 69.54 63.4 69.29 64.03 69.44 64.74 67.03 63.98 66.74 64.03 66.52 63.75 66.07 63.95 65.93 63.84 65.99 63.69 66.24 62.98 66.09 62.29 66.5 62.58 67.17 61.88 67.2 61.15 67.01 60.86 67.51 60.53 67.77 60.08 68.26 59.81 68.87 59.85 69.26 59.24 69.08 58.93 69.44 58.2 68.72 58.08 68.83 57.76 67.87 57.02 67.69 57.4 67.88 57.97 67.13 59.1 66.56 59.29 66.34 59.12 66.25 58.94 66.68 56.92 66.46 56.66 66.05 56.65 65.42 58.74 65.35 57.26 65.6 57.11 65.41 56.64 65.91 56.32 65.75 55.86 64.74 55.64 64.8 56.21 64.63 56.62 65.16 57 65.02 57.76 64.06 57.9 63.15 58.31 63.24 58.02 63.5 57.47 63.78 54.04 63.94 53.61 64.3 53.33 64.39 51.97 65.09 51.3 65.17 51.03 65.72 50.75 65.47 50.41 65.39 49.74 65.51 48.6 66.75 48.01 66.69 47.5 68.39 46.42 70.86 46.65 71.02 46.51 72.11 46.55 72.16 44.5 71.36 43.16 71.36 42.93 73.38 42.72 75.45 43.42 75.9 44.08 76.69 44.34 76.57 44.72 76.72 44.91 77.39 44.87 77.81 44.54 78 44.77 78.39 44.6 79.6 45.8 80.22 45.74 80.45 45.96 79.67 46.84 78.73 48.38 77.6 49.55 76.2 50.65 75.96 51.1 75.29 51.43 74.36 52.37 73.7 52.29 73.69 52.59 73.26 53.21 73.69 53.77 73.44 54.37 73.94 55.39 74.25 55.69 74.97 56.41 75.29 57.09 76.09 57.26 76.77 56.53 77.21 56.42 77.73 56.55 78.05 56.87 78.11 57.3 77.8 57.61 77.96 59.3 76.99 60.48 z"/>
</g>
<g fill="#B71615" stroke="#000000" stroke-width="0.05" id="img-68b52f48-6">
  <path d="M63.24,58.02 L 63.07 57.31 62.35 57.53 61.75 57.2 61.51 56.39 61.04 56.11 59.85 56.8 59.85 56.1 60.43 55.54 60.26 54.78 58.99 54.16 58.3 54.19 57.85 54.02 57.78 53.59 57.23 53.6 56.71 53.02 56.46 52.84 56.3 51.85 56.07 51.39 55.47 50.29 55.36 48.7 55.1 48.46 54.89 47.85 53.67 46.88 52.95 47.45 52.34 47.36 51.75 45.89 50.85 44.86 50.53 44.82 50.22 44.43 49.44 42.76 49.35 41.96 49.55 40.26 51.25 40.17 52.27 39.26 52.33 37.98 52.91 37.66 53.09 37.29 52.68 36.03 53.2 36.07 53.72 35.82 54.05 34.84 54.15 33.96 54.28 33.86 54.45 34.05 54.77 33.48 56.12 34.49 56.7 34.45 56.95 34.86 58.23 35.58 59.16 35.12 59.24 35.23 59.79 35.57 60.61 35.39 60.84 35.72 61.19 35.62 61.78 36.15 62.06 36.17 63.85 33.93 65.54 34.08 66.6 34.46 68.12 35.99 68.34 36.54 68.05 37.69 68.1 39.51 67.32 40.61 67.32 41.03 67.67 41.47 67.59 41.75 67.22 42.07 67.74 42.75 68.43 43.25 68.53 44.09 68.92 44.39 69.95 44.67 70.64 45.22 70.55 44.32 71.36 43.16 72.16 44.5 72.11 46.55 71.02 46.51 70.86 46.65 68.39 46.42 66.69 47.5 66.75 48.01 65.51 48.6 65.39 49.74 65.47 50.41 65.72 50.75 65.17 51.03 65.09 51.3 64.39 51.97 64.3 53.33 63.94 53.61 63.78 54.04 63.5 57.47 63.24 58.02 z"/>
</g>
<g fill="#F2322B" stroke="#000000" stroke-width="0.05" id="img-68b52f48-7">
  <path d="M57.85,54.02 L 57.55 54.16 57.43 54.53 57.65 54.89 57.17 55.25 57 55.7 57.47 56.08 57.6 56.79 56.66 57.13 56.41 57.2 56.31 57.22 56.28 56.92 56.11 56.88 55.81 56.2 54.9 55.36 54.98 55.18 54.76 55.3 53.83 54.12 53.03 53.39 52.81 53.41 52.32 52.22 50.94 50.9 50.37 49.7 48.12 47.89 48.01 47.65 46.04 46.32 46.12 46.2 47.51 47.15 47.24 46.94 47.52 47.06 47.62 46.87 47.38 46.18 47.08 46.17 47.03 46.29 47.24 46.3 46.83 46.55 46.66 46.31 46.31 46.3 45.98 45.81 45.35 45.55 45.96 46.15 45.07 45.5 44.73 44.78 45.07 44.93 45.16 44.83 44.98 44.47 45.08 43.78 44.78 43.58 44.83 44.49 44.53 44.55 43.9 43.42 43.42 43.03 43.66 43.01 44.15 43.67 44.4 43.72 44.38 43.47 44.22 43.42 44.33 43.26 44.53 43.49 45.03 43.55 44.74 43.1 44.41 42.89 44.2 42.98 43.95 42.64 43.29 42.66 43.27 42.46 43.48 42.55 43.47 42.25 43.24 42.14 43.06 42.79 43.09 42.45 42.87 42.14 41.44 41.63 42.11 41.69 41.81 41.42 41.23 41.5 41.44 41.38 41.34 41.16 41.2 41.21 41.24 40.61 40.59 40.51 40.7 40.8 40.49 41.08 40.36 40.85 40.03 40.87 39.95 41.06 39.56 40.7 39.81 40.42 40.11 40.46 40.2 40.64 40.24 40.35 40.69 39.91 40.94 39.21 40.58 39.77 39.76 40.36 39.42 40.41 39.24 40.03 38.82 39.86 39.32 40.54 38.86 40.13 38.09 40.07 38.61 39.97 38.67 39.7 38.25 39.4 38.12 39.86 38.08 39.42 37.91 39.25 38.04 38.87 37.97 38.02 38.83 36.41 38.69 37.26 39.03 36.24 39.28 36.31 39.34 36.58 39.23 36.65 39.6 36.95 39.69 36.55 39.45 36.41 39.39 36.24 42.63 33.52 42.68 33.33 42.7 32.8 43.03 32.41 43.52 32.24 43.8 32.36 43.94 32.74 44.85 32.88 45.01 33.58 45.79 34.58 46.09 37 48.16 37.47 48.49 38.41 49.22 39.33 49.55 40.26 49.35 41.96 49.44 42.76 50.22 44.43 50.53 44.82 50.85 44.86 51.75 45.89 52.34 47.36 52.95 47.45 53.67 46.88 54.89 47.85 55.1 48.46 55.36 48.7 55.47 50.29 56.07 51.39 56.3 51.85 56.46 52.84 56.71 53.02 57.23 53.6 57.78 53.59 57.85 54.02 z"/>
</g>
<g fill="#9E1111" stroke="#000000" stroke-width="0.05" id="img-68b52f48-8">
  <path d="M68.28,21.42 L 68.33 21.48 68.4 21.36 68.95 21.52 69.77 20.32 70.37 20.11 70.16 19.88 70.29 19.4 70.59 19.07 70.68 18.4 71.31 17.19 71.5 17.25 71.8 16.99 71.92 17.16 72.16 16.95 72.75 17.05 72.83 16.61 73.05 16.41 74.33 16.96 74.78 16.76 75.02 16.94 75.54 16.79 75.61 16.98 75.84 16.94 76.43 17.11 76.71 17.07 76.9 16.81 76.93 17.08 77.26 16.93 77.37 17.09 77.6 17.04 77.53 17.18 77.77 17.68 78.07 17.71 78.06 18.11 78.33 17.84 78.29 18.42 79.25 18.72 79.54 19.29 80.59 20.03 80.73 20.46 81.22 20.95 81.33 21.84 81.61 22 82.06 23.31 82.53 23.71 82.45 23.97 82.81 24.21 82.66 24.34 82.79 24.81 83.07 25.23 83.05 25.45 83.42 25.67 83.46 25.89 84.04 26.16 84.55 27 84.81 27.09 85.14 28.15 85.43 28.25 85.47 28.3 84.65 29.06 83.62 28.17 82.98 28.64 82.41 30.36 81.63 30.39 80.46 31.28 80.59 32.44 80.77 32.33 81.07 32.53 81.27 32.19 81.81 32.42 81.89 33.32 81.73 33.85 81.48 33.96 81.09 34.64 80.6 34.2 78.51 36.06 79.41 37.28 79.83 37.49 80.01 37.79 79.99 38.17 80.41 38.55 80.47 39.51 81.02 40.23 81.35 40.25 81.39 40.55 81.7 40.69 81.67 40.85 81.19 40.64 81.11 40.9 81.65 41.15 82.34 41.79 83.03 41.8 83.58 42.07 83.24 42.18 83.58 42.53 83.39 42.41 82.67 42.71 82.36 42.41 81.84 42.33 81.02 42.49 80.7 42.72 80.45 43.36 81.07 43.94 80.63 44.15 80.45 45.96 80.22 45.74 79.6 45.8 78.39 44.6 78 44.77 77.81 44.54 77.39 44.87 76.72 44.91 76.57 44.72 76.69 44.34 75.9 44.08 75.45 43.42 73.38 42.72 71.36 42.93 71.36 43.16 70.55 44.32 70.64 45.22 69.95 44.67 68.92 44.39 68.53 44.09 68.43 43.25 67.74 42.75 67.22 42.07 67.59 41.75 67.67 41.47 67.32 41.03 67.32 40.61 68.1 39.51 68.05 37.69 68.34 36.54 68.12 35.99 66.6 34.46 65 27.74 68.28 21.42 z"/>
</g>
<g fill="#6D0B0C" stroke="#000000" stroke-width="0.05" id="img-68b52f48-9">
  <path d="M42.7,32.8 L 42.05 32.37 41.75 31.74 41.89 30.81 41.74 30.34 41.8 29.7 41.2 29.25 41.03 28.63 40.52 28.22 39.37 26.04 39.82 25.34 39.99 25.48 40.21 25.31 40.68 25.35 41.81 25.83 42.24 25.4 41.63 23.11 41.95 22.69 41.54 19.14 42 19.13 42.28 15.77 41.68 12.44 41.4 12.11 41.09 8.82 40.9 9.1 40.63 8.89 40.95 8.02 43.99 8.02 44.03 5.45 48.57 5.46 52.24 5.46 53.01 5.76 53.85 7.24 54.91 7.73 56.04 9.02 56.86 9.5 57.1 10.01 57.82 10.56 57.91 10.85 58.29 11.06 58.42 10.97 58.56 11.17 58.78 11.08 59.54 11.8 59.85 11.82 59.9 12.06 60.38 12.47 60.56 13.49 60.79 13.58 60.76 13.73 61.31 14.37 61.44 14.88 61.34 15.4 61.45 16.25 61.92 16.82 62.13 17.56 62.91 18.29 63.76 18.66 63.96 19.14 64.55 19.55 65.83 19.89 65.92 19.81 65.85 20.1 66.06 20.1 66.16 20.33 67.11 20.57 67.37 21 67.86 21.22 68.06 21.12 68.28 21.42 65 27.74 66.6 34.46 65.54 34.08 63.85 33.93 62.06 36.17 61.78 36.15 61.19 35.62 60.84 35.72 60.61 35.39 59.79 35.57 59.24 35.23 59.16 35.12 58.23 35.58 56.95 34.86 56.7 34.45 56.12 34.49 54.77 33.48 54.45 34.05 54.28 33.86 54.15 33.96 54.05 34.84 53.72 35.82 53.2 36.07 52.68 36.03 53.09 37.29 52.91 37.66 52.33 37.98 52.27 39.26 51.25 40.17 49.55 40.26 49.22 39.33 48.49 38.41 48.16 37.47 46.09 37 45.79 34.58 45.01 33.58 44.85 32.88 43.94 32.74 43.8 32.36 43.52 32.24 43.03 32.41 42.7 32.8 z"/>
</g>
<g fill="#8E0F0F" stroke="#000000" stroke-width="0.05" id="img-68b52f48-10">
  <path d="M39.87,8.02 L 40.95 8.02 40.63 8.89 40.9 9.1 41.09 8.82 41.4 12.11 41.68 12.44 42.28 15.77 42 19.13 41.54 19.14 41.95 22.69 41.63 23.11 42.24 25.4 41.81 25.83 40.68 25.35 40.21 25.31 39.99 25.48 39.82 25.34 39.37 26.04 40.52 28.22 41.03 28.63 41.2 29.25 41.8 29.7 41.74 30.34 41.89 30.81 41.75 31.74 42.05 32.37 42.7 32.8 42.68 33.33 42.63 33.52 39.39 36.24 39.31 36.03 38.87 36.27 38.9 35.64 38.73 35.15 37.76 34.32 37.95 34.22 37.6 34.08 37.54 33.89 37.3 34.06 37.58 34.34 37 34.23 36.65 34.38 36.11 34.04 35.42 32.66 35.74 32.91 35.34 32 34.85 32.05 33.6 31.72 33.11 31.12 32.64 30.93 32.95 30.86 32.74 30.45 32.42 30.55 32.31 29.62 32.02 28.94 32.35 28.81 32.19 28.81 32.24 28.59 32.47 28.48 32.19 28.43 32.15 28.01 32.61 27.91 32.64 27.77 32.18 27.65 32.15 27.8 31.33 27.48 30.97 27.55 31.16 27.44 30.96 27.1 30.76 27.6 30.92 27.61 30.82 27.94 30.25 27.2 29.72 27.38 29.04 26.7 27.97 25.19 28.07 24.9 26.79 24.42 26.45 23.72 25.55 22.75 25.76 22.62 25.96 22.83 26 22.53 25.44 22.34 24.74 21.61 24.47 21.56 24.47 20.64 24.18 20.36 24.25 19.7 23.86 19.51 23.62 19.57 23.61 19.75 23.35 19.54 23.26 19.25 23.42 18.57 22.43 17.36 22.01 16.3 21.62 16.2 21.55 14.54 21.25 14.15 21.04 14.14 21.13 13.77 20.98 13.27 19.95 11.73 19.77 11.07 19.95 10.29 19.76 9.61 20.01 10 20.14 9 19.87 8.66 19.65 8.67 19.83 8.83 19.68 8.85 19.17 8.34 19.01 8.46 19.27 8.6 19.1 8.61 17.21 7.99 17.33 7.97 17.2 7.13 15.98 6.48 15.69 6.53 15.61 6.19 15.5 6.69 15.68 6.72 15.46 7.01 15.18 7.16 14.58 7.09 12.53 5.6 11.97 5.56 10.39 4.52 10.48 3.42 10.27 2.73 10.65 2.06 10.79 1.45 11.37 1.27 11.36 1.37 18.73 3.96 28.4 7.51 29.87 8.07 32.93 8.05 39.87 8.02 z"/>
</g>
<g fill="#8E0F0F" stroke="#000000" stroke-width="0.05" id="img-68b52f48-11">
  <path d="M23.82,22.78 L 22.5 22.09 22.88 21.62 22.83 21.03 23.03 20.35 23.96 19.97 23.98 20.57 24.29 21.51 23.98 22.46 24.06 22.63 23.82 22.78 z"/>
</g>
<g fill="#E02420" stroke="#000000" stroke-width="0.05" id="img-68b52f48-12">
  <path d="M126.79,84.67 L 127.21 85 127.58 84.99 128.04 85.73 128.36 85.86 128.64 86.42 129.02 86.59 129.03 86.41 129.17 86.43 129.11 86.57 129.34 86.79 129.92 86.92 130.36 87.32 130.63 87.75 130.6 88.06 130.77 88.07 130.7 88.39 130.87 88.44 130.75 88.57 131.19 88.57 131.51 88.71 131.51 88.87 131.93 88.93 132.01 89.18 131.81 89.21 131.95 89.31 131.62 89.76 131.73 89.84 131.61 90.08 131.77 90.2 131.61 90.52 131.75 90.54 131.62 90.68 125.35 90.68 122.97 94.84 123.69 95.79 123.27 96.21 123.31 96.71 123.09 96.98 123.25 97.84 123.09 98.29 122.79 98.48 120.07 95.65 119.84 95.31 120.18 95.41 120.34 95.74 120.21 95.31 119.84 95.12 119.81 95.26 119.19 94.86 118.12 93.72 116.38 92.3 114.49 91.09 114.49 90.98 114.72 91.07 114.85 90.95 114.66 90.61 113.77 90.36 113.73 90.29 113.96 89.61 113.53 88.44 113.96 87.7 113.93 86.94 114.59 86.52 114.61 85.85 114.79 85.85 114.76 85.14 115.98 84.33 116.16 83.97 116.47 83.29 117.14 82.77 117.55 80.95 117.77 80.78 118.37 81.03 119.1 81.16 119.01 82.14 119.14 83.1 119.54 83.17 119.9 83.82 120.25 84.05 122.1 82.46 122.2 82.21 123.25 81.83 123.67 81.83 123.63 81.61 124.06 81.19 124.25 81.28 124.28 81.49 124.44 81.32 124.88 81.31 125.06 81.49 125.13 81.91 125.03 82.16 125.5 82.22 125.67 82.58 125.66 83.3 126.44 83.49 126.5 83.83 126.84 83.91 127.03 84.23 126.79 84.67 z"/>
</g>
<g fill="#FF7365" stroke="#000000" stroke-width="0.05" id="img-68b52f48-13">
  <path d="M116.16,83.97 L 115.78 83.57 115.85 83.21 115.67 83.01 115.41 82.38 114.84 82.18 114.81 82.04 114.51 82.06 114.3 81.61 113.77 81.36 113.88 80.78 113.68 80.38 113.67 79.93 113.46 79.65 114.79 79.16 114.7 79.42 115.16 79.38 115.43 79 116.21 78.91 116.26 78.62 114.91 79.12 116.22 78.54 118.32 78.46 118.22 78.8 118.49 78.72 118.45 78.98 118.64 78.64 118.39 78.49 119.44 78.42 120.22 77.93 120.54 77.7 120.71 78.51 120.75 77.87 120.62 77.52 121.65 77.35 121.93 78.07 123.26 78.08 123.23 79.92 124.11 80.65 124.72 80.99 125.85 80.99 125.94 80.24 126.71 80.22 127.36 80.41 128.02 80.86 129.03 80.91 129.03 81.67 129.03 84.59 126.79 84.67 127.03 84.23 126.84 83.91 126.5 83.83 126.44 83.49 125.66 83.3 125.67 82.58 125.5 82.22 125.03 82.16 125.13 81.91 125.06 81.49 124.88 81.31 124.44 81.32 124.28 81.49 124.25 81.28 124.06 81.19 123.63 81.61 123.67 81.83 123.25 81.83 122.2 82.21 122.1 82.46 120.25 84.05 119.9 83.82 119.54 83.17 119.14 83.1 119.01 82.14 119.1 81.16 118.37 81.03 117.77 80.78 117.55 80.95 117.14 82.77 116.47 83.29 116.16 83.97 z"/>
</g>
<g fill="#CF1D1A" stroke="#000000" stroke-width="0.05" id="img-68b52f48-14">
  <path d="M100.56,78.5 L 101.13 78.02 100.94 77.2 102.26 77.93 102.5 78.72 103.01 79.22 103.1 79.63 103.25 79.8 103.47 79.77 103.52 80 103.8 79.89 104.95 80.12 105.23 80.47 105.26 81.04 104.68 81.88 105.3 83.2 105.62 83.32 106.44 83.16 107.03 82.64 107.4 82.6 108.16 82.12 108.19 82.56 107.96 82.84 108.86 84.12 109.2 84.18 109.36 84.76 112.52 85.02 114.76 85.14 114.79 85.85 114.61 85.85 114.59 86.52 113.93 86.94 113.96 87.7 113.53 88.44 113.96 89.61 113.73 90.29 113.46 89.9 113.12 90.05 112.68 89.93 112.32 89.55 112.04 89.63 112.08 90.03 112.8 90.37 112.45 90.16 113.04 90.23 113.24 90.45 113.69 90.57 113.8 90.6 114.32 91.08 113.83 90.87 112.19 90.19 111.53 90.1 110.56 90.05 111.1 89.74 111.28 89.43 110.84 89.2 110.24 89.74 110.15 89.59 110.32 89.36 109.88 88.86 108.87 89.65 109.84 89.77 110.02 89.6 110.03 89.75 109.54 89.82 110.3 89.91 110.4 90.06 108.54 90.02 108.49 90.22 108.11 90.29 107.43 90.77 107.39 91 107.13 91.18 104.54 91.99 103.37 92.64 102.11 92.66 101.92 92.89 100.12 92.46 98.36 91.51 95.45 91.22 95.03 90.95 95.03 90.74 93.57 90.05 94.07 90.12 93.91 89.96 92.42 89.72 91.65 89.42 92.08 89.09 92.77 88.98 92.77 88.26 93.38 87.74 93.21 87.45 93.56 87.46 93.99 87.15 94.11 86.51 94.33 85.7 94.02 85.33 92.96 84.63 92.9 83.79 92.52 83.16 92.52 82.35 92.81 81.43 92.68 81.3 92.86 81.14 93.17 81.21 93.61 80.61 94.68 80.57 94.77 80.74 95.16 81.13 95.68 80.78 95.4 79.84 95.78 79.13 96.13 78.97 96.3 79.21 96.16 79.84 97.11 80.85 97.5 80.2 97.94 79.91 98.31 79.81 98.93 80.02 99.51 79.96 99.89 79.49 100.38 79.26 100.68 78.74 100.56 78.5 z"/>
</g>
<g fill="#E82923" stroke="#000000" stroke-width="0.05" id="img-68b52f48-15">
  <path d="M89.21,78.81 L 89.3 79.5 89.82 79.69 89.93 80.09 90.29 80.04 90.63 80.68 91.35 80.88 92.18 80.77 92.68 81.3 92.81 81.43 92.52 82.35 92.52 83.16 92.9 83.79 92.96 84.63 94.02 85.33 94.33 85.7 94.11 86.51 93.99 87.15 93.56 87.46 93.21 87.45 93.38 87.74 92.77 88.26 92.77 88.98 92.08 89.09 91.65 89.42 90.53 88.22 90.12 88.37 89.27 87.99 86.04 87.42 85.26 87.01 85.32 86.87 85.12 86.58 85.01 86.81 84.82 86.52 84.13 86.22 83.6 86.14 79.34 84.54 79.07 84.06 77.52 83.23 77.13 82.7 76.84 82.72 76.46 82.47 75.7 81.38 74.89 80.85 74.41 80.8 73.93 81.16 73.76 81.14 73.93 79.83 74.71 79.69 75.14 79.38 75.32 79.23 75.25 77.94 75.42 77.64 76.52 77.58 76.75 78.01 77.07 78.22 77.35 78.25 78.13 77.96 79.15 78.13 79.53 78.05 79.85 78.44 80.03 78.4 80 78.26 80.61 78.28 81.14 78.72 81.44 78.9 81.59 78.65 80.96 78.01 80.72 76.62 80.93 76.26 81.15 76.65 81.63 76.26 81.92 76.34 82.27 76.52 82.61 77.99 83.01 78.71 83.24 78.67 83.92 78.06 84.06 77.58 85.07 77.32 85.53 77.44 86.25 76.76 87.01 77.27 87.92 78.33 88.19 78.35 88.33 78 88.72 77.96 89.21 78.81 z"/>
</g>
<g fill="#FFCCC2" stroke="#000000" stroke-width="0.05" id="img-68b52f48-16">
  <path d="M93.69,72.01 L 94.39 71.99 94.34 72.31 94.57 72.26 95.16 72.7 94.97 72.87 95.15 73.26 95.5 73.15 95.95 73.58 96.3 73.67 96.09 74.04 95.21 74.06 95.16 74.46 94.88 74.72 94.42 74.47 93.99 74.9 93.41 75.03 92.12 73.61 92.08 73.33 91.29 73.05 90.87 72.51 91.14 72.47 91.96 72.16 92.7 72.45 92.84 72.18 93.12 71.8 93.69 72.01 z"/>
</g>
<g fill="#F73B32" stroke="#000000" stroke-width="0.05" id="img-68b52f48-17">
  <path d="M148.72,68.95 L 148.59 68.24 148.99 67.46 149.18 67.33 149.54 67.45 150 67.19 149.26 68.43 148.72 68.95 z"/>
</g>
<g fill="#F73B32" stroke="#000000" stroke-width="0.05" id="img-68b52f48-18">
  <path d="M142.28,78.23 L 141.37 78.26 140.79 79.51 140.39 79.77 140.25 80.42 139.62 81.07 139.6 81.37 138.64 80.71 138.11 80.97 138.12 81.68 136.69 81.68 136.75 72.12 144.97 66.81 146.02 64.9 146.03 62.37 146.21 62.41 146.29 62.57 147.5 62.71 148 62.44 148.05 62.09 147.85 62.02 147.42 62.23 147.01 62.1 146.74 62.36 146.65 62.23 146.91 61.95 147.36 62.05 148.14 61.72 148.68 61.96 149.15 62.75 149.54 62.75 149.61 64.06 149.98 64.23 149.76 64.85 149.55 64.96 149.29 65.88 148.36 67.06 147.57 67.64 146.57 69.17 146.36 69.81 146.55 70.84 146.55 70.99 146.51 71.1 146.36 71.47 146.32 71.18 146.48 71.06 146.51 70.77 146.3 70.6 146.42 70.95 146.12 71.33 145.8 71.36 145.41 72.25 145.45 71.98 145.04 72 145.09 72.43 145.43 72.59 145.38 72.89 145.89 72.6 146.49 72.7 146.63 72.5 146.56 72.39 146.54 72.54 146.09 72.49 146.5 72.5 146.53 72.22 146.66 72.51 146.39 73.19 146.07 73.44 145.88 73.47 146.01 73.26 145.6 73.44 145.35 73.87 145.3 74.24 145.53 74.43 145.97 73.88 146.22 73.83 146.17 74.06 146.42 73.89 146.03 74.41 145.47 76.76 145.09 77.27 144.94 78.59 144.6 79.12 144.51 79.75 144.48 79.51 144.29 79.49 144.46 79.07 144.32 79.25 144.13 78.46 143.36 78.05 143.75 77.19 143.57 76.21 143.15 76.99 143.11 76.67 142.51 77.18 142.82 76.92 142.8 77.25 143.01 77.17 142.28 78.23 z"/>
</g>
<g fill="#FF594D" stroke="#000000" stroke-width="0.05" id="img-68b52f48-19">
  <path d="M100.56,78.5 L 100.68 78.74 100.38 79.26 99.89 79.49 99.51 79.96 98.93 80.02 98.31 79.81 97.94 79.91 97.5 80.2 97.11 80.85 96.16 79.84 96.3 79.21 96.13 78.97 95.78 79.13 95.4 79.84 95.68 80.78 95.16 81.13 94.77 80.74 94.68 80.57 93.61 80.61 93.17 81.21 92.86 81.14 92.68 81.3 92.18 80.77 91.35 80.88 90.63 80.68 90.29 80.04 89.93 80.09 89.82 79.69 89.3 79.5 89.21 78.81 89.84 78.58 90.35 78.17 90.96 78.56 91.08 78.46 90.69 77 91.11 77.14 90.72 76.59 91.15 76.03 91.12 75.55 91.25 74.67 91.1 73.41 91.29 73.05 92.08 73.33 92.12 73.61 93.41 75.03 93.99 74.9 94.42 74.47 94.88 74.72 95.16 74.46 95.21 74.06 96.09 74.04 96.3 73.67 95.95 73.58 95.5 73.15 95.15 73.26 94.97 72.87 95.16 72.7 94.57 72.26 94.34 72.31 94.39 71.99 93.69 72.01 93.12 71.1 93.92 69.74 93.73 69.25 93.18 69.15 93.18 68.84 93.22 68.65 93.59 68.59 93.91 68.02 94.58 67.56 94.65 66.79 94.97 66.58 95.02 66.06 95.71 66.12 95.67 66.87 96.47 67.2 96.51 67.72 96.22 68.1 95.91 67.82 95.58 67.98 95.61 68.95 95.91 69.37 96.29 69.41 96.54 69.74 96.79 69.66 97.01 69.04 97.29 68.92 97.45 68.91 98.61 69.52 98.65 69.68 97.8 70.84 97.92 71.61 97.8 71.95 97.58 72.29 97.16 72.47 97.59 72.72 97.68 73.43 98.11 73.58 98.41 73.93 99.05 73.92 99.32 74.14 98.94 74.58 98.49 74.52 98.02 74.7 98.09 75.4 98.11 76.12 97.62 76.74 97.98 77.45 98.62 77.39 99.14 78.26 100.28 77.86 100.56 78.5 z"/>
</g>
<g fill="#F73B32" stroke="#000000" stroke-width="0.05" id="img-68b52f48-20">
  <path d="M121.65,77.35 L 124.1 76.95 124.71 77.56 124.61 77.72 124.3 77.66 124.28 77.47 123.99 77.54 124.05 77.67 123.84 77.65 123.76 77.91 124.22 77.91 124.57 78.13 124.15 77.7 124.49 77.75 124.65 77.99 124.55 78.05 124.87 78.16 124.72 78.5 124.98 78.76 124.93 78.44 125.14 78.44 124.99 78.22 126.6 78.45 126.57 78.18 126.29 78.34 126.52 78.05 127.3 77.8 127.45 77.52 128.01 77.39 127.48 77.47 127.65 76.88 126.9 76.52 127.78 75.76 127.09 76.15 126.87 76.47 126.42 76.53 126.82 76.07 128.09 75.52 128.96 74.91 130.15 73.88 130.52 71.54 131.3 70.92 131.64 70.43 131.41 69.85 131.59 68.2 131.46 67.56 131.62 66.46 131.99 65.99 132.04 65.84 132.02 67.38 132.86 67.36 132.76 67.72 133.56 67.97 133.74 67.69 136.75 72.12 136.69 81.68 129.03 81.67 129.03 80.91 128.02 80.86 127.36 80.41 126.71 80.22 125.94 80.24 125.85 80.99 124.72 80.99 124.11 80.65 123.23 79.92 123.26 78.08 121.93 78.07 121.65 77.35 z"/>
</g>
<g fill="#F73B32" stroke="#000000" stroke-width="0.05" id="img-68b52f48-21">
  <path d="M124.83,77.42 L 124.79 77.31 125.76 76.82 126.22 76.64 126.36 76.73 126.36 76.84 125.87 76.91 125.53 77.32 125.38 77.31 125.48 77.12 124.83 77.42 z"/>
</g>
<g fill="#FF5549" stroke="#000000" stroke-width="0.05" id="img-68b52f48-22">
  <path d="M132.04,65.84 L 132.21 65.33 131.97 65.75 131.73 66.18 131.87 65.75 131.98 65.42 132.23 64.89 133.36 64.18 133.88 64.02 135.01 63.52 139.57 62.85 140.26 62.65 140.79 62.2 141.53 62.01 142.42 62.09 143.33 61.93 142.55 62.02 142.98 61.81 143.78 61.83 145.2 62.18 144.42 62.11 144.97 62.35 145.65 62.39 145.29 62.27 145.46 62.23 146.03 62.37 146.02 64.9 144.97 66.81 136.75 72.12 133.74 67.69 133.56 67.97 132.76 67.72 132.86 67.36 132.02 67.38 132.04 65.84 z"/>
</g>
<g fill="#FFC3B9" stroke="#000000" stroke-width="0.05" id="img-68b52f48-23">
  <path d="M91.12,75.55 L 91.15 76.03 90.72 76.59 91.11 77.14 90.69 77 91.08 78.46 90.96 78.56 90.35 78.17 89.84 78.58 89.21 78.81 88.72 77.96 88.33 78 88.19 78.35 87.92 78.33 87.01 77.27 87.34 76.15 87.96 75.68 87.86 75.06 88.05 74.79 88.8 74.93 89.3 75.21 89.64 75.07 90.67 75.7 91.12 75.55 z"/>
</g>
<g fill="#FFBDB1" stroke="#000000" stroke-width="0.05" id="img-68b52f48-24">
  <path d="M66.03,77.16 L 64.75 76.07 63.22 75.49 63.16 75.04 62.56 75.06 61.84 74.78 62.11 74.21 62.44 74.33 62.66 74.05 62.87 74.12 63.51 73.86 64.14 73.53 64.05 73.11 64.44 72.82 65.65 73.48 66.53 73.02 67.28 73.83 67.12 75.15 67.34 75.7 66.86 76.15 66.7 76.11 66.6 76.62 66.34 76.7 66.03 77.16 z"/>
</g>
<g fill="#FFF1EE" stroke="#000000" stroke-width="0.05" id="img-68b52f48-25">
  <path d="M88.05,74.79 L 87.78 73.66 88.35 73.41 88.9 72.7 89.04 73.05 89.3 73.16 89.32 73.59 89.62 73.93 89.76 74.81 89.64 75.07 89.3 75.21 88.8 74.93 88.05 74.79 z"/>
</g>
<g fill="#FF7A6B" stroke="#000000" stroke-width="0.05" id="img-68b52f48-26">
  <path d="M91.29,73.05 L 91.1 73.41 91.25 74.67 91.12 75.55 90.67 75.7 89.64 75.07 89.76 74.81 89.62 73.93 89.32 73.59 89.3 73.16 89.04 73.05 88.9 72.7 88.35 73.41 87.78 73.66 88.05 74.79 87.86 75.06 87.96 75.68 87.34 76.15 87.01 77.27 86.25 76.76 85.53 77.44 85.07 77.32 84.06 77.58 83.92 78.06 83.24 78.67 83.01 78.71 82.61 77.99 82.27 76.52 81.92 76.34 81.63 76.26 81.91 75.84 81.89 75.62 83.12 74.16 83.05 73.78 83.83 73.36 83.6 72.18 83.81 71.2 84.24 70.94 83.91 70.62 84.71 69.61 84.77 69.02 85.36 68.88 86.18 69.57 86.7 69.53 87.06 69.87 86.89 70.55 87.34 70.91 87.57 71.47 88.09 71.24 88.45 70.42 89.3 70.08 89.74 70.34 89.57 70.99 89.66 71.31 89.88 71.33 90.09 71.09 90.96 71.14 91.52 71.67 91.16 72.42 91.14 72.47 90.87 72.51 91.29 73.05 z"/>
</g>
<g fill="#EF2E28" stroke="#000000" stroke-width="0.05" id="img-68b52f48-27">
  <path d="M67.34,75.7 L 67.99 75.67 68.3 75.18 69.06 75.77 69.24 75.34 69.83 75.03 69.87 74.62 70.86 74.2 71.32 74.36 71.82 73.41 71.64 72.96 70.96 73.06 70.88 72.43 70.58 71.84 70.55 71.57 71.06 71.25 70.99 70.91 70.75 70.82 70.66 70.82 70.13 70.66 70.06 70.55 69.6 70.82 69.52 70.39 69.29 70.35 69.24 70.17 69.47 69.81 70.26 69.43 70.84 69.26 71.58 69.09 72.46 68.52 73.6 68.49 74.11 68.25 74.67 68.18 74.68 68.58 74.74 68.36 74.89 68.38 75.04 69.19 75.2 69.29 75.53 69.18 76.26 69.29 76.59 68.62 77.31 68.54 77.61 69.36 77.56 69.88 77.8 70.11 78.23 70.17 78.82 69.84 79.66 69.98 80 70.1 80.09 70.61 80.37 70.68 81.17 70.37 82.14 70.78 82.8 70 83.14 69.22 83.62 69.86 83.91 70.62 84.24 70.94 83.81 71.2 83.6 72.18 83.83 73.36 83.05 73.78 83.12 74.16 81.89 75.62 81.91 75.84 81.63 76.26 81.15 76.65 80.93 76.26 80.72 76.62 80.96 78.01 81.59 78.65 81.44 78.9 81.14 78.72 80.61 78.28 80 78.26 80.03 78.4 79.85 78.44 79.53 78.05 79.15 78.13 78.13 77.96 77.35 78.25 77.07 78.22 76.75 78.01 76.52 77.58 75.42 77.64 75.25 77.94 75.32 79.23 75.14 79.38 74.71 79.69 73.93 79.83 73.76 81.14 73.72 81.14 72.24 80.62 70.97 80.4 69.57 79.75 67.49 79.11 66.85 78.13 66.26 77.74 66.32 77.51 66.03 77.16 66.34 76.7 66.6 76.62 66.7 76.11 66.86 76.15 67.34 75.7 z"/>
</g>
<g fill="#FF7D6E" stroke="#000000" stroke-width="0.05" id="img-68b52f48-28">
  <path d="M91.14,72.47 L 91.16 72.42 91.52 71.67 90.96 71.14 90.09 71.09 89.88 71.33 89.66 71.31 89.57 70.99 89.74 70.34 89.3 70.08 88.45 70.42 88.09 71.24 87.57 71.47 87.34 70.91 86.89 70.55 87.06 69.87 86.7 69.53 86.18 69.57 85.36 68.88 85.41 67.6 87.04 66.82 86.89 66.51 87.02 66 87.53 65.47 87.75 64.79 87.61 64.51 87.89 64.49 88 64.24 88.38 64.43 89.13 64.06 89.29 64.19 89.24 63.61 89.74 63.47 89.92 63.88 90.39 64.05 91.33 63.89 91.4 63.26 91.85 62.91 92.04 63.16 91.99 63.75 92.37 64.21 92.73 64.22 92.92 63.79 93.09 63.9 93.05 64.05 92.97 64.34 93.34 64.19 93.75 64.63 93.64 64.92 93.52 64.88 93.31 65.23 93.25 65.92 92.58 65.77 92.31 66.13 91.87 66.31 91.93 66.54 92.3 66.51 91.6 67.66 91.95 68.32 92.16 68.41 92.41 67.98 92.74 68.01 93.92 66.81 94.24 66.91 94.25 67.1 94.18 67.63 93.91 68.02 93.59 68.59 93.22 68.65 93.18 68.84 93.18 69.15 93.73 69.25 93.92 69.74 93.12 71.1 93.69 72.01 93.12 71.8 92.84 72.18 92.7 72.45 91.96 72.16 91.14 72.47 z"/>
</g>
<g fill="#FF9A8C" stroke="#000000" stroke-width="0.05" id="img-68b52f48-29">
  <path d="M83.91,70.62 L 83.62 69.86 83.14 69.22 82.52 68.77 82.6 68.55 82.3 68.33 82.09 67.09 81.56 66.66 82.22 65.42 82.52 65.31 82.7 65.42 83.98 65.54 84.12 64.77 84.38 64.55 84.47 64.07 84.71 63.96 85.39 64.1 85.88 63.76 85.62 63.42 85.55 62.81 85.79 62.26 86.05 62.09 86.6 62.78 87.42 62.58 87.65 62.08 87.99 62.04 88.2 61.71 88.47 61.61 89.02 63.51 89.24 63.61 89.29 64.19 89.13 64.06 88.38 64.43 88 64.24 87.89 64.49 87.61 64.51 87.75 64.79 87.53 65.47 87.02 66 86.89 66.51 87.04 66.82 85.41 67.6 85.36 68.88 84.77 69.02 84.71 69.61 83.91 70.62 z"/>
</g>
<g fill="#FF6557" stroke="#000000" stroke-width="0.05" id="img-68b52f48-30">
  <path d="M83.14,69.22 L 82.8 70 82.14 70.78 81.17 70.37 80.37 70.68 80.09 70.61 80 70.1 79.66 69.98 78.82 69.84 78.23 70.17 77.8 70.11 77.56 69.88 77.61 69.36 77.31 68.54 76.59 68.62 76.26 69.29 75.53 69.18 75.2 69.29 75.04 69.19 74.89 68.38 74.74 68.36 74.68 68.58 74.67 68.18 74.11 68.25 74.21 67.85 74.76 67.19 74.19 66.22 74.28 66.01 75.4 64.49 75.44 64.23 76.33 63.74 76.74 63.3 76.46 62.2 76.9 61.54 76.68 60.93 76.99 60.48 77.48 60.6 77.99 60.46 78.58 60.96 79.74 61.08 80.81 62.01 81.52 62.34 81.81 62.3 82.39 61.58 83.05 61.59 83.57 61.92 85.55 62.81 85.62 63.42 85.88 63.76 85.39 64.1 84.71 63.96 84.47 64.07 84.38 64.55 84.12 64.77 83.98 65.54 82.7 65.42 82.52 65.31 82.22 65.42 81.56 66.66 82.09 67.09 82.3 68.33 82.6 68.55 82.52 68.77 83.14 69.22 z"/>
</g>
<g fill="#FFBFB4" stroke="#000000" stroke-width="0.05" id="img-68b52f48-31">
  <path d="M75.41,59.66 L 74.82 60.34 74.42 60.51 74.24 60.95 73.46 61.55 72.21 61.38 71.46 60.98 70.99 61.19 70.44 60.66 70.48 60.09 71.16 59.28 71.51 58.24 72.42 57.92 73.04 57.27 73.23 57.29 73.3 57.82 73.57 57.74 73.88 57.99 73.89 58.2 74.53 58.38 74.37 58.99 74.96 59.11 75.41 59.66 z"/>
</g>
<g fill="#DC221E" stroke="#000000" stroke-width="0.05" id="img-68b52f48-32">
  <path d="M76.99,60.48 L 76.68 60.93 76.9 61.54 76.46 62.2 76.74 63.3 76.33 63.74 75.44 64.23 75.4 64.49 74.28 66.01 74.19 66.22 74.76 67.19 74.21 67.85 74.11 68.25 73.6 68.49 72.46 68.52 71.58 69.09 70.84 69.26 70.26 69.43 69.47 69.81 69.24 70.17 69.29 70.35 69.52 70.39 69.6 70.82 70.06 70.55 70.13 70.66 70.66 70.82 70.75 70.82 70.99 70.91 71.06 71.25 70.55 71.57 70.58 71.84 70.88 72.43 70.96 73.06 71.64 72.96 71.82 73.41 71.32 74.36 70.86 74.2 69.87 74.62 69.83 75.03 69.24 75.34 69.06 75.77 68.3 75.18 67.99 75.67 67.34 75.7 67.12 75.15 67.28 73.83 66.53 73.02 65.65 73.48 64.44 72.82 64.05 73.11 64.14 73.53 63.51 73.86 62.87 74.12 62.66 74.05 62.44 74.33 62.11 74.21 61.84 74.78 61.5 74.65 61.15 74.33 60.78 74.38 60.84 74.02 60.41 74.07 59.88 73.73 59.49 73.19 59.33 72.58 58.51 71.98 57.28 70.16 57.07 69.14 56.51 68.34 56.5 68.06 57.07 67.72 58.1 67.6 58.63 67.27 58.66 66.9 58.5 66.65 59.43 65.42 60.09 65.42 60.97 64.92 61.21 64.96 61.69 65.43 62.13 65.47 62.47 65.93 63.37 66.57 63.42 65.76 63.74 65.14 63.65 64.09 64.57 63.91 64.97 63.5 65.05 63.04 63.75 62.13 64.02 61.86 64.31 60.86 62.79 59.31 63.15 58.31 64.06 57.9 65.02 57.76 65.16 57 64.63 56.62 64.8 56.21 64.74 55.64 65.75 55.86 65.91 56.32 65.41 56.64 65.6 57.11 65.35 57.26 65.42 58.74 66.05 56.65 66.46 56.66 66.68 56.92 66.25 58.94 66.34 59.12 66.56 59.29 67.13 59.1 67.88 57.97 67.69 57.4 67.87 57.02 68.83 57.76 68.72 58.08 69.44 58.2 69.08 58.93 69.26 59.24 68.87 59.85 68.26 59.81 67.77 60.08 67.51 60.53 67.01 60.86 67.2 61.15 67.17 61.88 66.5 62.58 66.09 62.29 66.24 62.98 65.99 63.69 65.93 63.84 66.07 63.95 66.52 63.75 66.74 64.03 67.03 63.98 69.44 64.74 69.29 64.03 69.54 63.4 69.9 63.52 70.17 63.29 70.53 63.33 71.26 63 71.49 62.13 70.85 61.75 70.99 61.19 71.46 60.98 72.21 61.38 73.46 61.55 74.24 60.95 74.42 60.51 74.82 60.34 75.41 59.66 75.63 59.64 76.99 60.48 z"/>
</g>
<g fill="#FF6C5E" stroke="#000000" stroke-width="0.05" id="img-68b52f48-33">
  <path d="M58.5,66.65 L 58.25 66.25 57.78 66.33 57.15 66.16 57.53 65.98 58.27 64.93 58.65 64.68 58.79 63.82 58.66 63.18 58.95 62.64 58.75 62.27 58.46 62.26 57.69 61.81 57.38 60.92 56.61 59.79 56.68 58.19 56.31 57.22 56.41 57.2 56.66 57.13 57.6 56.79 57.47 56.08 57 55.7 57.17 55.25 57.65 54.89 57.43 54.53 57.55 54.16 57.85 54.02 58.3 54.19 58.99 54.16 60.26 54.78 60.43 55.54 59.85 56.1 59.85 56.8 61.04 56.11 61.51 56.39 61.75 57.2 62.35 57.53 63.07 57.31 63.24 58.02 63.15 58.31 62.79 59.31 64.31 60.86 64.02 61.86 63.75 62.13 65.05 63.04 64.97 63.5 64.57 63.91 63.65 64.09 63.74 65.14 63.42 65.76 63.37 66.57 62.47 65.93 62.13 65.47 61.69 65.43 61.21 64.96 60.97 64.92 60.09 65.42 59.43 65.42 58.5 66.65 z"/>
</g>
<g fill="#FF6C5E" stroke="#000000" stroke-width="0.05" id="img-68b52f48-34">
  <path d="M52.93,62.8 L 52.38 62.64 52.57 62.32 53.19 62.36 53.29 62.54 52.93 62.8 z"/>
</g>
<g fill="#FF6C5E" stroke="#000000" stroke-width="0.05" id="img-68b52f48-35">
  <path d="M51.84,62.03 L 51.71 61.35 52.01 61.23 52.29 61.36 52.51 61.78 52.36 62.31 51.84 62.03 z"/>
</g>
<g fill="#E02420" stroke="#000000" stroke-width="0.05" id="img-68b52f48-36">
  <path d="M21.72,27.02 L 21.57 27.94 21.8 28.1 21.96 28.58 22.2 28.62 22.46 29.08 22.8 29.1 23.59 29.59 23.84 30.69 24.28 31.26 24.15 31.29 24.19 31.49 25.51 32.02 25.54 32.16 25.26 32.29 25.13 32.58 25.79 33.47 25.69 34.03 26.46 35 26.62 35.06 26.84 34.78 26.24 34.2 25.93 33.29 26.04 33.13 27.45 34.11 27.47 34.99 28.04 35.27 27.85 35.8 28.24 36.2 28.27 36.8 28.64 37.51 28.43 38.33 28.62 38.95 28.77 39 28.74 39.31 29.1 39.66 29.41 40.42 30.13 40.7 30.13 41.28 30.49 41.89 30.66 42.63 30.94 43.09 31.47 43.46 31.75 44.07 31.86 44.67 31.57 45.34 31.53 45.86 31.76 46.94 32.13 47.46 32.66 47.8 33.66 47.97 33.48 48.13 33.19 48.01 33.41 48.37 33.83 47.97 33.68 47.19 34.1 47.09 34.47 47.65 35.14 48.11 35.36 48.76 35.55 48.87 36.05 48.71 36.17 48.88 36.03 49.45 36.65 50.09 36.71 50.83 37.73 51.28 38.1 51.94 37.95 53.13 37.68 53.54 36.81 54.09 36.61 54.43 36.08 54.82 35.4 55.11 35.03 54.9 34.76 54.45 34.31 52.61 33.93 52.15 33.59 51.33 32.03 50.44 30.02 48.39 27.9 47.19 28.36 47.32 27.25 46.51 26.99 45.86 26.84 45.78 26.74 46.03 26.3 45.95 26.44 46.16 26.23 46.21 26.14 45.51 25.63 44.95 25.28 44.19 25.41 44.89 25.12 44.87 25.08 44.37 25.03 44.82 24.82 45.01 24.94 44.83 24.66 44.23 24.9 43.81 24.81 43.43 24.55 44.11 24.4 44.15 24.67 43.28 24.65 42.66 24.95 42.09 24.94 39.83 24.9 39.65 24.85 39.76 24.86 40.47 24.73 40.71 24.73 39.34 24.16 38.02 23.76 37.59 23.6 37.65 23.42 36.7 23.16 36.5 22.88 36.62 22.61 36.47 22.63 36.31 21.97 36.29 21.43 35.83 21.48 35.7 19.84 34.55 19.96 34.3 19.77 34.4 19.22 34.18 19.21 33.8 19.72 33.25 19.72 32.81 19.47 32.75 19.44 33.28 19.16 33.6 19.34 33.57 19.15 33.71 19.11 34.01 18.15 33.57 18.37 33.56 18.18 33.44 17.72 33.99 17.4 34.04 16.74 33.49 16.22 32.73 15.87 32.58 15.41 32.68 14.98 32.05 14.57 31.77 14.21 31.67 14.03 31.79 13.39 31.56 13.27 31.3 13.05 31.24 12.88 30.29 12.41 29.88 11.78 29.62 11.47 29.13 11.15 28.99 11.25 28.93 11.11 28.73 10.93 28.86 10.72 28.58 10.44 28.57 10.18 27.96 10.27 27.79 10.48 27.96 11.19 27.93 12.38 28.32 12.94 28.31 13.7 27.7 13.77 28.24 14.04 28.51 14.59 28.73 15.17 28.61 15.4 28.77 15.55 28.58 15.23 28.3 14.62 28.6 14.3 28.31 14.24 27.95 13.88 27.77 14.01 27.32 14.34 27.02 14.64 26.74 14.63 27.02 14.62 27.23 14.72 27.02 21.72 27.02 z"/>
</g>
<g fill="#E02420" stroke="#000000" stroke-width="0.05" id="img-68b52f48-37">
  <path d="M36.2,48.28 L 35.79 47.98 35.57 47 36.2 48.28 z"/>
</g>
<g fill="#E02420" stroke="#000000" stroke-width="0.05" id="img-68b52f48-38">
  <path d="M26.73,47.22 L 25.2 46.11 26.09 46.06 26.14 46.33 26.79 46.88 26.73 47.22 z"/>
</g>
<g fill="#E02420" stroke="#000000" stroke-width="0.05" id="img-68b52f48-39">
  <path d="M31.72,43.09 L 32.3 43.39 32.53 44.2 31.98 43.94 31.66 43.34 31.72 43.09 z"/>
</g>
<g fill="#E02420" stroke="#000000" stroke-width="0.05" id="img-68b52f48-40">
  <path d="M24.63,42.04 L 24.29 44.41 24.63 45.12 24.58 45.49 24.94 45.77 25.03 46.19 24.4 45.41 24.53 45.15 24.39 44.74 23.78 44.6 24.12 44.03 24.63 42.04 z"/>
</g>
<g fill="#E02420" stroke="#000000" stroke-width="0.05" id="img-68b52f48-41">
  <path d="M29.2,39.18 L 29.08 39.01 29.28 37.89 29.79 37.69 29.73 38.08 29.88 38.26 29.52 38.08 29.2 39.18 z"/>
</g>
<g fill="#E02420" stroke="#000000" stroke-width="0.05" id="img-68b52f48-42">
  <path d="M10.39,4.52 L 10.3 4.46 10.41 4.75 10.71 4.82 11.1 5.34 11.35 5.39 11.57 6.28 11.21 6.96 11.06 9.11 11.37 9.66 11.32 10.02 11.93 10.43 11.99 12.01 12.33 12.94 12.16 14.6 12.72 15.72 13.37 16.19 13.55 16.88 13.91 17.1 14.11 16.96 14.4 17.11 15.14 18.03 16.75 19.38 17.14 19.92 17.12 20.22 17.64 20.78 17.65 21.65 17.86 22.02 18.11 22.01 18.06 21.75 18.31 21.6 18.63 21.92 18.65 22.55 19.21 22.36 19.39 22.45 19.8 24.33 20.26 24.57 21.03 24.59 20.98 25.48 21.4 25.94 21.44 26.85 21.72 27.01 21.72 27.02 14.72 27.02 14.78 26.89 14.86 26.02 14.51 25.55 14.93 24.79 15.1 24.06 14.71 23.69 14.61 23.25 14.11 23.19 14.12 23.02 13.48 22.36 13.41 22.05 12.99 21.75 12.74 21.8 12.66 21.54 12.38 21.28 12.21 20.76 11.91 20.64 11.74 20.28 10.72 19.27 9.55 18.98 9.33 18.64 8.16 17.86 7.88 17.85 7.65 17.46 7.05 17.05 7.05 16.49 6.88 16.13 6.49 15.99 6.61 15.12 6.4 13.84 6.19 13.54 5.7 13.46 5.89 13.19 5.64 12.89 5.75 13.19 5.47 13.22 5.58 13.6 5.36 13.2 5.27 11.17 4.52 10.62 4.27 10.24 3.93 10.15 4.05 9.48 3.88 8.77 3.1 7.55 2.61 7.29 2.2 6.79 2.39 6.61 2.4 6.19 1.98 5.68 2.45 5.73 2.56 5.14 1.87 4.7 1.67 4.31 1.35 4.23 1.05 2.88 0.47 2.46 0 1.55 0 1.09 5.02 0.59 11.85 0 11.42 0.61 11.37 1.27 10.79 1.45 10.65 2.06 10.27 2.73 10.48 3.42 10.39 4.52 z"/>
</g>
<g fill="#E02420" stroke="#000000" stroke-width="0.05" id="img-68b52f48-43">
  <path d="M9.59,26.88 L 8.98 26.47 8.72 26.51 9.24 25.74 9.09 25.25 9.29 24.94 9.59 25.29 9.76 26.02 9.59 26.88 z"/>
</g>
<g fill="#E02420" stroke="#000000" stroke-width="0.05" id="img-68b52f48-44">
  <path d="M19.66,21.3 L 19.16 21.02 18.12 19.78 17.82 19.69 17.39 18.92 17.52 18.54 17.44 18.1 18.35 18.67 18.55 19.12 18.46 19.59 19.44 19.74 19.41 20.61 19.73 21.07 19.66 21.3 z"/>
</g>
<g fill="#0000FF" fill-opacity="0.500" stroke="#0000FF" stroke-opacity="0.500" stroke-width="0.25" id="img-68b52f48-45">
  <circle cx="82.96" cy="39.87" r="1.41"/>
  <circle cx="52.85" cy="53.28" r="0.12"/>
  <circle cx="68.01" cy="66.75" r="1.63"/>
  <circle cx="95.17" cy="58.42" r="0.28"/>
  <circle cx="88.83" cy="73.3" r="10"/>
  <circle cx="93.44" cy="75.28" r="0.72"/>
  <circle cx="103.84" cy="75.5" r="0.25"/>
  <circle cx="99.57" cy="86.39" r="0.08"/>
  <circle cx="136.09" cy="65.97" r="0.26"/>
  <circle cx="9.02" cy="0.59" r="0.23"/>
  <circle cx="73.73" cy="60.5" r="0.18"/>
  <circle cx="131.19" cy="71.33" r="0.07"/>
  <circle cx="33.9" cy="47.97" r="0.04"/>
  <circle cx="119.1" cy="87.82" r="0.07"/>
  <circle cx="55.03" cy="23.88" r="0.25"/>
  <circle cx="79.6" cy="41.16" r="0.18"/>
  <circle cx="66.33" cy="74.43" r="0.04"/>
  <circle cx="62.8" cy="48.89" r="0.16"/>
  <circle cx="78.84" cy="64.97" r="0.01"/>
  <circle cx="87.56" cy="84.07" r="0.02"/>
  <circle cx="90.94" cy="69.79" r="0.05"/>
  <circle cx="79.22" cy="72.06" r="0.19"/>
  <circle cx="86.83" cy="73.86" r="0.12"/>
  <circle cx="88.56" cy="75.79" r="0.11"/>
  <circle cx="60.91" cy="62.22" r="0.08"/>
  <circle cx="83.33" cy="67.66" r="0.13"/>
  <circle cx="142.45" cy="77.87" r="0.02"/>
  <circle cx="79.74" cy="58.99" r="0.31"/>
  <circle cx="47.72" cy="45.13" r="0.19"/>
  <circle cx="31.04" cy="21.29" r="0.19"/>
  <circle cx="119.75" cy="80.91" r="0.09"/>
  <circle cx="93.42" cy="74.08" r="0"/>
  <circle cx="99.7" cy="73.09" r="0.12"/>
  <circle cx="71.08" cy="55.67" r="0.03"/>
  <circle cx="88.73" cy="50.42" r="0.07"/>
  <circle cx="84.86" cy="86.05" r="0.19"/>
</g>
</svg>
