<?xml version="1.0" encoding="UTF-8"?>
<svg xmlns="http://www.w3.org/2000/svg"
     xmlns:xlink="http://www.w3.org/1999/xlink"
     version="1.2"
     width="150mm" height="98.48mm" viewBox="0 0 150 98.48"
     stroke="none"
     fill="#000000"
     stroke-width="0.3"
     font-size="3.88"
>
<g stroke="#FFA500" stroke-width="0.2" id="img-1745d1d4-1">
  <path fill="none" d="M121.81,95.54 L 122.2 96.58 122.84 96.76 123.27 96.34 123.56 96.64 123.53 97.68 125.01 97.75 125.14 98.37 125.77 98.36"/>
</g>
<g stroke="#FFA500" stroke-width="0.2" id="img-1745d1d4-2">
  <path fill="none" d="M121.81,95.54 L 122.23 95.95 122.52 95.81 122.4 95.3 122.64 95.56 122.8 95.51 123.08 95.05 122.88 94.97 122.99 94.86 122.85 94.6 123.44 93.91 123.46 93.53 123.26 93.21 123.31 92.81 123.58 92.6 124 92.71"/>
</g>
<g stroke="#FFA500" stroke-width="0.2" id="img-1745d1d4-3">
  <path fill="none" d="M113.07,89.15 L 113.53 89.35 114.06 89.25 116.47 91.64 118.18 92.74 119.01 93.77 119.3 93.75 119.58 94.05 120.72 94.51 121.31 95.3 121.81 95.54"/>
</g>
<g stroke="#FFA500" stroke-width="0.2" id="img-1745d1d4-4">
  <path fill="none" d="M124,92.71 L 124.14 92.99 124.66 93.06 125.08 93.85 125.94 94.22 126.05 94.45"/>
</g>
<g stroke="#FFA500" stroke-width="0.2" id="img-1745d1d4-5">
  <path fill="none" d="M124,92.71 L 124.21 92.35 124.22 91.91 124.07 91.7 123.96 90.8 123.4 89.78 122.49 88.49 121.47 88.12 121.45 87.88 120.88 87.24 120.08 87.22 119.85 87.39 119.3 87.15 119.03 87.45 118.99 87.26 118.33 87.21 117.88 86.94 117.45 87.21 117 87.07 116.59 87.26 116.42 87.55 115.52 87.55 114.66 88.31 113.07 89.15"/>
</g>
<g stroke="#FFA500" stroke-width="0.2" id="img-1745d1d4-6">
  <path fill="none" d="M85.57,86.05 L 87.01 86.54 87.46 86.26 87.87 86.73 88.77 86.59 91.03 87.53 94.18 89.35 95.2 89.56 95.77 90.38 97.77 90.74 99.36 90.65 101.48 91.77 102.38 91.68 103.38 91.68 103.6 91.57 103.91 91.41 105.22 91.56 105.76 91.18 106.09 91.19 107.37 90.48 107.97 90.14 108.14 90.04 108.08 89.42"/>
</g>
<g stroke="#FFA500" stroke-width="0.2" id="img-1745d1d4-7">
  <path fill="none" d="M108.08,89.42 L 109.1 88.85"/>
</g>
<g stroke="#FFA500" stroke-width="0.2" id="img-1745d1d4-8">
  <path fill="none" d="M109.1,88.85 L 110.25 88.59 111.11 88.19 112.29 88.57 113.07 89.15"/>
</g>
<g stroke="#FFA500" stroke-width="0.2" id="img-1745d1d4-9">
  <path fill="none" d="M109.64,81.05 L 108.9 82.18 108.96 83.89 108.78 84.31 109.28 85.71 109.1 87 109.43 87.7 109.48 88.24 109.1 88.85"/>
</g>
<g stroke="#FFA500" stroke-width="0.2" id="img-1745d1d4-10">
  <path fill="none" d="M73.27,79.99 L 73.44 80.05 73.99 79.95 75.71 80.09 77.38 81.71 78.83 82.52 79.37 83.13 79.82 83.42 80.14 83.75 81.27 84.13 81.99 83.94 82.31 84.37 83.53 85.12 84.03 85.36 84.25 85.27 85.34 85.98 85.57 86.05"/>
</g>
<g stroke="#FFA500" stroke-width="0.2" id="img-1745d1d4-11">
  <path fill="none" d="M119.2,80.76 L 119.81 81.01 121.31 82.37 123.83 82.37 124.84 81.81 125.32 80.93 127.65 79 128.83 77.41 130.25 77.54"/>
</g>
<g stroke="#FFA500" stroke-width="0.2" id="img-1745d1d4-12">
  <path fill="none" d="M109.64,81.05 L 110.4 81.07 110.94 80.76 111.38 80.79 111.92 80.26 113.47 80.78 115 80.9 116.23 80.81"/>
</g>
<g stroke="#FFA500" stroke-width="0.2" id="img-1745d1d4-13">
  <path fill="none" d="M109.64,81.05 L 109.46 80.33 108.46 80.08 107.84 79.68 107.62 79.72 107.47 79.41 107.19 79.27 107.61 78.54 107.45 78.63 107.05 78.31 107.04 77.68 106.59 77.44 106.36 77.37 104.94 77.1 103.64 75.42"/>
</g>
<g stroke="#FFA500" stroke-width="0.2" id="img-1745d1d4-14">
  <path fill="none" d="M116.23,80.81 L 117.26 80.74"/>
</g>
<g stroke="#FFA500" stroke-width="0.2" id="img-1745d1d4-15">
  <path fill="none" d="M117.26,80.74 L 117.92 80.57 118.31 80.76 119.2 80.76"/>
</g>
<g stroke="#FFA500" stroke-width="0.2" id="img-1745d1d4-16">
  <path fill="none" d="M117.26,80.74 L 117.33 80.48 117.12 79.87 117.38 79.53 118.02 79.3 118.51 79.07 118.7 78.61 120.72 78.53 121.88 77.33 122.92 77.53 124.99 78.82 126.57 78.64 128.1 77.39 128.37 75.42 129.69 74.65 130.23 73.73"/>
</g>
<g stroke="#FFA500" stroke-width="0.2" id="img-1745d1d4-17">
  <path fill="none" d="M65.76,75.49 L 66.71 76.38 67.25 76.66 68.29 78.33 73.27 79.99"/>
</g>
<g stroke="#FFA500" stroke-width="0.2" id="img-1745d1d4-18">
  <path fill="none" d="M130.25,77.54 L 131.71 77.77 132.16 77.34 133.96 77.09 134.74 77.27 136.6 78.11 137.79 78.4 140.29 78.26 141.45 78"/>
</g>
<g stroke="#FFA500" stroke-width="0.2" id="img-1745d1d4-19">
  <path fill="none" d="M141.45,78 L 142.23 78.15"/>
</g>
<g stroke="#FFA500" stroke-width="0.2" id="img-1745d1d4-20">
  <path fill="none" d="M146.55,69.01 L 145.81 69.36 145.54 70.2 144.85 70.58 143.61 72.36 143.56 73.11 143.1 74.18 142.89 75.76 141.96 76.9 141.45 78"/>
</g>
<g stroke="#FFA500" stroke-width="0.2" id="img-1745d1d4-21">
  <path fill="none" d="M60.37,62.41 L 60.33 63 60.16 63.26 60.36 63.92 60.03 64.25 60 64.22 59.07 65.85 59.79 66.72 59.61 67.59 58.97 67.83 59.16 69.9 60.06 71.39 60.38 71.25 60.83 72.02 62.09 73.07 62.59 72.93 63.04 73.46 64.31 74.37 64.9 74.65 65.53 75.28 65.76 75.49"/>
</g>
<g stroke="#FFA500" stroke-width="0.2" id="img-1745d1d4-22">
  <path fill="none" d="M96.99,67.38 L 97.23 67.53 98.15 67.2 98.49 67.45 98.5 67.81 98.84 67.89 99.19 67.73 99.42 67.85 100.32 68.91 101.19 70.01 101.18 70.31 102.03 71.05 102.17 71.51 102.52 73.47 102.36 73.65 101.83 73.77 101.88 73.92 102.46 74.17 102.59 74.5 103.62 74.83 103.79 74.99 103.64 75.42"/>
</g>
<g stroke="#FFA500" stroke-width="0.2" id="img-1745d1d4-23">
  <path fill="none" d="M75.68,71.35 L 77.25 72.27 78.44 71.85 79.48 71.94 79.77 72.14 80.39 71.96 80.63 72.24 80.91 72.02 81.03 72.25 80.94 72.48 81.17 72.85 81.8 73.24 82.07 73.17 82.1 72.96 82.66 72.94 82.8 73.3 83.13 73.16 84.13 73.44 85.14 73.32 85.93 74.02 87.68 73.95 88.5 73.37"/>
</g>
<g stroke="#FFA500" stroke-width="0.2" id="img-1745d1d4-24">
  <path fill="none" d="M130.23,73.73 L 130.46 73.21 130.71 71.57 131.22 71.15 131.59 71.06 132.03 71.27 132.64 71.22 132.76 70.14 133.63 68.61 133.51 67.82 133.67 67.27 134.4 66.9 134.94 65.88 135.62 65.27 136.04 65.23"/>
</g>
<g stroke="#FFA500" stroke-width="0.2" id="img-1745d1d4-25">
  <path fill="none" d="M88.5,73.37 L 88.94 72.82 88.39 72.7 88.38 71.43 88.92 71.31"/>
</g>
<g stroke="#FFA500" stroke-width="0.2" id="img-1745d1d4-26">
  <path fill="none" d="M67.49,68.85 L 67.61 69.13 68.87 69.56 69.51 69.42 70.31 69.53 70.54 69.79 71.1 69.96 71.1 70.35 71.92 70.17 72.56 70.53 73.09 70.52 73.22 70.35 73.74 71.01 75.68 71.35"/>
</g>
<g stroke="#FFA500" stroke-width="0.2" id="img-1745d1d4-27">
  <path fill="none" d="M88.92,71.31 L 88.36 69.96 88.34 69.18"/>
</g>
<g stroke="#FFA500" stroke-width="0.2" id="img-1745d1d4-28">
  <path fill="none" d="M83.27,67.29 L 85.76 68.8 86.51 69.05 86.93 68.98 87.72 69.37 88.34 69.18"/>
</g>
<g stroke="#FFA500" stroke-width="0.2" id="img-1745d1d4-29">
  <path fill="none" d="M88.34,69.18 L 88.5 68.99 88.42 68.38 88.62 67.95 88.39 67.75"/>
</g>
<g stroke="#FFA500" stroke-width="0.2" id="img-1745d1d4-30">
  <path fill="none" d="M149.31,64.21 L 149.46 64.2 149.22 65.91 148.2 67.06 147.31 67.78 146.55 69.01"/>
</g>
<g stroke="#FFA500" stroke-width="0.2" id="img-1745d1d4-31">
  <path fill="none" d="M67.73,66.81 L 66.99 68.06 67.49 68.85"/>
</g>
<g stroke="#FFA500" stroke-width="0.2" id="img-1745d1d4-32">
  <path fill="none" d="M67.73,66.81 L 68.06 66.97 68.22 66.88 68.31 67.11 68.69 67.32 69.03 67.3 69.49 67 70.73 67.44 72.01 67.47 72.58 67.32 74 67.98 74.15 68.36 74.48 68.5 77.09 67.87"/>
</g>
<g stroke="#FFA500" stroke-width="0.2" id="img-1745d1d4-33">
  <path fill="none" d="M77.69,66.9 L 77.09 67.87"/>
</g>
<g stroke="#FFA500" stroke-width="0.2" id="img-1745d1d4-34">
  <path fill="none" d="M88.39,67.75 L 88.05 67.77 87.9 67.53 87.77 67.27 87.76 66.37 88.32 65.78 88.44 65.03 89.29 64.68 89.42 64.36 89.63 64.32 89.82 63.66 89.68 63.68 89.48 63.07 89.54 62.84 89.94 62.73 89.46 62.28 89.77 60.4 89.4 59.75 89.58 59.42 89.61 58.81 89.04 56.82 89.38 56.42 89.37 56.03 89.63 55.83 89.68 55.41 89.37 55.23 89.35 54.69 88.88 53.75 88.97 53.11 89.45 52.68"/>
</g>
<g stroke="#FFA500" stroke-width="0.2" id="img-1745d1d4-35">
  <path fill="none" d="M83.27,67.29 L 82.62 67.15 81.39 67.54 79.53 67.62 78.46 67.2 78.15 66.85 77.69 66.9"/>
</g>
<g stroke="#FFA500" stroke-width="0.2" id="img-1745d1d4-36">
  <path fill="none" d="M93.71,56.78 L 93.93 57.05 94.44 57.21 95.01 57.92 95.36 58.8 96.09 62.18 95.77 63.63 95.71 64.66 95.94 65.32 96.59 66.03 96.99 67.38"/>
</g>
<g stroke="#FFA500" stroke-width="0.2" id="img-1745d1d4-37">
  <path fill="none" d="M81.67,64.2 L 82.33 64.99 82.49 65.48 82.27 65.97 83.32 66.64 83.27 67.29"/>
</g>
<g stroke="#FFA500" stroke-width="0.2" id="img-1745d1d4-38">
  <path fill="none" d="M137.77,65.72 L 139.65 66.54 140.86 66.62 141.28 66.94 141.72 66.99 143.18 66.6 144.11 66.79 145.52 65.65 146.16 65.65 147.97 64.93 148.94 64.26 149.31 64.21"/>
</g>
<g stroke="#FFA500" stroke-width="0.2" id="img-1745d1d4-39">
  <path fill="none" d="M77.69,66.9 L 77.96 65.96 77.92 65.66 76.18 64.4 75.17 63.14 74.2 62.39 73.58 62.29 73.34 61.62 73.23 57.96 72.79 56.96 72.3 56.84 72.28 55.81 71.65 55.12"/>
</g>
<g stroke="#FFA500" stroke-width="0.2" id="img-1745d1d4-40">
  <path fill="none" d="M60.37,62.41 L 61.33 63.14 61.5 63.42 61.54 63.98 62.13 64.69 62.85 64.9 63.64 64.61 64.9 65.47 65.57 65.44 65.56 65.6 65.91 65.71 66.53 66.33 67.28 66.51 67.73 66.81"/>
</g>
<g stroke="#FFA500" stroke-width="0.2" id="img-1745d1d4-41">
  <path fill="none" d="M67.73,66.81 L 68.31 66.38 68.06 65.98 68.42 65.88 68.8 65.21 68.77 63.91 69.22 62.59 69.18 62.3 69.41 61.76 69.71 61.76 69.78 61.6 69.82 60.86 70.22 60.34 70.32 59.57 70.58 59 70.25 57.91 71.06 56.32 71.65 55.12"/>
</g>
<g stroke="#FFA500" stroke-width="0.2" id="img-1745d1d4-42">
  <path fill="none" d="M136.04,65.23 L 136.67 65.53 137.57 65.63 137.77 65.72"/>
</g>
<g stroke="#FFA500" stroke-width="0.2" id="img-1745d1d4-43">
  <path fill="none" d="M80.92,61.6 L 80.76 61.79 80.8 62.18 81.13 63.02 81.53 63.29 81.67 64.2"/>
</g>
<g stroke="#FFA500" stroke-width="0.2" id="img-1745d1d4-44">
  <path fill="none" d="M54.07,53.17 L 54.26 53.37 54.44 53.51 55.67 54.46 55.93 55.25 56.86 55.97 56.91 56.69 58.03 57.06 58.79 59.08 58.76 60.01 59.25 60.61 59.57 61.44 59.95 61.64 60.37 62.41"/>
</g>
<g stroke="#FFA500" stroke-width="0.2" id="img-1745d1d4-45">
  <path fill="none" d="M79.79,58.92 L 80.24 59.32 80.62 60.28 81.14 61.04 81.14 61.32 80.92 61.6"/>
</g>
<g stroke="#FFA500" stroke-width="0.2" id="img-1745d1d4-46">
  <path fill="none" d="M71.65,55.12 L 76.31 56.58 77.28 57.47 78.77 58.04 79.79 58.92"/>
</g>
<g stroke="#FFA500" stroke-width="0.2" id="img-1745d1d4-47">
  <path fill="none" d="M79.79,58.92 L 80.72 57.6"/>
</g>
<g stroke="#FFA500" stroke-width="0.2" id="img-1745d1d4-48">
  <path fill="none" d="M80.72,57.6 L 81.12 57.36 81.35 56.69 81.91 56.38 82.27 56.5 82.84 56.3 83.22 56.7 83.14 57.41 83.62 57.14 83.81 56.57"/>
</g>
<g stroke="#FFA500" stroke-width="0.2" id="img-1745d1d4-49">
  <path fill="none" d="M93.71,56.78 L 93.92 55.91 93.89 55.28 94.19 55.07 94.06 54.84 94.35 53.25 94.24 51.89 93.08 48.98 92.51 48.67 92.01 47.83"/>
</g>
<g stroke="#FFA500" stroke-width="0.2" id="img-1745d1d4-50">
  <path fill="none" d="M79.66,41.26 L 80.57 41.22 80.64 42.01 80.49 42.32 81.98 43.57 82.93 44.65 83.22 45.82 83.09 46.29 82.58 46.93 82.66 48.46 81.34 50.87 82.19 54.57 82.52 54.76 83.32 56.03 83.71 56.26 83.81 56.57"/>
</g>
<g stroke="#FFA500" stroke-width="0.2" id="img-1745d1d4-51">
  <path fill="none" d="M83.81,56.57 L 85.9 54.39 86.06 53.49 86.86 52.33 87.57 52.15 88.03 51.04 88.48 51.04 88.59 50.55 88.82 50.44"/>
</g>
<g stroke="#FFA500" stroke-width="0.2" id="img-1745d1d4-52">
  <path fill="none" d="M69.93,52.76 L 71.65 55.12"/>
</g>
<g stroke="#FFA500" stroke-width="0.2" id="img-1745d1d4-53">
  <path fill="none" d="M71.65,55.12 L 73.43 52.41 75.9 49.93 76.24 49.12 76.67 48.88 77.37 47.81 77.74 46.52 77.82 45.82 77.7 45.65 78.75 44.97 79.21 44.36 79.26 43.36 79.03 42.99 79.14 42.09 79.66 41.26"/>
</g>
<g stroke="#FFA500" stroke-width="0.2" id="img-1745d1d4-54">
  <path fill="none" d="M36.77,54 L 36.55 54.39 36.18 54.68 35.74 54.07 35.25 52.36 34.99 51.94 34.11 50.95 33.99 49.7"/>
</g>
<g stroke="#FFA500" stroke-width="0.2" id="img-1745d1d4-55">
  <path fill="none" d="M37.96,52.79 L 37.51 53.62 36.77 54"/>
</g>
<g stroke="#FFA500" stroke-width="0.2" id="img-1745d1d4-56">
  <path fill="none" d="M54.07,53.17 L 54.06 53.15 53.49 52.37 53.31 52.19 52.01 50.89 51.83 49.69 51.52 49.58 50.77 48.45 49.91 48.09 49.51 47.39 49.49 46.55 48.54 45.36"/>
</g>
<g stroke="#FFA500" stroke-width="0.2" id="img-1745d1d4-57">
  <path fill="none" d="M54.07,53.17 L 54.97 52.61 55.37 52.06 55.27 51.87 55.65 51.52 55.54 51.44 55.71 51.35 55.68 50.98 56.1 50.92 56.53 50.43 57.27 50.34 57.45 50.47 58.64 49.73 59.72 49.63 59.88 49.79 60.12 49.35 60.57 49.33 61.51 48.86"/>
</g>
<g stroke="#FFA500" stroke-width="0.2" id="img-1745d1d4-58">
  <path fill="none" d="M33.99,49.7 L 34.98 49.99 35.76 50.61 36.64 50.66 36.79 51.77 37.43 52.18 37.67 52.68 37.96 52.79"/>
</g>
<g stroke="#FFA500" stroke-width="0.2" id="img-1745d1d4-59">
  <path fill="none" d="M61.51,48.86 L 62.94 49.02 63.1 49.54 63.6 49.85 63.97 49.87 64.56 50.33 65.51 50.2 66.42 50.75 67.5 50.81 68.04 51.01 68.58 51.42 69.07 51.51 69.93 52.76"/>
</g>
<g stroke="#FFA500" stroke-width="0.2" id="img-1745d1d4-60">
  <path fill="none" d="M69.93,52.76 L 70.04 51.15 69.9 50.55 68.66 48.99 67.71 47.47 67.75 46.93 68.05 46.31 68 45.75 68.62 45.28 68.32 45.05 68.34 44.74 67.94 44.6 67.4 43.66 66.94 43.36 67.32 41.63 67.27 40.37"/>
</g>
<g stroke="#FFA500" stroke-width="0.2" id="img-1745d1d4-61">
  <path fill="none" d="M89.45,52.68 L 89.6 51.63 88.82 50.44"/>
</g>
<g stroke="#FFA500" stroke-width="0.2" id="img-1745d1d4-62">
  <path fill="none" d="M85.38,42.58 L 86.12 44.18 86.75 44.38 86.84 45.75 86.73 46 87.05 46.42 86.97 47.08 87.61 47.9 88.85 48.63 88.96 49.72 88.82 50.44"/>
</g>
<g stroke="#FFA500" stroke-width="0.2" id="img-1745d1d4-63">
  <path fill="none" d="M92.01,47.83 L 91.34 48.38 90.27 48.54 88.82 50.44"/>
</g>
<g stroke="#FFA500" stroke-width="0.2" id="img-1745d1d4-64">
  <path fill="none" d="M33.99,49.7 L 33.6 48.22 33.29 48.49 32.85 48.36 32.33 48.71 31.99 48.49 31.6 48.52 31.27 48.22 30.62 48.12 30.11 47.03 27.93 45.82 26.4 42.21 27.44 41.46 28.24 40.41 29.02 39.89 28.46 39.12 28.39 38.11 28.41 37.75 27.65 36.39 26.83 35.31 26.49 35.13 25.62 34.11 25.74 33.43 25.16 33.04 24.52 31.79 24.17 31.52 23.89 30.94 23.7 30.42 22.19 30.28 21.33 30.81 20.06 30.94 19.06 30.2 18.45 28.93 18.11 28.56 16.01 27.53 16.01 26.69 16.33 24.86 15.95 24.17 15.41 23.22 14.89 22.5 14.89 22.38 14.64 21.8 14.66 20.06 13.53 19.23 12.07 17.31 11.82 17.24 11.07 16.33 9.65 15.93 9.05 15.38 8.35 15.34 8.47 14.96 8.37 14.89 7.64 14.87 7.32 13.98 7.28 13.94 6.38 13.62 6.22 13.51 5.94 11.3 5.86 10.82 4.95 9.43 4.92 9.18 4.66 8.46 3.96 7.74 3.79 7.12 3.62 6.71 3.48 6.01 3.59 5.25 3.64 4.81"/>
</g>
<g stroke="#FFA500" stroke-width="0.2" id="img-1745d1d4-65">
  <path fill="none" d="M60.19,31.88 L 56.67 32.98 56.87 33.24 56.85 33.5 57.16 34.31 57.41 35.63 58.31 36.06 59.04 36.41 61.94 40.61 61.63 41.87 61.92 42.44 62.35 43.52 62.46 44.34 62.15 44.88 61.63 45.33 61.32 46.49 61.32 47.62 61.38 48.44 61.51 48.86"/>
</g>
<g stroke="#FFA500" stroke-width="0.2" id="img-1745d1d4-66">
  <path fill="none" d="M61.51,48.86 L 61.56 48.82 61.94 48.5 61.84 48.24 62.44 47.77 62.92 47.01 64.64 46.3 65.15 45.82 65.55 45.03 66.06 44.76 66.26 44.35 66.22 43.93 65.9 43.42 65.93 43 66.27 42.51 66.66 42.27 66.32 40.96 67.27 40.37"/>
</g>
<g stroke="#FFA500" stroke-width="0.2" id="img-1745d1d4-67">
  <path fill="none" d="M96.85,38.74 L 96.78 39.09 96.04 40.51 95.38 40.99 95.16 41.36 95.02 41.65 95.07 42.08 94.06 43.19 93.72 44.32 93.12 45.02 92.87 46.14 92.01 47.83"/>
</g>
<g stroke="#FFA500" stroke-width="0.2" id="img-1745d1d4-68">
  <path fill="none" d="M48.54,45.36 L 47.16 43.62 45.58 42.34 45.31 41.74 44.55 40.99"/>
</g>
<g stroke="#FFA500" stroke-width="0.2" id="img-1745d1d4-69">
  <path fill="none" d="M82.96,39.96 L 84.3 41.95 85 42.49 85.38 42.58"/>
</g>
<g stroke="#FFA500" stroke-width="0.2" id="img-1745d1d4-70">
  <path fill="none" d="M67.27,40.37 L 68.1 39.38 69.15 39.28 69.87 39.44 70.33 40.14 71.13 40.39 72.6 39.86 74.61 40.04 76.8 39.94 78.12 41.14 79.37 41.07 79.66 41.26"/>
</g>
<g stroke="#FFA500" stroke-width="0.2" id="img-1745d1d4-71">
  <path fill="none" d="M82.01,23.16 L 81.54 23.79 80.32 24.91 80.39 25.1 79.41 25.56 79.03 26.14 78.56 27.37 79 27.92 78.67 28.97 78.47 31.46 77.49 33.13 77.5 33.74 77.86 34.86 77.82 37.79 78.5 38.51 78.82 38.54 79.05 39.32 79.08 40.25 79.64 40.75 79.66 41.26"/>
</g>
<g stroke="#FFA500" stroke-width="0.2" id="img-1745d1d4-72">
  <path fill="none" d="M79.66,41.26 L 80.06 40.42 81.35 39.78 81.95 39.77 82.42 40.04 82.96 39.96"/>
</g>
<g stroke="#FFA500" stroke-width="0.2" id="img-1745d1d4-73">
  <path fill="none" d="M44.55,40.99 L 43.55 40.87 40.98 39.11 40.19 39.15 39.82 38.34 40.01 37.99 40 37.96 40.88 36.57 40.27 35.39 38.32 33.64 37.96 32.89 37.87 32.01 35.49 29.91 35.55 29.31 35.37 29.16 34.72 29.26 33.7 29.01 33.76 28.42 33.37 27.73 32.47 27.28 30.95 26.82 30.4 26.47 30.03 25.45 29.97 24.08 30.43 22.43 30.43 21.18 31.01 21.2 31.03 20.81 30.91 20.61 30.64 20.75 29.93 16.82 29.65 16.22 29.78 13.28 29.67 12.64"/>
</g>
<g stroke="#FFA500" stroke-width="0.2" id="img-1745d1d4-74">
  <path fill="none" d="M60.19,31.88 L 63.07 33.88 66.28 37.62 67.27 40.37"/>
</g>
<g stroke="#FFA500" stroke-width="0.2" id="img-1745d1d4-75">
  <path fill="none" d="M85.68,32.73 L 85.24 33.7 83.68 35.28 84.09 36.64 83.93 38.08 83.17 39.18 82.96 39.96"/>
</g>
<g stroke="#FFA500" stroke-width="0.2" id="img-1745d1d4-76">
  <path fill="none" d="M86.96,29.83 L 85.68 32.73"/>
</g>
<g stroke="#FFA500" stroke-width="0.2" id="img-1745d1d4-77">
  <path fill="none" d="M59.31,29.16 L 60.12 30.18 60.19 31.88"/>
</g>
<g stroke="#FFA500" stroke-width="0.2" id="img-1745d1d4-78">
  <path fill="none" d="M52.29,13.59 L 53.14 15.92 52.99 16.51 53.31 18.22 53.05 18.38 52.83 18.94 53.26 21.23 53.86 22.23 53.89 22.61 54.65 23.5 55.09 23.72 55.23 24.12 56.31 24.51 57.43 25.49 58.04 25.65 58.04 26.04 58.42 26.54 58.41 27.13 58.89 27.84 59.06 28.85 59.31 29.16"/>
</g>
<g stroke="#FFA500" stroke-width="0.2" id="img-1745d1d4-79">
  <path fill="none" d="M52.62,10.49 L 52.36 11.43 52.29 13.59"/>
</g>
<g stroke="#FFA500" stroke-width="0.2" id="img-1745d1d4-80">
  <path fill="none" d="M8.3,0.61 L 9.09 0.99 10.47 1.18 14.8 2.62 15.97 3.46 21.04 4.87 21.01 5.82 22.74 8.44 23.49 10.18 24.45 11.55 25.01 11.84 26.13 11.66 27.47 12.31 29.67 12.64"/>
</g>
<g stroke="#FFA500" stroke-width="0.2" id="img-1745d1d4-81">
  <path fill="none" d="M29.67,12.64 L 30.77 11.84 30.95 11.24"/>
</g>
<g stroke="#FFA500" stroke-width="0.2" id="img-1745d1d4-82">
  <path fill="none" d="M30.95,11.24 L 31.68 10.58 31.97 10.71 32.38 10.02 34.15 9.91 34.54 9.62 34.78 9.08 35.4 8.94 36.06 8.45 36.54 8.45 37.35 8.14 38.21 8.68 38.34 9.28 38.63 9.55 38.99 11.01 39.35 10.8 39.81 11.54 40.06 11.46 40.04 11.22 40.44 10.57 43.13 11.4 43.68 10.75 44.32 10.44 44.36 9.8 45.56 9.01 46.13 8.27 46.29 7.79 46.87 7.79 48.46 7.23 50.46 6.4 50.68 6.12 51.97 5.87 52.78 6.25"/>
</g>
<g stroke="#FFA500" stroke-width="0.2" id="img-1745d1d4-83">
  <path fill="none" d="M30.51,8.07 L 30.35 8.84 30.96 10.25 30.95 11.24"/>
</g>
<g stroke="#FFA500" stroke-width="0.2" id="img-1745d1d4-84">
  <path fill="none" d="M52.78,6.25 L 52.57 7.05 52.66 7.74 52.42 8.36 52.62 10.49"/>
</g>
<g stroke="#FFA500" stroke-width="0.2" id="img-1745d1d4-85">
  <path fill="none" d="M10.5,9.46 L 10.13 7.35 9.81 5.81 9.35 4.21 8.99 3.33"/>
</g>
<g stroke="#FFA500" stroke-width="0.2" id="img-1745d1d4-86">
  <path fill="none" d="M52.49,5.57 L 52.78 6.25"/>
</g>
<g stroke="#FFA500" stroke-width="0.2" id="img-1745d1d4-87">
  <path fill="none" d="M3.64,4.81 L 3.35 4.39 1.44 2.43 1.19 1.69 1.17 1.65"/>
</g>
<g stroke="#FFA500" stroke-width="0.2" id="img-1745d1d4-88">
  <path fill="none" d="M8.99,3.33 L 8.92 3.17 8.82 2.08 8.3 0.61"/>
</g>
<g stroke="#FFA500" stroke-width="0.2" id="img-1745d1d4-89">
  <path fill="none" d="M1.17,1.65 L 0.42 1.04"/>
</g>
<g stroke="#FFA500" stroke-width="0.2" id="img-1745d1d4-90">
  <path fill="none" d="M1.17,1.65 L 1.93 1.47 2.47 0.87 3.14 0.89 4.89 1.45 5.39 1.01 5.36 0.87 5.56 1.05 7.2 0.71 7.63 0.73 8.3 0.61"/>
</g>
<g stroke="#FFA500" stroke-width="0.2" id="img-1745d1d4-91">
  <path fill="none" d="M8.09,0.34 L 8.3 0.61"/>
</g>
<g stroke="#FFA500" stroke-width="0.2" id="img-1745d1d4-92">
  <path fill="none" d="M92.13,77.63 L 93.44 79.54 93.76 79.58 94 79.81 94.12 79.66 94.51 80.01 95.65 82.04 96.98 82.55 97.17 82.93 98.2 83.6 98.49 84.19 98.92 84.34 99.12 84.77 99.55 84.44 99.95 84.46 100.3 84.72 100.67 85.51 102.62 86.39 102.83 87.51 102.49 88.16 102.7 88.21 103.04 88.86 103.34 88.39 103.96 88.57 104.15 88.28 104.72 88.49 105.15 89.02 106.38 88.97 106.76 88.78 107.11 88.86 107.37 89.2 108.08 89.42"/>
</g>
<g stroke="#FFA500" stroke-width="0.2" id="img-1745d1d4-93">
  <path fill="none" d="M87.45,77.75 L 87.26 77.89 87.32 78.25 86.8 78.87 86.95 79.17 86.72 79.82 86.75 80.6 86.52 81.01 86.87 82.96 87.16 83.49 87.09 84.37 86.81 85.05 86.55 85 85.69 85.54 85.57 86.05"/>
</g>
<g stroke="#FFA500" stroke-width="0.2" id="img-1745d1d4-94">
  <path fill="none" d="M75.68,71.35 L 75.42 71.74 75.46 72.5 75.26 72.97 74.6 73.12 74.35 73.45 74.34 75.08 73.95 76.43 73.41 76.94 74.24 78.34 74.08 78.42 74.12 78.55 73.21 78.89 73.38 79.61 73.27 79.99"/>
</g>
<g stroke="#FFA500" stroke-width="0.2" id="img-1745d1d4-95">
  <path fill="none" d="M88.23,75.28 L 88.13 75.36 88.33 76.16 88.26 76.69 87.96 77.36 87.45 77.75"/>
</g>
<g stroke="#FFA500" stroke-width="0.2" id="img-1745d1d4-96">
  <path fill="none" d="M92.13,77.63 L 90.02 76.79 89.09 75.74 88.23 75.28"/>
</g>
<g stroke="#FFA500" stroke-width="0.2" id="img-1745d1d4-97">
  <path fill="none" d="M93.51,75.09 L 93.36 75.29 92.78 75.47 92.19 76.04 92.13 77.63"/>
</g>
<g stroke="#FFA500" stroke-width="0.2" id="img-1745d1d4-98">
  <path fill="none" d="M130.23,73.73 L 130.26 74.56 130.44 75.08 130.22 75.57 130.49 76.24 130.16 77.29 130.25 77.54"/>
</g>
<g stroke="#FFA500" stroke-width="0.2" id="img-1745d1d4-99">
  <path fill="none" d="M93.51,75.09 L 94.96 75.34 96.88 76.47 97.42 76.12 98.53 76.48 99.6 76 100.84 76.56 101.02 76.81 101.49 76.86 102.69 76.47 103.3 76.01 103.64 75.42"/>
</g>
<g stroke="#FFA500" stroke-width="0.2" id="img-1745d1d4-100">
  <path fill="none" d="M65.76,75.49 L 66.09 74.26 66.73 73.86 66.98 73.54"/>
</g>
<g stroke="#FFA500" stroke-width="0.2" id="img-1745d1d4-101">
  <path fill="none" d="M88.23,75.28 L 88.68 74.36 88.35 73.79 88.5 73.37"/>
</g>
<g stroke="#FFA500" stroke-width="0.2" id="img-1745d1d4-102">
  <path fill="none" d="M93.51,75.09 L 91.37 73.69 90.95 73.92 89.83 73.99 89.12 73.38 88.5 73.37"/>
</g>
<g stroke="#FFA500" stroke-width="0.2" id="img-1745d1d4-103">
  <path fill="none" d="M66.98,73.54 L 67.3 73.15 67.11 72.93 67.19 72.72 67.47 72.76 67.6 72.27 67.33 72.07 67.34 71.33 67.17 71.07 66.75 70.89 67.56 69.74 67.49 68.85"/>
</g>
<g stroke="#FFA500" stroke-width="0.2" id="img-1745d1d4-104">
  <path fill="none" d="M88.92,71.31 L 89.61 71.5 89.54 71.97 89.91 72.21 89.98 72 90.48 71.79 91.31 71.02 92.18 69.95 93.06 69.41 93.86 69.66 94.2 69.14 94.49 69.01 94.71 68.35 95.37 67.95 96.66 67.67 96.99 67.38"/>
</g>
<g stroke="#FFA500" stroke-width="0.2" id="img-1745d1d4-105">
  <path fill="none" d="M93.71,56.78 L 90.41 53.09 90.13 52.85 89.45 52.68"/>
</g>
<g stroke="#3399CC" stroke-width="0.25" id="img-1745d1d4-106">
  <path fill="none" d="M37.04,21.94 L 36.95 22.8 37.37 23.65 37.38 24.04 37.52 24.03 37.53 24.4 36.73 26.05 36.15 26.22 35.99 26.08 35.76 26.28 36.2 27.08 36.13 27.34 35.8 27.55 35.56 27.25 35.68 27.95 35.54 29.04 34.6 29.57 34.51 29.41 33.69 29.28 33.33 29.02 32.87 29.29 32.2 28.93"/>
</g>
<g stroke="#3399CC" stroke-width="0.25" id="img-1745d1d4-107">
  <path fill="none" d="M123.41,80.28 L 123.61 80.11 123.59 79.5 124.5 78.89 124.71 78.51"/>
</g>
<g stroke="#3399CC" stroke-width="0.25" id="img-1745d1d4-108">
  <path fill="none" d="M121.64,77.32 L 121.99 78.18 122.65 78.62 122.64 79.04 122.94 79.57 123.1 80.12 123.41 80.28 123.32 80.73 123.44 80.93 124.06 81.2 124.06 81.19 124.25 81.28 124.28 81.49 124.44 81.32 124.88 81.31 125.06 81.49 125.13 81.91 125.03 82.16 125.5 82.22 125.5 82.22 125.88 82.1 125.7 81.92 125.88 81.87 125.91 81.64 126.14 81.71 126.22 82.05 126.41 81.76 126.58 81.98 126.85 81.96 126.71 82.29 127.09 82.28 126.96 82.59 127.18 82.86 126.94 82.99 126.42 82.9 126.82 83.39 126.46 83.4 126.44 83.49 126.5 83.83 126.84 83.91 127.03 84.23 126.79 84.67 127.21 85 127.58 84.99 128.04 85.73 128.36 85.86 128.64 86.42 129.02 86.59 129.03 86.41 129.17 86.43 129.11 86.57 129.34 86.79 129.92 86.92 130.36 87.32 130.63 87.75"/>
</g>
<g stroke="#3399CC" stroke-width="0.25" id="img-1745d1d4-109">
  <path fill="none" d="M123.09,85.92 L 123.71 86.51 124.08 86.49 124.51 86.76 124.9 86.8 124.96 86.59 125.19 86.56 125.88 87.05 126.1 87.43 126.11 88.1 126.32 88.37 126.88 88.57 126.97 88.88 127.27 89.08 127.26 89.41 127.44 89.48 127.52 89.82 127.96 90 128.22 90.32"/>
</g>
<g stroke="#3399CC" stroke-width="0.25" id="img-1745d1d4-110">
  <path fill="none" d="M88.48,61.6 L 88.64 61.43 88.56 61.27 88.77 60.72 89.47 60.69 89.45 60.56 89.63 60.62 89.68 60.47 90.35 60.5 90.38 60.03 90.65 60.13 90.69 59.78 91.3 59.71 91.49 59.85"/>
</g>
<g stroke="#3399CC" stroke-width="0.25" id="img-1745d1d4-111">
  <path fill="none" d="M79.78,61.02 L 80.07 60.56 80.5 60.26 80.81 60.42 80.94 60.76 81.89 61 82.49 61.42 83.2 61.64 84.27 62.55 85.18 62.61 85.87 62.32 86.27 62.48 87.01 63.34 87.37 64.14 88.02 64.25"/>
</g>
<g stroke="#3399CC" stroke-width="0.25" id="img-1745d1d4-112">
  <path fill="none" d="M61.52,47.95 L 61.77 47.93 61.9 48.3 62.58 48.54 62.81 48.86 63.15 48.84 63.25 49.36 63.5 49.64 63.34 50.12 63.56 50.48 63.1 50.97 62.43 53.21 62.14 53.39 61.11 53.47 60.85 53.78 59.8 54.27 59.83 55.18 60.23 55.33 60.36 55.76 60.24 56.09 60.42 56.6 60.21 57.04 59.84 57.08 59.64 57.41 59.66 57.99 60.23 59.29 60.1 59.88 59.94 60.01 59.56 59.83 59.42 60.05 59.25 59.87 57.82 60.07 57.55 60.56 57.24 60.7"/>
</g>
<g stroke="#3399CC" stroke-width="0.25" id="img-1745d1d4-113">
  <path fill="none" d="M55.67,45.9 L 56.26 45.51 56.78 45.58 57.01 46.08 57.49 46.03"/>
</g>
<g stroke="#3399CC" stroke-width="0.25" id="img-1745d1d4-114">
  <path fill="none" d="M55.67,45.9 L 55.96 45.16 55.95 44.77 55.46 43.83"/>
</g>
<g stroke="#3399CC" stroke-width="0.25" id="img-1745d1d4-115">
  <path fill="none" d="M47.9,47.62 L 47.99 47.37 48.64 46.95 49.46 46.58 50.26 46.51 50.2 46.33 50.51 46.13 50.94 46.14 51.04 45.75 51.42 45.58 51.39 45.43 52.51 45.17"/>
</g>
<g stroke="#3399CC" stroke-width="0.25" id="img-1745d1d4-116">
  <path fill="none" d="M52.51,45.17 L 52.96 45.58 53.26 45.45 53.96 45.79 54.27 46.15 55.67 45.9"/>
</g>
<g stroke="#3399CC" stroke-width="0.25" id="img-1745d1d4-117">
  <path fill="none" d="M52.51,45.17 L 52.91 45.04 53.54 44.4 54.07 44.38 54.88 43.49"/>
</g>
<g stroke="#3399CC" stroke-width="0.25" id="img-1745d1d4-118">
  <path fill="none" d="M84.61,49.33 L 85.53 48.97 85.42 48.4 85.62 48.15 86.01 48.27 86.3 48.04 86.69 48.24 86.96 48.07 87.37 48.19 87.8 47.97 88.05 48.07 88.08 48.36 88.52 48.54 89.67 48.63 90.58 48.88 91 49.18 91.33 49.04 91.49 49.33 91.85 49.16 92 49.44 92.01 49.16 92.23 49.2 92.3 48.92 92.6 48.71 93.11 49.07 93.39 49.87 93.18 50.06 93.44 50.52 93.59 50.2 94.18 50.49 94.49 50.12 95.29 50.16"/>
</g>
<g stroke="#3399CC" stroke-width="0.25" id="img-1745d1d4-119">
  <path fill="none" d="M105.93,77.62 L 106.31 78.07 106.3 78.51 106.58 78.87 106.69 79.51 106.88 79.4 107.14 79.82 108.02 80.19 108.03 80.54 108.5 81.04 108.43 81.67 108.6 81.81 108.6 82.06 107.97 82.7 107.71 83.3 107.15 83.65 106.33 83.87 105.65 84.79 105.69 84.98 105.47 85.01 105.22 85.32 105.08 85.85 104.44 85.82"/>
</g>
<g stroke="#3399CC" stroke-width="0.25" id="img-1745d1d4-120">
  <path fill="none" d="M32.72,8.73 L 32.87 9.03 32.81 9.53 32.35 9.98 31.68 11.1 31.85 11.76 31.6 14.45 32.3 16.75 32.42 18 31.57 18.49 30.92 19.73 30.91 20.33 30.62 20.98 29.86 20.75 29.38 20.82 27.85 21.95 27.08 22.07 26.36 22.58 26 22.54"/>
</g>
<g stroke="#3399CC" stroke-width="0.25" id="img-1745d1d4-121">
  <path fill="none" d="M102.31,79.51 L 102.65 79.18 103.1 79.63 103.25 79.8 103.47 79.77 103.52 80 103.8 79.89 103.84 79.9 103.93 79.82 104.09 79.9 104.14 79.6 104.27 79.77 104.35 79.41 104.48 79.6 104.54 79.44 104.76 79.51 104.72 79.36 105.2 79.06 105.24 78.81 105.49 79.1 105.45 78.82 105.7 78.76 105.62 77.9 105.76 77.61 105.93 77.62 106.08 77.4 106.05 77.11"/>
</g>
<g stroke="#3399CC" stroke-width="0.25" id="img-1745d1d4-122">
  <path fill="none" d="M99.49,77.39 L 99.81 77.23 100.03 77.7 100.36 77.91 100.39 78.28 100.68 78.74 101.07 78.98"/>
</g>
<g stroke="#3399CC" stroke-width="0.25" id="img-1745d1d4-123">
  <path fill="none" d="M101.07,78.98 L 101.28 79.16 101.1 79.19 101.29 79.72 101.77 80.07 102.17 79.91 102.25 80.26 102.36 79.84 102.13 79.57 102.49 79.73 102.31 79.51"/>
</g>
<g stroke="#3399CC" stroke-width="0.25" id="img-1745d1d4-124">
  <path fill="none" d="M101.07,78.98 L 101.35 78.97 100.87 78.65 101.46 78.56 101.61 78.76 101.3 78.8 101.98 79.1 102.31 79.51"/>
</g>
<g stroke="#3399CC" stroke-width="0.25" id="img-1745d1d4-125">
  <path fill="none" d="M57.63,61.46 L 58.05 61.42 58.29 61.19 58.43 61.28 58.5 61.05 58.68 61.16 58.77 60.79 59.53 60.76 59.77 61.18 60.66 60.9 60.76 60.66 61.17 60.5 61.71 61.23 62.22 62.51 62.52 62.53 63.16 63.6 63.48 63.73 63.65 64.09 64.39 63.95"/>
</g>
<g stroke="#3399CC" stroke-width="0.25" id="img-1745d1d4-126">
  <path fill="none" d="M64.39,63.95 L 64.97 63.5 64.99 63.12 65.51 62.21 65.88 61.11 65.81 60.1 66.25 59.62 66.35 59.07 66.05 58.56 66.12 57.61 66.38 57.22 66.38 56.49 66.9 55.94 67.34 54.98 67.46 54.51 67.26 54.31"/>
</g>
<g stroke="#3399CC" stroke-width="0.25" id="img-1745d1d4-127">
  <path fill="none" d="M72.31,21.89 L 72.66 21.87 72.9 22.11 73.37 23.37 74.05 23.58 74.24 23.88 75.01 24 75.38 24.4 76.61 24.99 77.17 25.89 77.77 26.15 78.04 27.2 78.35 27.2 78.94 27.87 79.33 28.04 79.83 28.72 81.01 29.08 81.01 29.53 81.26 29.81 81.48 29.64 82.06 29.91 82.83 30.84 83.89 31.26 84.07 31.59 84.67 31.65 84.76 31.84 84.55 32.26 84.72 32.56 85.22 32.78 85.24 33.14 86.33 33.14 87.17 33.8 88.05 33.38"/>
</g>
<g stroke="#3399CC" stroke-width="0.25" id="img-1745d1d4-128">
  <path fill="none" d="M64.39,63.95 L 64.53 64.24 65.35 64.57 65.36 64.99 65.9 65.38 66.5 65.41 67.11 65.04 67.16 64.76 67.59 64.74 68.34 66.42 69.05 67.04 68.92 67.9 69.22 68.15 70.66 68.25 70.86 68.46 70.81 68.65 69.57 68.51 68.87 68.82 67.92 68.81 67.61 68.96 68.85 69.45 69.44 69.27 70.21 69.41 70.65 69.75 71.26 69.41 71.23 69.24 70.84 69.26"/>
</g>
<g stroke="#3399CC" stroke-width="0.25" id="img-1745d1d4-129">
  <path fill="none" d="M70.81,68.65 L 71.09 68.93 70.84 69.26"/>
</g>
<g stroke="#3399CC" stroke-width="0.25" id="img-1745d1d4-130">
  <path fill="none" d="M88.05,33.38 L 88.64 34.91 88.62 35.1 88.96 35.41 88.93 35.79 89.76 35.93 89.91 36.12 90.34 36.04"/>
</g>
<g stroke="#3399CC" stroke-width="0.25" id="img-1745d1d4-131">
  <path fill="none" d="M90.34,36.04 L 90.35 36.04 91.05 36.77 91.43 36.67 91.98 36.99 92.15 36.89 92.49 37.24 92.68 37.23 92.77 37.49 92.95 37.37 93.05 37.44 92.95 37.56 93.4 37.8 93.98 37.74 94.02 37.91 94.2 37.77 95.05 37.77 96.13 37.97 96.3 38.31 96.49 38.35 96.42 38.47 97.19 38.95 97.43 38.95 97.45 38.56 97.83 38.44 97.81 38.29 98.48 38.35"/>
</g>
<g stroke="#3399CC" stroke-width="0.25" id="img-1745d1d4-132">
  <path fill="none" d="M52.24,5.46 L 52.24 5.46 53.01 5.76 53.85 7.24 54.91 7.73 56.04 9.02 56.86 9.5 57.1 10.01 57.82 10.56 57.91 10.85 58.29 11.06 58.42 10.97 58.56 11.17 58.78 11.08 59.54 11.8 59.85 11.82 59.9 12.06 60.38 12.47 60.56 13.49 60.79 13.58 60.76 13.73 61.31 14.37 61.44 14.88 61.34 15.4 61.45 16.25 61.92 16.82 62.13 17.56 62.62 18.01 62.91 18.29 63.76 18.66 63.96 19.14 64.55 19.55 65.83 19.89 65.92 19.81 65.85 20.1 66.06 20.1 66.16 20.33 67.11 20.57 67.37 21 67.86 21.22 68.06 21.12 68.33 21.48 68.4 21.36 68.95 21.52 69.77 20.32 70.37 20.11 70.16 19.88 70.29 19.4 70.59 19.07 70.68 18.4 71.31 17.19 71.5 17.25 71.8 16.99 71.92 17.16 72.16 16.95 72.75 17.05 72.83 16.61 73.05 16.41 74.33 16.96 74.78 16.76 75.02 16.94 75.54 16.79 75.61 16.98 75.84 16.94 76.43 17.11 76.71 17.07 76.9 16.81 76.93 17.08 77.26 16.93 77.37 17.09 77.6 17.04 77.53 17.18 77.75 17.66 77.77 17.68 78.07 17.71 78.06 18.11 78.33 17.84 78.29 18.42 79.25 18.72 79.54 19.29 80.59 20.03 80.73 20.46 81.22 20.95 81.33 21.84 81.61 22 82.06 23.31 82.53 23.71 82.45 23.97 82.81 24.21 82.66 24.34 82.79 24.81 83.07 25.23 83.05 25.45 83.42 25.67 83.46 25.89 84.04 26.16 84.55 27 84.81 27.09 85.14 28.15 85.43 28.25 85.93 28.91 86.75 29.18 86.86 29.78 87.04 29.86 86.77 30.82 87.16 31.09 87.3 31.48 87.21 32.43 87.52 32.61 87.53 32.88 88.05 33.37 88.05 33.38"/>
</g>
<g stroke="#3399CC" stroke-width="0.25" id="img-1745d1d4-133">
  <path fill="none" d="M38.05,38.83 L 38.38 38.99 38.88 38.35 39.46 38.46 39.87 38.33 40.31 38.51 40.68 37.97 41.29 37.6 41.4 37.14 41.18 36.55 41.66 36.22 42.19 35.27 42.46 35.1 42.56 34.56 42.32 33.56 42.98 33.63 43.27 33.39 43.39 33.03 43.7 33.2 44.08 33.11 44.19 33.26 44.75 33.15 45.06 32.89 45.41 33.19 45.65 33.18 46.08 33.62 47.48 34.14 47.86 34.07 48.68 34.58 49.72 34.38 50.13 34.5 50.82 35.11 50.71 35.49 51.65 38.05"/>
</g>
<g stroke="#3399CC" stroke-width="0.25" id="img-1745d1d4-134">
  <path fill="none" d="M83.19,42.27 L 83.81 42.82 83.91 43.32 84.37 43.49 84.85 43.36 85.21 42.67 85.5 42.72 86.2 42.2 86.67 41.59 86.84 40.9 87.25 40.87 87.33 40.72 87.69 40.82 87.86 40.64 88.04 39.83 88.38 39.64 88.31 39.3 88.59 39.19 88.53 37.7 88.79 37.79 89.25 37.54 89.44 37.75 89.52 37.48 89.77 37.4 89.66 37.11 89.87 37 90.34 36.04"/>
</g>
<g stroke="#3399CC" stroke-width="0.25" id="img-1745d1d4-135">
  <path fill="none" d="M38.94,18.34 L 39.25 18.42 40.04 19.33 40.27 19.27 40.68 20.37 41.05 20.48 41.38 21.59 41.61 21.53 41.56 20.93 42.22 20.36 42.15 19.61 42.64 19.21 43.15 19.23 43.32 19.44 43.31 20.12 43.7 21.16 43.94 21.35 44.56 22.62 45.23 22.68 45.36 21.65 45.71 21.35 46.12 21.93 46.54 22.97 47.47 23.43 47.85 25.37 47.4 26.27 46.89 26.34 46.8 26"/>
</g>
<g stroke="#3399CC" stroke-width="0.25" id="img-1745d1d4-136">
  <path fill="none" d="M41.38,21.59 L 41.53 21.93 41.47 22.42 41.75 23.05 42.25 23.48"/>
</g>
<g stroke="#3399CC" stroke-width="0.25" id="img-1745d1d4-137">
  <path fill="none" d="M59.36,48.8 L 58.92 47.67 59.09 47.36 58.89 47.05 59.04 46.65 58.22 44.88 58.29 44.56 58.05 44.24 57.63 42.39 59.08 40.6 59.36 40.73 59.81 40.39 60.14 40.38 60.42 40.86 60.37 41.07 61.33 41.86 61.71 41.89 62.16 42.81 63.17 42.88 64.56 42.11 66.11 42.1 66.11 41.12 67.27 40.63 67.99 39.87 68.4 39.79 68.7 39.46 69.52 39.86 70.31 39.79"/>
</g>
<g stroke="#3399CC" stroke-width="0.25" id="img-1745d1d4-138">
  <path fill="none" d="M37.27,12.71 L 36.96 13.97 36.17 14.78 36.23 15.69 36.43 15.95 36.42 16.44 36.73 16.87 37.05 18.38 36.82 18.87 36.88 19.22 36.35 19.39 36.59 20.8 37.04 21.94"/>
</g>
<g stroke="#3399CC" stroke-width="0.25" id="img-1745d1d4-139">
  <path fill="none" d="M90.71,63.57 L 88.44 64.42 88.02 64.25"/>
</g>
<g stroke="#3399CC" stroke-width="0.25" id="img-1745d1d4-140">
  <path fill="none" d="M88.02,64.25 L 87.89 64.49 87.6 64.53 87.75 64.79 87.55 65.42 87.35 65.72 87.09 65.81 86.89 66.47 87.21 67 88.24 67.48 88.44 67.9 88.47 68.98 87.72 69.46 87.93 70.46"/>
</g>
<g stroke="#3399CC" stroke-width="0.25" id="img-1745d1d4-141">
  <path fill="none" d="M95.49,58.29 L 95.14 58.58 94.42 58.61 94.33 58.94 94.14 58.95 94.22 59.15 94.07 59.18 94.25 59.3 93.86 59.31 93.83 59.55 93.68 59.37 93.54 59.44 93.65 59.17 93.49 59.26 93.4 59.13 93.01 59.48 92.74 59.37 92.59 59.61 92.41 59.5 92.29 59.95 91.49 59.85 91.56 60.03 91.83 59.98 91.65 60.08 91.74 60.19 91.61 60.34 91.82 60.59 91.97 60.51 92.17 60.88 91.8 61.21 91.61 61.17 91.61 61.37 91.37 61.34 91.22 61.8 90.37 62.5 90.39 62.83 90.86 63.39 90.71 63.57"/>
</g>
<g stroke="#3399CC" stroke-width="0.25" id="img-1745d1d4-142">
  <path fill="none" d="M70.84,69.26 L 71.58 69.09 72.46 68.52 73.6 68.49 74.11 68.25 74.67 68.18 74.68 68.58 74.74 68.36 74.89 68.38 75.04 69.19 75.2 69.29 75.53 69.18 76.26 69.29 76.59 68.62 77.31 68.54 77.42 68.48 77.69 68.07 77.66 67.77 77.98 67.42 78.2 67.46 78.41 67.23 78.79 67.42 80.53 67.77 80.78 67.55 80.7 67.38 80.88 67.06 80.39 65.92 80.65 65.5 80.57 64.76 80.48 64.34 79.61 63.37 78.85 63.1 78.18 63.36"/>
</g>
<g stroke="#3399CC" stroke-width="0.25" id="img-1745d1d4-143">
  <path fill="none" d="M128.22,90.32 L 128.8 90.56 129.38 90.36 129.53 90.15 129.4 90.01 129.68 89.94 129.59 89.45 130.12 89.33 130.13 88.87 130.32 88.64 130.33 88.92 130.54 88.7 130.45 88.52 130.6 88.46 130.51 88.09 130.63 87.75"/>
</g>
<g stroke="#3399CC" stroke-width="0.25" id="img-1745d1d4-144">
  <path fill="none" d="M122.94,79.57 L 122.5 79.56 121.65 79.23 121.14 78.74 120.72 78.62 120.41 79.85 120.59 79.91 120.55 80.1 120.27 80.35 119.7 80.5 119.51 80.95 119.18 80.91 118.95 81.13 118.37 81.03 117.77 80.78 117.55 80.95 117.14 82.77 116.52 83.25 116.86 83.96 117.06 84.04 116.95 84.24 116.61 84.02 116.39 84.09 116.43 84.67 116.13 84.96 116.24 85.08 116.58 84.97 116.63 85.23 117.13 85.43 117.16 85.7 117.68 85.88 118.05 85.73 118.54 86.08 118.51 86.57 118.74 86.73 118.71 86.95 118.97 87.36 119.57 88.1 120.24 88.4 120.28 88.98 119.94 89.53 121.06 90.12 121.55 89.77 121.36 90.3 123.5 91.51 123.69 91.81 123.32 91.59 122.85 92.17 123.26 92.65 123.22 93.13 123.44 93.43 123.49 93.93"/>
</g>
<g stroke="#3399CC" stroke-width="0.25" id="img-1745d1d4-145">
  <path fill="none" d="M78.79,67.42 L 78.84 67.72 79.16 67.82 79.52 68.26 79.53 68.78 79.98 68.89 80.16 69.56 80.77 69.99 81.21 70.16 81.95 69.92 82.5 70.54 82.95 70.76 83.69 69.83 84.18 70.19 84.63 71.01 84.91 71.07 84.84 71.19 85.19 71.69 85.2 72.15 85.61 72.42 85.76 72.91 86.78 73.6 86.97 74.85"/>
</g>
<g stroke="#3399CC" stroke-width="0.25" id="img-1745d1d4-146">
  <path fill="none" d="M57.89,25.08 L 58.49 25.7 58.31 26.16 58.51 26.77 58.98 27.44 59.06 28.68 58.74 29.03 57.69 29.57 57.12 29.48 56.95 29.65 56.33 29.64 56.2 29.44 55.63 30.34 55.51 30.29 55.12 30.78 54.73 30.65 54.39 30.26 54.21 30.32 53.87 30.11 53.54 30.33 53.47 31.25 53.26 31.42 53.22 32.41 53.51 33.89 53.81 34.23 53.7 35.31 53.94 36.09 53.27 36.42 52.79 35.92 52.78 35.72"/>
</g>
<g stroke="#3399CC" stroke-width="0.25" id="img-1745d1d4-147">
  <path fill="none" d="M50.44,27.89 L 51.83 28.05 52.51 27.87 52.8 27.63 53.66 28.01 53.93 27.7 54.49 27.48 55.28 27.54 56.06 27.08 56.05 26.77 56.5 26.19 57.16 26.01 57.89 25.08 57.71 24.39 57.92 23.64 57.55 23.45 57.57 22.85 57.43 22.58 57.56 22.36 58.3 22.1 58.22 21.85 58.37 21.85 58.52 21.35 59.1 21.13 59.57 20.48 59.57 20.01 59.85 19.96 60.03 19.62 60.31 19.49 60.23 19.27 60.45 19.02 60.51 18.6 60.32 18.28 61.24 18.56 61.84 18.18 62.4 18.41 62.62 18.01"/>
</g>
<g stroke="#3399CC" stroke-width="0.25" id="img-1745d1d4-148">
  <path fill="none" d="M11.85,-0 L 11.85 0 11.42 0.61 11.37 1.27 10.79 1.45 10.65 2.06 10.27 2.73 10.48 3.42 10.39 4.52"/>
</g>
<g stroke="#3399CC" stroke-width="0.25" id="img-1745d1d4-149">
  <path fill="none" d="M37.04,21.94 L 37.21 21.79 36.86 20.83 37.24 20.68 38.07 20.83 38.93 20.08 38.97 19 38.82 18.91 38.94 18.34 38.6 16.6 38.81 15.81 38.64 15.68 38.81 15.58 38.81 15.3 38.53 15.06 38.57 14.52 38.24 13.82 38.42 12.79 38.24 12.03 38.53 11.81 38.41 11.65 38.66 11.52 38.84 11.1 39.24 11 39.53 11.07 40.3 12.22 40.26 12.63 40.5 13.23 40.28 14.06 40.62 14.16 40.58 14.46 41.01 14.67 41.29 15.63 41.66 15.9 41.93 16.58 42.22 16.84 42.3 17.58 42.94 18.19 42.97 18.55"/>
</g>
<g stroke="#3399CC" stroke-width="0.25" id="img-1745d1d4-150">
  <path fill="none" d="M92.02,79.75 L 92.4 79.7 92.74 79.89 92.95 80.55 93.6 80.88 93.86 82.43 94.37 82.74 94.66 83.52 94.96 83.64 95.49 84.59 95.51 85.64"/>
</g>
<g stroke="#3399CC" stroke-width="0.25" id="img-1745d1d4-151">
  <path fill="none" d="M92.02,79.75 L 92.41 79.06 93.05 78.65 93.14 78.1 93.45 77.68 94.42 77.2 94.86 76.78 94.79 76.51 94.41 76.42 93.82 75.86 93.63 75.94 93.05 75.72 93.29 75.32 93.32 74.88 92.99 74.05 93.74 73.73 94.27 73.29"/>
</g>
<g stroke="#3399CC" stroke-width="0.25" id="img-1745d1d4-152">
  <path fill="none" d="M75.14,79.38 L 74.71 79.69 73.93 79.83 73.76 81.14"/>
</g>
<g stroke="#3399CC" stroke-width="0.25" id="img-1745d1d4-153">
  <path fill="none" d="M78.13,77.96 L 79.15 78.13 79.53 78.05 79.85 78.44 80.03 78.4 80 78.26 80.61 78.28 80.9 78.63 81.1 78.58 81.09 79.15 81.42 79 81.85 79.69 82.09 79.71 82.07 79.97 82.89 79.85 82.86 80.17 83.19 80.09 83.97 80.47 84.32 80.9 84.71 80.98 85.69 80.76 86.81 81.14 87.51 80.98 88.19 81.23 89.29 81.3 89.79 80.88 89.8 80.61 90.3 80.56 90.66 80.11 91.25 80.35 91.26 80.18 91.53 80.16 92.02 79.75"/>
</g>
<g stroke="#3399CC" stroke-width="0.25" id="img-1745d1d4-154">
  <path fill="none" d="M78.13,77.96 L 77.87 78.34 77.43 78.32 77.48 78.52 76.68 78.06 76.45 77.66 76 77.97 75.79 77.74 75.4 77.89 75.29 78.18 75.38 79.2 75.7 79.23 75.46 79.5 75.14 79.38"/>
</g>
<g stroke="#3399CC" stroke-width="0.25" id="img-1745d1d4-155">
  <path fill="none" d="M74,76.3 L 74.57 76.66 74.65 76.93 75.01 77.02 74.96 77.2 75.26 77.23 75.09 77.36 75.25 77.51 75.05 78.06 75.2 78.17 75.2 78.45 74.67 78.27 75.16 78.62 75.29 79.09 75.14 79.38"/>
</g>
<g stroke="#3399CC" stroke-width="0.25" id="img-1745d1d4-156">
  <path fill="none" d="M70.8,73.97 L 70.84 74.62 71.5 75.26 72.24 75.46 73.08 76.06 74 76.3 74.29 76.32 74.25 76.1 74.39 75.99 74.53 76.48 74.64 76.05 74.78 76.12 74.89 75.99 74.64 76.59 74.81 76.78 74.97 76.61 74.98 76.8 75.29 76.82 75.18 76.94 75.28 77.14 75.59 76.88 75.37 77.47 76.1 77.25 76.21 77.52 76.37 77.53 76.51 77.22 76.61 77.65 76.81 77.62 76.82 77.96 77.05 78.15 78.13 77.96"/>
</g>
<g stroke="#3399CC" stroke-width="0.25" id="img-1745d1d4-157">
  <path fill="none" d="M70.13,70.66 L 70.66 70.83 70.25 71.18 70.55 71.49 70.8 73.06 70.97 73.31 70.79 73.56 70.8 73.97 70.64 73.67 69.38 73.19 69.39 72.62"/>
</g>
<g stroke="#3399CC" stroke-width="0.25" id="img-1745d1d4-158">
  <path fill="none" d="M90.71,63.57 L 90.54 64.07 89.67 64.63 89.64 64.96 89.44 64.93 89.18 65.32 89.35 65.83 89.65 66 90.01 67.23 90.27 67.55 90.39 68.53 90.79 68.58 90.95 68.8"/>
</g>
<g fill="#0000FF" stroke="#0000FF" stroke-width="0" id="img-1745d1d4-159">
  <path d="M102.31,79.51 L 102.49 79.73 102.13 79.57 102.36 79.84 102.25 80.26 102.17 79.91 101.77 80.07 101.29 79.72 101.1 79.19 101.28 79.16 101.07 78.98 101.35 78.97 100.87 78.65 101.46 78.56 101.61 78.76 101.3 78.8 101.98 79.1 102.31 79.51 z"/>
</g>
<g fill="#0000FF" stroke="#0000FF" stroke-width="0" id="img-1745d1d4-160">
  <path d="M70.81,68.65 L 71.09 68.93 70.84 69.26 71.23 69.24 71.26 69.41 70.65 69.75 70.21 69.41 69.44 69.27 68.85 69.45 67.61 68.96 67.92 68.81 68.87 68.82 69.57 68.51 70.81 68.65 z"/>
</g>
<g fill="#0000FF" stroke="#0000FF" stroke-width="0" id="img-1745d1d4-161">
  <path d="M75.14,79.38 L 75.29 79.09 75.16 78.62 74.67 78.27 75.2 78.45 75.2 78.17 75.05 78.06 75.25 77.51 75.09 77.36 75.26 77.23 74.96 77.2 75.01 77.02 74.65 76.93 74.57 76.66 74 76.3 74.29 76.32 74.25 76.1 74.39 75.99 74.53 76.48 74.64 76.05 74.78 76.12 74.89 75.99 74.64 76.59 74.81 76.78 74.97 76.61 74.98 76.8 75.29 76.82 75.18 76.94 75.28 77.14 75.59 76.88 75.37 77.47 76.1 77.25 76.21 77.52 76.37 77.53 76.51 77.22 76.61 77.65 76.81 77.62 76.82 77.96 77.05 78.15 78.13 77.96 77.87 78.34 77.43 78.32 77.48 78.52 76.68 78.06 76.45 77.66 76 77.97 75.79 77.74 75.4 77.89 75.29 78.18 75.38 79.2 75.7 79.23 75.46 79.5 75.14 79.38 z"/>
</g>
<g fill="#FFFF00" stroke="#FF0000" stroke-width="0.25" id="img-1745d1d4-162">
  <use xlink:href="#img-1745d1d4-163" x="82.96" y="39.87"/>
  <use xlink:href="#img-1745d1d4-163" x="52.85" y="53.28"/>
  <use xlink:href="#img-1745d1d4-163" x="68.01" y="66.75"/>
  <use xlink:href="#img-1745d1d4-163" x="95.17" y="58.42"/>
  <use xlink:href="#img-1745d1d4-163" x="88.83" y="73.3"/>
  <use xlink:href="#img-1745d1d4-163" x="93.44" y="75.28"/>
  <use xlink:href="#img-1745d1d4-163" x="103.84" y="75.5"/>
  <use xlink:href="#img-1745d1d4-163" x="99.57" y="86.39"/>
  <use xlink:href="#img-1745d1d4-163" x="136.09" y="65.97"/>
  <use xlink:href="#img-1745d1d4-163" x="9.02" y="0.59"/>
  <use xlink:href="#img-1745d1d4-163" x="73.73" y="60.5"/>
  <use xlink:href="#img-1745d1d4-163" x="131.19" y="71.33"/>
  <use xlink:href="#img-1745d1d4-163" x="33.9" y="47.97"/>
  <use xlink:href="#img-1745d1d4-163" x="119.1" y="87.82"/>
  <use xlink:href="#img-1745d1d4-163" x="55.03" y="23.88"/>
  <use xlink:href="#img-1745d1d4-163" x="79.6" y="41.16"/>
  <use xlink:href="#img-1745d1d4-163" x="66.33" y="74.43"/>
  <use xlink:href="#img-1745d1d4-163" x="62.8" y="48.89"/>
  <use xlink:href="#img-1745d1d4-163" x="78.84" y="64.97"/>
  <use xlink:href="#img-1745d1d4-163" x="87.56" y="84.07"/>
  <use xlink:href="#img-1745d1d4-163" x="90.94" y="69.79"/>
  <use xlink:href="#img-1745d1d4-163" x="79.22" y="72.06"/>
  <use xlink:href="#img-1745d1d4-163" x="86.83" y="73.86"/>
  <use xlink:href="#img-1745d1d4-163" x="88.56" y="75.79"/>
  <use xlink:href="#img-1745d1d4-163" x="60.91" y="62.22"/>
  <use xlink:href="#img-1745d1d4-163" x="83.33" y="67.66"/>
  <use xlink:href="#img-1745d1d4-163" x="142.45" y="77.87"/>
  <use xlink:href="#img-1745d1d4-163" x="79.74" y="58.99"/>
  <use xlink:href="#img-1745d1d4-163" x="47.72" y="45.13"/>
  <use xlink:href="#img-1745d1d4-163" x="31.04" y="21.29"/>
  <use xlink:href="#img-1745d1d4-163" x="119.75" y="80.91"/>
  <use xlink:href="#img-1745d1d4-163" x="93.42" y="74.08"/>
  <use xlink:href="#img-1745d1d4-163" x="99.7" y="73.09"/>
  <use xlink:href="#img-1745d1d4-163" x="71.08" y="55.67"/>
  <use xlink:href="#img-1745d1d4-163" x="88.73" y="50.42"/>
  <use xlink:href="#img-1745d1d4-163" x="84.86" y="86.05"/>
</g>
<g fill="#000000" fill-opacity="0.000" stroke="#000000" stroke-width="0.05" id="img-1745d1d4-164">
  <path d="M116.16,83.97 L 115.98 84.33 114.76 85.14 112.52 85.02 109.36 84.76 109.2 84.18 108.86 84.12 107.96 82.84 108.19 82.56 108.16 82.12 107.4 82.6 107.03 82.64 106.44 83.16 105.62 83.32 105.3 83.2 104.68 81.88 105.26 81.04 105.23 80.47 104.95 80.12 103.8 79.89 103.52 80 103.47 79.77 103.25 79.8 103.1 79.63 103.01 79.22 102.5 78.72 102.26 77.93 100.94 77.2 101.13 78.02 100.56 78.5 100.28 77.86 99.14 78.26 98.62 77.39 97.98 77.45 97.62 76.74 98.11 76.12 98.09 75.4 98.02 74.7 98.49 74.52 98.94 74.58 99.32 74.14 99.05 73.92 98.41 73.93 98.11 73.58 97.68 73.43 97.59 72.72 97.16 72.47 97.58 72.29 97.8 71.95 97.92 71.61 97.8 70.84 98.65 69.68 98.61 69.52 97.45 68.91 97.29 68.92 97.01 69.04 96.79 69.66 96.54 69.74 96.29 69.41 95.91 69.37 95.61 68.95 95.58 67.98 95.91 67.82 96.22 68.1 96.51 67.72 96.47 67.2 95.67 66.87 95.71 66.12 95.02 66.06 94.97 66.58 94.65 66.79 94.58 67.56 93.91 68.02 94.18 67.63 94.25 67.1 94.24 66.91 93.92 66.81 92.74 68.01 92.41 67.98 92.16 68.41 91.95 68.32 91.6 67.66 92.3 66.51 91.93 66.54 91.87 66.31 92.31 66.13 92.58 65.77 93.25 65.92 93.31 65.23 93.52 64.88 93.64 64.92 93.75 64.63 93.34 64.19 92.97 64.34 93.05 64.05 93.09 63.9 92.92 63.79 92.73 64.22 92.37 64.21 91.99 63.75 92.04 63.16 91.85 62.91 91.8 62.23 91.22 61.8 91.37 61.34 91.61 61.37 91.61 61.17 91.8 61.21 92.17 60.88 91.97 60.51 91.82 60.59 91.61 60.34 91.74 60.19 91.65 60.08 91.83 59.98 91.56 60.03 91.49 59.85 91.93 59.86 92.02 59.73 92.08 59.63 92.69 58.5 91.35 57.49 91.97 57.37 92.84 57.6 92.95 57.22 93.44 57.21 93.89 57.68 94.82 57.98 94.76 58.27 95 58.54 95.49 58.29 95.48 58.88 95.88 59.84 96.58 60.92 97.76 62.04 97.71 62.55 97.27 63.59 96.98 62.73 97.42 62.53 97.5 62.18 96.27 60.84 96.1 60.26 95.47 59.25 95.8 60.07 96.02 61.47 96.53 62.44 96.93 62.46 96.94 63.06 98.34 66.02 98.48 66.74 100.93 69.47 102.06 71.02 102.9 73.89 103.44 74.34 103.69 74.36 103.85 75 104.07 75.22 104.41 75.23 104.75 76.2 105.35 76.51 105.48 76.56 105.46 76.77 104.51 76.24 105.21 76.86 104.88 76.82 105.03 77.02 105.38 76.87 106.38 77.24 105.58 76.83 105.59 76.6 106.37 77.01 108.15 77.04 108.95 77.55 109.11 77.84 110.18 78.02 111.28 79.75 111.77 79.98 113.31 79.71 113.46 79.65 113.67 79.93 113.68 80.38 113.88 80.78 113.77 81.36 114.3 81.61 114.51 82.06 114.81 82.04 114.84 82.18 115.41 82.38 115.67 83.01 115.85 83.21 115.78 83.57 116.16 83.97 z"/>
</g>
<g fill="#000000" fill-opacity="0.000" stroke="#000000" stroke-width="0.05" id="img-1745d1d4-165">
  <path d="M98.48,38.35 L 98.5 39.71 97.9 41.21 96.96 42.89 96.45 44.74 95.93 47.25 95.74 50.13 95.29 50.16 95.6 50.26 95.61 50.9 95.76 50.34 95.55 52.76 95.67 54.88 95.6 55.18 95.58 54.78 95.35 55.59 95.02 55.8 95.14 55.94 94.93 56.48 95.06 56.62 95.24 56.19 95.15 56.96 95.49 58.29 95.49 58.29 95 58.54 94.76 58.27 94.82 57.98 93.89 57.68 93.44 57.21 92.95 57.22 92.84 57.6 91.97 57.37 91.35 57.49 91.01 57.49 90.05 57.91 88.32 57.34 87.59 56.09 87.36 56.34 86.81 55.84 86.84 56.44 84.44 55.43 84.28 55.24 84.83 54.75 84.97 54.37 84.39 53.69 84.08 53.73 84.24 53.08 84.31 52.68 84.17 52.47 84.4 52.17 85.07 52.38 84.74 51.52 85.32 50.36 86.51 50.27 86.99 49.56 87.23 49.57 87.03 49.03 86.46 48.58 86.44 47.82 86.71 47 86.36 46.3 86.13 46.43 85.85 46.13 86.53 45.45 86.65 45.51 87.41 44.89 88.18 44.64 88.65 44.79 88.49 44.24 88.75 43.5 88.71 43.29 88.93 43.32 89.25 42.9 89.49 43.17 89.83 43.15 89.93 43.17 92.2 41.26 92.17 40.88 91.58 40.73 91.65 38.17 91.51 37.88 90.37 37.78 89.97 38.13 89.47 37.61 89.4 37.58 88.9 37.67 88.58 36.51 88.23 36.5 87.9 36.12 87.55 36.15 87.25 35.6 87.57 35.29 87.41 34.64 86.98 34.39 86.34 34.45 86.66 33.4 86.33 33.14 85.84 33.06 86.01 31.7 85.76 30.29 85.51 30.05 85.04 30.1 84.94 29.68 85.91 28.88 85.93 28.91 86.75 29.18 86.86 29.78 87.04 29.86 86.77 30.82 87.16 31.09 87.3 31.48 87.21 32.43 87.52 32.61 87.53 32.88 88.05 33.37 88.64 34.91 88.62 35.1 88.96 35.41 88.93 35.79 89.76 35.93 89.91 36.12 90.35 36.04 91.05 36.77 91.43 36.67 91.98 36.99 92.15 36.89 92.49 37.24 92.68 37.23 92.77 37.49 92.95 37.37 93.05 37.44 92.95 37.56 93.4 37.8 93.98 37.74 94.02 37.91 94.2 37.77 95.05 37.77 96.13 37.97 96.3 38.31 96.49 38.35 96.42 38.47 97.19 38.95 97.43 38.95 97.45 38.56 97.83 38.44 97.81 38.29 98.48 38.35 z"/>
</g>
<g fill="#000000" fill-opacity="0.000" stroke="#000000" stroke-width="0.05" id="img-1745d1d4-166">
  <path d="M85.91,28.88 L 84.94 29.68 85.04 30.1 85.51 30.05 85.76 30.29 86.01 31.7 85.84 33.06 86.33 33.14 86.66 33.4 86.34 34.45 86.98 34.39 87.41 34.64 87.57 35.29 87.25 35.6 87.55 36.15 87.9 36.12 88.23 36.5 88.58 36.51 88.9 37.67 89.4 37.58 89.47 37.61 89.97 38.13 90.37 37.78 91.51 37.88 91.65 38.17 91.58 40.73 92.17 40.88 92.2 41.26 89.93 43.17 89.83 43.15 89.49 43.17 89.25 42.9 88.93 43.32 88.71 43.29 88.75 43.5 88.49 44.24 88.65 44.79 88.18 44.64 87.41 44.89 86.65 45.51 86.53 45.45 85.85 46.13 86.13 46.43 86.36 46.3 86.71 47 86.44 47.82 86.46 48.58 87.03 49.03 87.23 49.57 86.99 49.56 86.51 50.27 85.32 50.36 84.74 51.52 85.07 52.38 84.4 52.17 84.17 52.47 84.31 52.68 84.24 53.08 83.02 53.05 82.68 53.33 82.38 53.22 82.27 52.88 82.41 52.16 82.21 51.09 82.46 50.36 81.55 49.21 81.75 48.25 81.61 47.42 80.45 45.96 80.63 44.15 81.07 43.94 80.45 43.36 80.7 42.72 81.02 42.49 81.84 42.33 82.36 42.41 82.67 42.71 83.39 42.41 83.58 42.53 83.24 42.18 83.58 42.07 83.03 41.8 82.34 41.79 81.65 41.15 81.11 40.9 81.19 40.64 81.67 40.85 81.7 40.69 81.39 40.55 81.35 40.25 81.02 40.23 80.47 39.51 80.41 38.55 79.99 38.17 80.01 37.79 79.83 37.49 79.41 37.28 78.51 36.06 80.6 34.2 81.09 34.64 81.48 33.96 81.73 33.85 81.89 33.32 81.81 32.42 81.27 32.19 81.07 32.53 80.77 32.33 80.59 32.44 80.46 31.28 81.63 30.39 82.41 30.36 82.98 28.64 83.62 28.17 84.65 29.06 85.47 28.3 85.91 28.88 z"/>
</g>
<g fill="#000000" fill-opacity="0.000" stroke="#000000" stroke-width="0.05" id="img-1745d1d4-167">
  <path d="M84.24,53.08 L 84.08 53.73 84.39 53.69 84.97 54.37 84.83 54.75 84.28 55.24 84.44 55.43 86.84 56.44 86.81 55.84 87.36 56.34 87.59 56.09 88.32 57.34 90.05 57.91 91.01 57.49 91.35 57.49 92.69 58.5 92.08 59.63 92.02 59.73 91.93 59.86 91.49 59.85 91.56 60.03 91.83 59.98 91.65 60.08 91.74 60.19 91.61 60.34 91.82 60.59 91.97 60.51 92.17 60.88 91.8 61.21 91.61 61.17 91.61 61.37 91.37 61.34 91.22 61.8 91.8 62.23 91.85 62.91 91.4 63.26 91.33 63.89 90.39 64.05 89.92 63.88 89.74 63.47 89.24 63.61 89.02 63.51 88.47 61.61 88.2 61.71 87.99 62.04 87.65 62.08 87.42 62.58 86.6 62.78 86.05 62.09 85.79 62.26 85.55 62.81 83.57 61.92 83.05 61.59 82.39 61.58 81.81 62.3 81.52 62.34 80.81 62.01 79.74 61.08 78.58 60.96 77.99 60.46 77.48 60.6 76.99 60.48 77.96 59.3 77.8 57.61 78.11 57.3 78.05 56.87 77.73 56.55 77.21 56.42 76.77 56.53 76.09 57.26 75.29 57.09 74.97 56.41 74.25 55.69 73.94 55.39 73.44 54.37 73.69 53.77 73.26 53.21 73.69 52.59 73.7 52.29 74.36 52.37 75.29 51.43 75.96 51.1 76.2 50.65 77.6 49.55 78.73 48.38 79.67 46.84 80.45 45.96 81.61 47.42 81.75 48.25 81.55 49.21 82.46 50.36 82.21 51.09 82.41 52.16 82.27 52.88 82.38 53.22 82.68 53.33 83.02 53.05 84.24 53.08 z"/>
</g>
<g fill="#000000" fill-opacity="0.000" stroke="#000000" stroke-width="0.05" id="img-1745d1d4-168">
  <path d="M76.99,60.48 L 75.63 59.64 75.41 59.66 74.96 59.11 74.37 58.99 74.53 58.38 73.89 58.2 73.88 57.99 73.57 57.74 73.3 57.82 73.23 57.29 73.04 57.27 72.42 57.92 71.51 58.24 71.16 59.28 70.48 60.09 70.44 60.66 70.99 61.19 70.85 61.75 71.49 62.13 71.26 63 70.53 63.33 70.17 63.29 69.9 63.52 69.54 63.4 69.29 64.03 69.44 64.74 67.03 63.98 66.74 64.03 66.52 63.75 66.07 63.95 65.93 63.84 65.99 63.69 66.24 62.98 66.09 62.29 66.5 62.58 67.17 61.88 67.2 61.15 67.01 60.86 67.51 60.53 67.77 60.08 68.26 59.81 68.87 59.85 69.26 59.24 69.08 58.93 69.44 58.2 68.72 58.08 68.83 57.76 67.87 57.02 67.69 57.4 67.88 57.97 67.13 59.1 66.56 59.29 66.34 59.12 66.25 58.94 66.68 56.92 66.46 56.66 66.05 56.65 65.42 58.74 65.35 57.26 65.6 57.11 65.41 56.64 65.91 56.32 65.75 55.86 64.74 55.64 64.8 56.21 64.63 56.62 65.16 57 65.02 57.76 64.06 57.9 63.15 58.31 63.24 58.02 63.5 57.47 63.78 54.04 63.94 53.61 64.3 53.33 64.39 51.97 65.09 51.3 65.17 51.03 65.72 50.75 65.47 50.41 65.39 49.74 65.51 48.6 66.75 48.01 66.69 47.5 68.39 46.42 70.86 46.65 71.02 46.51 72.11 46.55 72.16 44.5 71.36 43.16 71.36 42.93 73.38 42.72 75.45 43.42 75.9 44.08 76.69 44.34 76.57 44.72 76.72 44.91 77.39 44.87 77.81 44.54 78 44.77 78.39 44.6 79.6 45.8 80.22 45.74 80.45 45.96 79.67 46.84 78.73 48.38 77.6 49.55 76.2 50.65 75.96 51.1 75.29 51.43 74.36 52.37 73.7 52.29 73.69 52.59 73.26 53.21 73.69 53.77 73.44 54.37 73.94 55.39 74.25 55.69 74.97 56.41 75.29 57.09 76.09 57.26 76.77 56.53 77.21 56.42 77.73 56.55 78.05 56.87 78.11 57.3 77.8 57.61 77.96 59.3 76.99 60.48 z"/>
</g>
<g fill="#000000" fill-opacity="0.000" stroke="#000000" stroke-width="0.05" id="img-1745d1d4-169">
  <path d="M63.24,58.02 L 63.07 57.31 62.35 57.53 61.75 57.2 61.51 56.39 61.04 56.11 59.85 56.8 59.85 56.1 60.43 55.54 60.26 54.78 58.99 54.16 58.3 54.19 57.85 54.02 57.78 53.59 57.23 53.6 56.71 53.02 56.46 52.84 56.3 51.85 56.07 51.39 55.47 50.29 55.36 48.7 55.1 48.46 54.89 47.85 53.67 46.88 52.95 47.45 52.34 47.36 51.75 45.89 50.85 44.86 50.53 44.82 50.22 44.43 49.44 42.76 49.35 41.96 49.55 40.26 51.25 40.17 52.27 39.26 52.33 37.98 52.91 37.66 53.09 37.29 52.68 36.03 53.2 36.07 53.72 35.82 54.05 34.84 54.15 33.96 54.28 33.86 54.45 34.05 54.77 33.48 56.12 34.49 56.7 34.45 56.95 34.86 58.23 35.58 59.16 35.12 59.24 35.23 59.79 35.57 60.61 35.39 60.84 35.72 61.19 35.62 61.78 36.15 62.06 36.17 63.85 33.93 65.54 34.08 66.6 34.46 68.12 35.99 68.34 36.54 68.05 37.69 68.1 39.51 67.32 40.61 67.32 41.03 67.67 41.47 67.59 41.75 67.22 42.07 67.74 42.75 68.43 43.25 68.53 44.09 68.92 44.39 69.95 44.67 70.64 45.22 70.55 44.32 71.36 43.16 72.16 44.5 72.11 46.55 71.02 46.51 70.86 46.65 68.39 46.42 66.69 47.5 66.75 48.01 65.51 48.6 65.39 49.74 65.47 50.41 65.72 50.75 65.17 51.03 65.09 51.3 64.39 51.97 64.3 53.33 63.94 53.61 63.78 54.04 63.5 57.47 63.24 58.02 z"/>
</g>
<g fill="#000000" fill-opacity="0.000" stroke="#000000" stroke-width="0.05" id="img-1745d1d4-170">
  <path d="M57.85,54.02 L 57.55 54.16 57.43 54.53 57.65 54.89 57.17 55.25 57 55.7 57.47 56.08 57.6 56.79 56.66 57.13 56.41 57.2 56.31 57.22 56.28 56.92 56.11 56.88 55.81 56.2 54.9 55.36 54.98 55.18 54.76 55.3 53.83 54.12 53.03 53.39 52.81 53.41 52.32 52.22 50.94 50.9 50.37 49.7 48.12 47.89 48.01 47.65 46.04 46.32 46.12 46.2 47.51 47.15 47.24 46.94 47.52 47.06 47.62 46.87 47.38 46.18 47.08 46.17 47.03 46.29 47.24 46.3 46.83 46.55 46.66 46.31 46.31 46.3 45.98 45.81 45.35 45.55 45.96 46.15 45.07 45.5 44.73 44.78 45.07 44.93 45.16 44.83 44.98 44.47 45.08 43.78 44.78 43.58 44.83 44.49 44.53 44.55 43.9 43.42 43.42 43.03 43.66 43.01 44.15 43.67 44.4 43.72 44.38 43.47 44.22 43.42 44.33 43.26 44.53 43.49 45.03 43.55 44.74 43.1 44.41 42.89 44.2 42.98 43.95 42.64 43.29 42.66 43.27 42.46 43.48 42.55 43.47 42.25 43.24 42.14 43.06 42.79 43.09 42.45 42.87 42.14 41.44 41.63 42.11 41.69 41.81 41.42 41.23 41.5 41.44 41.38 41.34 41.16 41.2 41.21 41.24 40.61 40.59 40.51 40.7 40.8 40.49 41.08 40.36 40.85 40.03 40.87 39.95 41.06 39.56 40.7 39.81 40.42 40.11 40.46 40.2 40.64 40.24 40.35 40.69 39.91 40.94 39.21 40.58 39.77 39.76 40.36 39.42 40.41 39.24 40.03 38.82 39.86 39.32 40.54 38.86 40.13 38.09 40.07 38.61 39.97 38.67 39.7 38.25 39.4 38.12 39.86 38.08 39.42 37.91 39.25 38.04 38.87 37.97 38.02 38.83 36.41 38.69 37.26 39.03 36.24 39.28 36.31 39.34 36.58 39.23 36.65 39.6 36.95 39.69 36.55 39.45 36.41 39.39 36.24 42.63 33.52 42.68 33.33 42.7 32.8 43.03 32.41 43.52 32.24 43.8 32.36 43.94 32.74 44.85 32.88 45.01 33.58 45.79 34.58 46.09 37 48.16 37.47 48.49 38.41 49.22 39.33 49.55 40.26 49.35 41.96 49.44 42.76 50.22 44.43 50.53 44.82 50.85 44.86 51.75 45.89 52.34 47.36 52.95 47.45 53.67 46.88 54.89 47.85 55.1 48.46 55.36 48.7 55.47 50.29 56.07 51.39 56.3 51.85 56.46 52.84 56.71 53.02 57.23 53.6 57.78 53.59 57.85 54.02 z"/>
</g>
<g fill="#000000" fill-opacity="0.000" stroke="#000000" stroke-width="0.05" id="img-1745d1d4-171">
  <path d="M68.28,21.42 L 68.33 21.48 68.4 21.36 68.95 21.52 69.77 20.32 70.37 20.11 70.16 19.88 70.29 19.4 70.59 19.07 70.68 18.4 71.31 17.19 71.5 17.25 71.8 16.99 71.92 17.16 72.16 16.95 72.75 17.05 72.83 16.61 73.05 16.41 74.33 16.96 74.78 16.76 75.02 16.94 75.54 16.79 75.61 16.98 75.84 16.94 76.43 17.11 76.71 17.07 76.9 16.81 76.93 17.08 77.26 16.93 77.37 17.09 77.6 17.04 77.53 17.18 77.77 17.68 78.07 17.71 78.06 18.11 78.33 17.84 78.29 18.42 79.25 18.72 79.54 19.29 80.59 20.03 80.73 20.46 81.22 20.95 81.33 21.84 81.61 22 82.06 23.31 82.53 23.71 82.45 23.97 82.81 24.21 82.66 24.34 82.79 24.81 83.07 25.23 83.05 25.45 83.42 25.67 83.46 25.89 84.04 26.16 84.55 27 84.81 27.09 85.14 28.15 85.43 28.25 85.47 28.3 84.65 29.06 83.62 28.17 82.98 28.64 82.41 30.36 81.63 30.39 80.46 31.28 80.59 32.44 80.77 32.33 81.07 32.53 81.27 32.19 81.81 32.42 81.89 33.32 81.73 33.85 81.48 33.96 81.09 34.64 80.6 34.2 78.51 36.06 79.41 37.28 79.83 37.49 80.01 37.79 79.99 38.17 80.41 38.55 80.47 39.51 81.02 40.23 81.35 40.25 81.39 40.55 81.7 40.69 81.67 40.85 81.19 40.64 81.11 40.9 81.65 41.15 82.34 41.79 83.03 41.8 83.58 42.07 83.24 42.18 83.58 42.53 83.39 42.41 82.67 42.71 82.36 42.41 81.84 42.33 81.02 42.49 80.7 42.72 80.45 43.36 81.07 43.94 80.63 44.15 80.45 45.96 80.22 45.74 79.6 45.8 78.39 44.6 78 44.77 77.81 44.54 77.39 44.87 76.72 44.91 76.57 44.72 76.69 44.34 75.9 44.08 75.45 43.42 73.38 42.72 71.36 42.93 71.36 43.16 70.55 44.32 70.64 45.22 69.95 44.67 68.92 44.39 68.53 44.09 68.43 43.25 67.74 42.75 67.22 42.07 67.59 41.75 67.67 41.47 67.32 41.03 67.32 40.61 68.1 39.51 68.05 37.69 68.34 36.54 68.12 35.99 66.6 34.46 65 27.74 68.28 21.42 z"/>
</g>
<g fill="#000000" fill-opacity="0.000" stroke="#000000" stroke-width="0.05" id="img-1745d1d4-172">
  <path d="M42.7,32.8 L 42.05 32.37 41.75 31.74 41.89 30.81 41.74 30.34 41.8 29.7 41.2 29.25 41.03 28.63 40.52 28.22 39.37 26.04 39.82 25.34 39.99 25.48 40.21 25.31 40.68 25.35 41.81 25.83 42.24 25.4 41.63 23.11 41.95 22.69 41.54 19.14 42 19.13 42.28 15.77 41.68 12.44 41.4 12.11 41.09 8.82 40.9 9.1 40.63 8.89 40.95 8.02 43.99 8.02 44.03 5.45 48.57 5.46 52.24 5.46 53.01 5.76 53.85 7.24 54.91 7.73 56.04 9.02 56.86 9.5 57.1 10.01 57.82 10.56 57.91 10.85 58.29 11.06 58.42 10.97 58.56 11.17 58.78 11.08 59.54 11.8 59.85 11.82 59.9 12.06 60.38 12.47 60.56 13.49 60.79 13.58 60.76 13.73 61.31 14.37 61.44 14.88 61.34 15.4 61.45 16.25 61.92 16.82 62.13 17.56 62.91 18.29 63.76 18.66 63.96 19.14 64.55 19.55 65.83 19.89 65.92 19.81 65.85 20.1 66.06 20.1 66.16 20.33 67.11 20.57 67.37 21 67.86 21.22 68.06 21.12 68.28 21.42 65 27.74 66.6 34.46 65.54 34.08 63.85 33.93 62.06 36.17 61.78 36.15 61.19 35.62 60.84 35.72 60.61 35.39 59.79 35.57 59.24 35.23 59.16 35.12 58.23 35.58 56.95 34.86 56.7 34.45 56.12 34.49 54.77 33.48 54.45 34.05 54.28 33.86 54.15 33.96 54.05 34.84 53.72 35.82 53.2 36.07 52.68 36.03 53.09 37.29 52.91 37.66 52.33 37.98 52.27 39.26 51.25 40.17 49.55 40.26 49.22 39.33 48.49 38.41 48.16 37.47 46.09 37 45.79 34.58 45.01 33.58 44.85 32.88 43.94 32.74 43.8 32.36 43.52 32.24 43.03 32.41 42.7 32.8 z"/>
</g>
<g fill="#000000" fill-opacity="0.000" stroke="#000000" stroke-width="0.05" id="img-1745d1d4-173">
  <path d="M39.87,8.02 L 40.95 8.02 40.63 8.89 40.9 9.1 41.09 8.82 41.4 12.11 41.68 12.44 42.28 15.77 42 19.13 41.54 19.14 41.95 22.69 41.63 23.11 42.24 25.4 41.81 25.83 40.68 25.35 40.21 25.31 39.99 25.48 39.82 25.34 39.37 26.04 40.52 28.22 41.03 28.63 41.2 29.25 41.8 29.7 41.74 30.34 41.89 30.81 41.75 31.74 42.05 32.37 42.7 32.8 42.68 33.33 42.63 33.52 39.39 36.24 39.31 36.03 38.87 36.27 38.9 35.64 38.73 35.15 37.76 34.32 37.95 34.22 37.6 34.08 37.54 33.89 37.3 34.06 37.58 34.34 37 34.23 36.65 34.38 36.11 34.04 35.42 32.66 35.74 32.91 35.34 32 34.85 32.05 33.6 31.72 33.11 31.12 32.64 30.93 32.95 30.86 32.74 30.45 32.42 30.55 32.31 29.62 32.02 28.94 32.35 28.81 32.19 28.81 32.24 28.59 32.47 28.48 32.19 28.43 32.15 28.01 32.61 27.91 32.64 27.77 32.18 27.65 32.15 27.8 31.33 27.48 30.97 27.55 31.16 27.44 30.96 27.1 30.76 27.6 30.92 27.61 30.82 27.94 30.25 27.2 29.72 27.38 29.04 26.7 27.97 25.19 28.07 24.9 26.79 24.42 26.45 23.72 25.55 22.75 25.76 22.62 25.96 22.83 26 22.53 25.44 22.34 24.74 21.61 24.47 21.56 24.47 20.64 24.18 20.36 24.25 19.7 23.86 19.51 23.62 19.57 23.61 19.75 23.35 19.54 23.26 19.25 23.42 18.57 22.43 17.36 22.01 16.3 21.62 16.2 21.55 14.54 21.25 14.15 21.04 14.14 21.13 13.77 20.98 13.27 19.95 11.73 19.77 11.07 19.95 10.29 19.76 9.61 20.01 10 20.14 9 19.87 8.66 19.65 8.67 19.83 8.83 19.68 8.85 19.17 8.34 19.01 8.46 19.27 8.6 19.1 8.61 17.21 7.99 17.33 7.97 17.2 7.13 15.98 6.48 15.69 6.53 15.61 6.19 15.5 6.69 15.68 6.72 15.46 7.01 15.18 7.16 14.58 7.09 12.53 5.6 11.97 5.56 10.39 4.52 10.48 3.42 10.27 2.73 10.65 2.06 10.79 1.45 11.37 1.27 11.36 1.37 18.73 3.96 28.4 7.51 29.87 8.07 32.93 8.05 39.87 8.02 z"/>
</g>
<g fill="#000000" fill-opacity="0.000" stroke="#000000" stroke-width="0.05" id="img-1745d1d4-174">
  <path d="M23.82,22.78 L 22.5 22.09 22.88 21.62 22.83 21.03 23.03 20.35 23.96 19.97 23.98 20.57 24.29 21.51 23.98 22.46 24.06 22.63 23.82 22.78 z"/>
</g>
<g fill="#000000" fill-opacity="0.000" stroke="#000000" stroke-width="0.05" id="img-1745d1d4-175">
  <path d="M126.79,84.67 L 127.21 85 127.58 84.99 128.04 85.73 128.36 85.86 128.64 86.42 129.02 86.59 129.03 86.41 129.17 86.43 129.11 86.57 129.34 86.79 129.92 86.92 130.36 87.32 130.63 87.75 130.6 88.06 130.77 88.07 130.7 88.39 130.87 88.44 130.75 88.57 131.19 88.57 131.51 88.71 131.51 88.87 131.93 88.93 132.01 89.18 131.81 89.21 131.95 89.31 131.62 89.76 131.73 89.84 131.61 90.08 131.77 90.2 131.61 90.52 131.75 90.54 131.62 90.68 125.35 90.68 122.97 94.84 123.69 95.79 123.27 96.21 123.31 96.71 123.09 96.98 123.25 97.84 123.09 98.29 122.79 98.48 120.07 95.65 119.84 95.31 120.18 95.41 120.34 95.74 120.21 95.31 119.84 95.12 119.81 95.26 119.19 94.86 118.12 93.72 116.38 92.3 114.49 91.09 114.49 90.98 114.72 91.07 114.85 90.95 114.66 90.61 113.77 90.36 113.73 90.29 113.96 89.61 113.53 88.44 113.96 87.7 113.93 86.94 114.59 86.52 114.61 85.85 114.79 85.85 114.76 85.14 115.98 84.33 116.16 83.97 116.47 83.29 117.14 82.77 117.55 80.95 117.77 80.78 118.37 81.03 119.1 81.16 119.01 82.14 119.14 83.1 119.54 83.17 119.9 83.82 120.25 84.05 122.1 82.46 122.2 82.21 123.25 81.83 123.67 81.83 123.63 81.61 124.06 81.19 124.25 81.28 124.28 81.49 124.44 81.32 124.88 81.31 125.06 81.49 125.13 81.91 125.03 82.16 125.5 82.22 125.67 82.58 125.66 83.3 126.44 83.49 126.5 83.83 126.84 83.91 127.03 84.23 126.79 84.67 z"/>
</g>
<g fill="#000000" fill-opacity="0.000" stroke="#000000" stroke-width="0.05" id="img-1745d1d4-176">
  <path d="M116.16,83.97 L 115.78 83.57 115.85 83.21 115.67 83.01 115.41 82.38 114.84 82.18 114.81 82.04 114.51 82.06 114.3 81.61 113.77 81.36 113.88 80.78 113.68 80.38 113.67 79.93 113.46 79.65 114.79 79.16 114.7 79.42 115.16 79.38 115.43 79 116.21 78.91 116.26 78.62 114.91 79.12 116.22 78.54 118.32 78.46 118.22 78.8 118.49 78.72 118.45 78.98 118.64 78.64 118.39 78.49 119.44 78.42 120.22 77.93 120.54 77.7 120.71 78.51 120.75 77.87 120.62 77.52 121.65 77.35 121.93 78.07 123.26 78.08 123.23 79.92 124.11 80.65 124.72 80.99 125.85 80.99 125.94 80.24 126.71 80.22 127.36 80.41 128.02 80.86 129.03 80.91 129.03 81.67 129.03 84.59 126.79 84.67 127.03 84.23 126.84 83.91 126.5 83.83 126.44 83.49 125.66 83.3 125.67 82.58 125.5 82.22 125.03 82.16 125.13 81.91 125.06 81.49 124.88 81.31 124.44 81.32 124.28 81.49 124.25 81.28 124.06 81.19 123.63 81.61 123.67 81.83 123.25 81.83 122.2 82.21 122.1 82.46 120.25 84.05 119.9 83.82 119.54 83.17 119.14 83.1 119.01 82.14 119.1 81.16 118.37 81.03 117.77 80.78 117.55 80.95 117.14 82.77 116.47 83.29 116.16 83.97 z"/>
</g>
<g fill="#000000" fill-opacity="0.000" stroke="#000000" stroke-width="0.05" id="img-1745d1d4-177">
  <path d="M100.56,78.5 L 101.13 78.02 100.94 77.2 102.26 77.93 102.5 78.72 103.01 79.22 103.1 79.63 103.25 79.8 103.47 79.77 103.52 80 103.8 79.89 104.95 80.12 105.23 80.47 105.26 81.04 104.68 81.88 105.3 83.2 105.62 83.32 106.44 83.16 107.03 82.64 107.4 82.6 108.16 82.12 108.19 82.56 107.96 82.84 108.86 84.12 109.2 84.18 109.36 84.76 112.52 85.02 114.76 85.14 114.79 85.85 114.61 85.85 114.59 86.52 113.93 86.94 113.96 87.7 113.53 88.44 113.96 89.61 113.73 90.29 113.46 89.9 113.12 90.05 112.68 89.93 112.32 89.55 112.04 89.63 112.08 90.03 112.8 90.37 112.45 90.16 113.04 90.23 113.24 90.45 113.69 90.57 113.8 90.6 114.32 91.08 113.83 90.87 112.19 90.19 111.53 90.1 110.56 90.05 111.1 89.74 111.28 89.43 110.84 89.2 110.24 89.74 110.15 89.59 110.32 89.36 109.88 88.86 108.87 89.65 109.84 89.77 110.02 89.6 110.03 89.75 109.54 89.82 110.3 89.91 110.4 90.06 108.54 90.02 108.49 90.22 108.11 90.29 107.43 90.77 107.39 91 107.13 91.18 104.54 91.99 103.37 92.64 102.11 92.66 101.92 92.89 100.12 92.46 98.36 91.51 95.45 91.22 95.03 90.95 95.03 90.74 93.57 90.05 94.07 90.12 93.91 89.96 92.42 89.72 91.65 89.42 92.08 89.09 92.77 88.98 92.77 88.26 93.38 87.74 93.21 87.45 93.56 87.46 93.99 87.15 94.11 86.51 94.33 85.7 94.02 85.33 92.96 84.63 92.9 83.79 92.52 83.16 92.52 82.35 92.81 81.43 92.68 81.3 92.86 81.14 93.17 81.21 93.61 80.61 94.68 80.57 94.77 80.74 95.16 81.13 95.68 80.78 95.4 79.84 95.78 79.13 96.13 78.97 96.3 79.21 96.16 79.84 97.11 80.85 97.5 80.2 97.94 79.91 98.31 79.81 98.93 80.02 99.51 79.96 99.89 79.49 100.38 79.26 100.68 78.74 100.56 78.5 z"/>
</g>
<g fill="#000000" fill-opacity="0.000" stroke="#000000" stroke-width="0.05" id="img-1745d1d4-178">
  <path d="M89.21,78.81 L 89.3 79.5 89.82 79.69 89.93 80.09 90.29 80.04 90.63 80.68 91.35 80.88 92.18 80.77 92.68 81.3 92.81 81.43 92.52 82.35 92.52 83.16 92.9 83.79 92.96 84.63 94.02 85.33 94.33 85.7 94.11 86.51 93.99 87.15 93.56 87.46 93.21 87.45 93.38 87.74 92.77 88.26 92.77 88.98 92.08 89.09 91.65 89.42 90.53 88.22 90.12 88.37 89.27 87.99 86.04 87.42 85.26 87.01 85.32 86.87 85.12 86.58 85.01 86.81 84.82 86.52 84.13 86.22 83.6 86.14 79.34 84.54 79.07 84.06 77.52 83.23 77.13 82.7 76.84 82.72 76.46 82.47 75.7 81.38 74.89 80.85 74.41 80.8 73.93 81.16 73.76 81.14 73.93 79.83 74.71 79.69 75.14 79.38 75.32 79.23 75.25 77.94 75.42 77.64 76.52 77.58 76.75 78.01 77.07 78.22 77.35 78.25 78.13 77.96 79.15 78.13 79.53 78.05 79.85 78.44 80.03 78.4 80 78.26 80.61 78.28 81.14 78.72 81.44 78.9 81.59 78.65 80.96 78.01 80.72 76.62 80.93 76.26 81.15 76.65 81.63 76.26 81.92 76.34 82.27 76.52 82.61 77.99 83.01 78.71 83.24 78.67 83.92 78.06 84.06 77.58 85.07 77.32 85.53 77.44 86.25 76.76 87.01 77.27 87.92 78.33 88.19 78.35 88.33 78 88.72 77.96 89.21 78.81 z"/>
</g>
<g fill="#000000" fill-opacity="0.000" stroke="#000000" stroke-width="0.05" id="img-1745d1d4-179">
  <path d="M93.69,72.01 L 94.39 71.99 94.34 72.31 94.57 72.26 95.16 72.7 94.97 72.87 95.15 73.26 95.5 73.15 95.95 73.58 96.3 73.67 96.09 74.04 95.21 74.06 95.16 74.46 94.88 74.72 94.42 74.47 93.99 74.9 93.41 75.03 92.12 73.61 92.08 73.33 91.29 73.05 90.87 72.51 91.14 72.47 91.96 72.16 92.7 72.45 92.84 72.18 93.12 71.8 93.69 72.01 z"/>
</g>
<g fill="#000000" fill-opacity="0.000" stroke="#000000" stroke-width="0.05" id="img-1745d1d4-180">
  <path d="M148.72,68.95 L 148.59 68.24 148.99 67.46 149.18 67.33 149.54 67.45 150 67.19 149.26 68.43 148.72 68.95 z"/>
</g>
<g fill="#000000" fill-opacity="0.000" stroke="#000000" stroke-width="0.05" id="img-1745d1d4-181">
  <path d="M142.28,78.23 L 141.37 78.26 140.79 79.51 140.39 79.77 140.25 80.42 139.62 81.07 139.6 81.37 138.64 80.71 138.11 80.97 138.12 81.68 136.69 81.68 136.75 72.12 144.97 66.81 146.02 64.9 146.03 62.37 146.21 62.41 146.29 62.57 147.5 62.71 148 62.44 148.05 62.09 147.85 62.02 147.42 62.23 147.01 62.1 146.74 62.36 146.65 62.23 146.91 61.95 147.36 62.05 148.14 61.72 148.68 61.96 149.15 62.75 149.54 62.75 149.61 64.06 149.98 64.23 149.76 64.85 149.55 64.96 149.29 65.88 148.36 67.06 147.57 67.64 146.57 69.17 146.36 69.81 146.55 70.84 146.55 70.99 146.51 71.1 146.36 71.47 146.32 71.18 146.48 71.06 146.51 70.77 146.3 70.6 146.42 70.95 146.12 71.33 145.8 71.36 145.41 72.25 145.45 71.98 145.04 72 145.09 72.43 145.43 72.59 145.38 72.89 145.89 72.6 146.49 72.7 146.63 72.5 146.56 72.39 146.54 72.54 146.09 72.49 146.5 72.5 146.53 72.22 146.66 72.51 146.39 73.19 146.07 73.44 145.88 73.47 146.01 73.26 145.6 73.44 145.35 73.87 145.3 74.24 145.53 74.43 145.97 73.88 146.22 73.83 146.17 74.06 146.42 73.89 146.03 74.41 145.47 76.76 145.09 77.27 144.94 78.59 144.6 79.12 144.51 79.75 144.48 79.51 144.29 79.49 144.46 79.07 144.32 79.25 144.13 78.46 143.36 78.05 143.75 77.19 143.57 76.21 143.15 76.99 143.11 76.67 142.51 77.18 142.82 76.92 142.8 77.25 143.01 77.17 142.28 78.23 z"/>
</g>
<g fill="#000000" fill-opacity="0.000" stroke="#000000" stroke-width="0.05" id="img-1745d1d4-182">
  <path d="M100.56,78.5 L 100.68 78.74 100.38 79.26 99.89 79.49 99.51 79.96 98.93 80.02 98.31 79.81 97.94 79.91 97.5 80.2 97.11 80.85 96.16 79.84 96.3 79.21 96.13 78.97 95.78 79.13 95.4 79.84 95.68 80.78 95.16 81.13 94.77 80.74 94.68 80.57 93.61 80.61 93.17 81.21 92.86 81.14 92.68 81.3 92.18 80.77 91.35 80.88 90.63 80.68 90.29 80.04 89.93 80.09 89.82 79.69 89.3 79.5 89.21 78.81 89.84 78.58 90.35 78.17 90.96 78.56 91.08 78.46 90.69 77 91.11 77.14 90.72 76.59 91.15 76.03 91.12 75.55 91.25 74.67 91.1 73.41 91.29 73.05 92.08 73.33 92.12 73.61 93.41 75.03 93.99 74.9 94.42 74.47 94.88 74.72 95.16 74.46 95.21 74.06 96.09 74.04 96.3 73.67 95.95 73.58 95.5 73.15 95.15 73.26 94.97 72.87 95.16 72.7 94.57 72.26 94.34 72.31 94.39 71.99 93.69 72.01 93.12 71.1 93.92 69.74 93.73 69.25 93.18 69.15 93.18 68.84 93.22 68.65 93.59 68.59 93.91 68.02 94.58 67.56 94.65 66.79 94.97 66.58 95.02 66.06 95.71 66.12 95.67 66.87 96.47 67.2 96.51 67.72 96.22 68.1 95.91 67.82 95.58 67.98 95.61 68.95 95.91 69.37 96.29 69.41 96.54 69.74 96.79 69.66 97.01 69.04 97.29 68.92 97.45 68.91 98.61 69.52 98.65 69.68 97.8 70.84 97.92 71.61 97.8 71.95 97.58 72.29 97.16 72.47 97.59 72.72 97.68 73.43 98.11 73.58 98.41 73.93 99.05 73.92 99.32 74.14 98.94 74.58 98.49 74.52 98.02 74.7 98.09 75.4 98.11 76.12 97.62 76.74 97.98 77.45 98.62 77.39 99.14 78.26 100.28 77.86 100.56 78.5 z"/>
</g>
<g fill="#000000" fill-opacity="0.000" stroke="#000000" stroke-width="0.05" id="img-1745d1d4-183">
  <path d="M121.65,77.35 L 124.1 76.95 124.71 77.56 124.61 77.72 124.3 77.66 124.28 77.47 123.99 77.54 124.05 77.67 123.84 77.65 123.76 77.91 124.22 77.91 124.57 78.13 124.15 77.7 124.49 77.75 124.65 77.99 124.55 78.05 124.87 78.16 124.72 78.5 124.98 78.76 124.93 78.44 125.14 78.44 124.99 78.22 126.6 78.45 126.57 78.18 126.29 78.34 126.52 78.05 127.3 77.8 127.45 77.52 128.01 77.39 127.48 77.47 127.65 76.88 126.9 76.52 127.78 75.76 127.09 76.15 126.87 76.47 126.42 76.53 126.82 76.07 128.09 75.52 128.96 74.91 130.15 73.88 130.52 71.54 131.3 70.92 131.64 70.43 131.41 69.85 131.59 68.2 131.46 67.56 131.62 66.46 131.99 65.99 132.04 65.84 132.02 67.38 132.86 67.36 132.76 67.72 133.56 67.97 133.74 67.69 136.75 72.12 136.69 81.68 129.03 81.67 129.03 80.91 128.02 80.86 127.36 80.41 126.71 80.22 125.94 80.24 125.85 80.99 124.72 80.99 124.11 80.65 123.23 79.92 123.26 78.08 121.93 78.07 121.65 77.35 z"/>
</g>
<g fill="#000000" fill-opacity="0.000" stroke="#000000" stroke-width="0.05" id="img-1745d1d4-184">
  <path d="M124.83,77.42 L 124.79 77.31 125.76 76.82 126.22 76.64 126.36 76.73 126.36 76.84 125.87 76.91 125.53 77.32 125.38 77.31 125.48 77.12 124.83 77.42 z"/>
</g>
<g fill="#000000" fill-opacity="0.000" stroke="#000000" stroke-width="0.05" id="img-1745d1d4-185">
  <path d="M132.04,65.84 L 132.21 65.33 131.97 65.75 131.73 66.18 131.87 65.75 131.98 65.42 132.23 64.89 133.36 64.18 133.88 64.02 135.01 63.52 139.57 62.85 140.26 62.65 140.79 62.2 141.53 62.01 142.42 62.09 143.33 61.93 142.55 62.02 142.98 61.81 143.78 61.83 145.2 62.18 144.42 62.11 144.97 62.35 145.65 62.39 145.29 62.27 145.46 62.23 146.03 62.37 146.02 64.9 144.97 66.81 136.75 72.12 133.74 67.69 133.56 67.97 132.76 67.72 132.86 67.36 132.02 67.38 132.04 65.84 z"/>
</g>
<g fill="#000000" fill-opacity="0.000" stroke="#000000" stroke-width="0.05" id="img-1745d1d4-186">
  <path d="M91.12,75.55 L 91.15 76.03 90.72 76.59 91.11 77.14 90.69 77 91.08 78.46 90.96 78.56 90.35 78.17 89.84 78.58 89.21 78.81 88.72 77.96 88.33 78 88.19 78.35 87.92 78.33 87.01 77.27 87.34 76.15 87.96 75.68 87.86 75.06 88.05 74.79 88.8 74.93 89.3 75.21 89.64 75.07 90.67 75.7 91.12 75.55 z"/>
</g>
<g fill="#000000" fill-opacity="0.000" stroke="#000000" stroke-width="0.05" id="img-1745d1d4-187">
  <path d="M66.03,77.16 L 64.75 76.07 63.22 75.49 63.16 75.04 62.56 75.06 61.84 74.78 62.11 74.21 62.44 74.33 62.66 74.05 62.87 74.12 63.51 73.86 64.14 73.53 64.05 73.11 64.44 72.82 65.65 73.48 66.53 73.02 67.28 73.83 67.12 75.15 67.34 75.7 66.86 76.15 66.7 76.11 66.6 76.62 66.34 76.7 66.03 77.16 z"/>
</g>
<g fill="#000000" fill-opacity="0.000" stroke="#000000" stroke-width="0.05" id="img-1745d1d4-188">
  <path d="M88.05,74.79 L 87.78 73.66 88.35 73.41 88.9 72.7 89.04 73.05 89.3 73.16 89.32 73.59 89.62 73.93 89.76 74.81 89.64 75.07 89.3 75.21 88.8 74.93 88.05 74.79 z"/>
</g>
<g fill="#000000" fill-opacity="0.000" stroke="#000000" stroke-width="0.05" id="img-1745d1d4-189">
  <path d="M91.29,73.05 L 91.1 73.41 91.25 74.67 91.12 75.55 90.67 75.7 89.64 75.07 89.76 74.81 89.62 73.93 89.32 73.59 89.3 73.16 89.04 73.05 88.9 72.7 88.35 73.41 87.78 73.66 88.05 74.79 87.86 75.06 87.96 75.68 87.34 76.15 87.01 77.27 86.25 76.76 85.53 77.44 85.07 77.32 84.06 77.58 83.92 78.06 83.24 78.67 83.01 78.71 82.61 77.99 82.27 76.52 81.92 76.34 81.63 76.26 81.91 75.84 81.89 75.62 83.12 74.16 83.05 73.78 83.83 73.36 83.6 72.18 83.81 71.2 84.24 70.94 83.91 70.62 84.71 69.61 84.77 69.02 85.36 68.88 86.18 69.57 86.7 69.53 87.06 69.87 86.89 70.55 87.34 70.91 87.57 71.47 88.09 71.24 88.45 70.42 89.3 70.08 89.74 70.34 89.57 70.99 89.66 71.31 89.88 71.33 90.09 71.09 90.96 71.14 91.52 71.67 91.16 72.42 91.14 72.47 90.87 72.51 91.29 73.05 z"/>
</g>
<g fill="#000000" fill-opacity="0.000" stroke="#000000" stroke-width="0.05" id="img-1745d1d4-190">
  <path d="M67.34,75.7 L 67.99 75.67 68.3 75.18 69.06 75.77 69.24 75.34 69.83 75.03 69.87 74.62 70.86 74.2 71.32 74.36 71.82 73.41 71.64 72.96 70.96 73.06 70.88 72.43 70.58 71.84 70.55 71.57 71.06 71.25 70.99 70.91 70.75 70.82 70.66 70.82 70.13 70.66 70.06 70.55 69.6 70.82 69.52 70.39 69.29 70.35 69.24 70.17 69.47 69.81 70.26 69.43 70.84 69.26 71.58 69.09 72.46 68.52 73.6 68.49 74.11 68.25 74.67 68.18 74.68 68.58 74.74 68.36 74.89 68.38 75.04 69.19 75.2 69.29 75.53 69.18 76.26 69.29 76.59 68.62 77.31 68.54 77.61 69.36 77.56 69.88 77.8 70.11 78.23 70.17 78.82 69.84 79.66 69.98 80 70.1 80.09 70.61 80.37 70.68 81.17 70.37 82.14 70.78 82.8 70 83.14 69.22 83.62 69.86 83.91 70.62 84.24 70.94 83.81 71.2 83.6 72.18 83.83 73.36 83.05 73.78 83.12 74.16 81.89 75.62 81.91 75.84 81.63 76.26 81.15 76.65 80.93 76.26 80.72 76.62 80.96 78.01 81.59 78.65 81.44 78.9 81.14 78.72 80.61 78.28 80 78.26 80.03 78.4 79.85 78.44 79.53 78.05 79.15 78.13 78.13 77.96 77.35 78.25 77.07 78.22 76.75 78.01 76.52 77.58 75.42 77.64 75.25 77.94 75.32 79.23 75.14 79.38 74.71 79.69 73.93 79.83 73.76 81.14 73.72 81.14 72.24 80.62 70.97 80.4 69.57 79.75 67.49 79.11 66.85 78.13 66.26 77.74 66.32 77.51 66.03 77.16 66.34 76.7 66.6 76.62 66.7 76.11 66.86 76.15 67.34 75.7 z"/>
</g>
<g fill="#000000" fill-opacity="0.000" stroke="#000000" stroke-width="0.05" id="img-1745d1d4-191">
  <path d="M91.14,72.47 L 91.16 72.42 91.52 71.67 90.96 71.14 90.09 71.09 89.88 71.33 89.66 71.31 89.57 70.99 89.74 70.34 89.3 70.08 88.45 70.42 88.09 71.24 87.57 71.47 87.34 70.91 86.89 70.55 87.06 69.87 86.7 69.53 86.18 69.57 85.36 68.88 85.41 67.6 87.04 66.82 86.89 66.51 87.02 66 87.53 65.47 87.75 64.79 87.61 64.51 87.89 64.49 88 64.24 88.38 64.43 89.13 64.06 89.29 64.19 89.24 63.61 89.74 63.47 89.92 63.88 90.39 64.05 91.33 63.89 91.4 63.26 91.85 62.91 92.04 63.16 91.99 63.75 92.37 64.21 92.73 64.22 92.92 63.79 93.09 63.9 93.05 64.05 92.97 64.34 93.34 64.19 93.75 64.63 93.64 64.92 93.52 64.88 93.31 65.23 93.25 65.92 92.58 65.77 92.31 66.13 91.87 66.31 91.93 66.54 92.3 66.51 91.6 67.66 91.95 68.32 92.16 68.41 92.41 67.98 92.74 68.01 93.92 66.81 94.24 66.91 94.25 67.1 94.18 67.63 93.91 68.02 93.59 68.59 93.22 68.65 93.18 68.84 93.18 69.15 93.73 69.25 93.92 69.74 93.12 71.1 93.69 72.01 93.12 71.8 92.84 72.18 92.7 72.45 91.96 72.16 91.14 72.47 z"/>
</g>
<g fill="#000000" fill-opacity="0.000" stroke="#000000" stroke-width="0.05" id="img-1745d1d4-192">
  <path d="M83.91,70.62 L 83.62 69.86 83.14 69.22 82.52 68.77 82.6 68.55 82.3 68.33 82.09 67.09 81.56 66.66 82.22 65.42 82.52 65.31 82.7 65.42 83.98 65.54 84.12 64.77 84.38 64.55 84.47 64.07 84.71 63.96 85.39 64.1 85.88 63.76 85.62 63.42 85.55 62.81 85.79 62.26 86.05 62.09 86.6 62.78 87.42 62.58 87.65 62.08 87.99 62.04 88.2 61.71 88.47 61.61 89.02 63.51 89.24 63.61 89.29 64.19 89.13 64.06 88.38 64.43 88 64.24 87.89 64.49 87.61 64.51 87.75 64.79 87.53 65.47 87.02 66 86.89 66.51 87.04 66.82 85.41 67.6 85.36 68.88 84.77 69.02 84.71 69.61 83.91 70.62 z"/>
</g>
<g fill="#000000" fill-opacity="0.000" stroke="#000000" stroke-width="0.05" id="img-1745d1d4-193">
  <path d="M83.14,69.22 L 82.8 70 82.14 70.78 81.17 70.37 80.37 70.68 80.09 70.61 80 70.1 79.66 69.98 78.82 69.84 78.23 70.17 77.8 70.11 77.56 69.88 77.61 69.36 77.31 68.54 76.59 68.62 76.26 69.29 75.53 69.18 75.2 69.29 75.04 69.19 74.89 68.38 74.74 68.36 74.68 68.58 74.67 68.18 74.11 68.25 74.21 67.85 74.76 67.19 74.19 66.22 74.28 66.01 75.4 64.49 75.44 64.23 76.33 63.74 76.74 63.3 76.46 62.2 76.9 61.54 76.68 60.93 76.99 60.48 77.48 60.6 77.99 60.46 78.58 60.96 79.74 61.08 80.81 62.01 81.52 62.34 81.81 62.3 82.39 61.58 83.05 61.59 83.57 61.92 85.55 62.81 85.62 63.42 85.88 63.76 85.39 64.1 84.71 63.96 84.47 64.07 84.38 64.55 84.12 64.77 83.98 65.54 82.7 65.42 82.52 65.31 82.22 65.42 81.56 66.66 82.09 67.09 82.3 68.33 82.6 68.55 82.52 68.77 83.14 69.22 z"/>
</g>
<g fill="#000000" fill-opacity="0.000" stroke="#000000" stroke-width="0.05" id="img-1745d1d4-194">
  <path d="M75.41,59.66 L 74.82 60.34 74.42 60.51 74.24 60.95 73.46 61.55 72.21 61.38 71.46 60.98 70.99 61.19 70.44 60.66 70.48 60.09 71.16 59.28 71.51 58.24 72.42 57.92 73.04 57.27 73.23 57.29 73.3 57.82 73.57 57.74 73.88 57.99 73.89 58.2 74.53 58.38 74.37 58.99 74.96 59.11 75.41 59.66 z"/>
</g>
<g fill="#000000" fill-opacity="0.000" stroke="#000000" stroke-width="0.05" id="img-1745d1d4-195">
  <path d="M76.99,60.48 L 76.68 60.93 76.9 61.54 76.46 62.2 76.74 63.3 76.33 63.74 75.44 64.23 75.4 64.49 74.28 66.01 74.19 66.22 74.76 67.19 74.21 67.85 74.11 68.25 73.6 68.49 72.46 68.52 71.58 69.09 70.84 69.26 70.26 69.43 69.47 69.81 69.24 70.17 69.29 70.35 69.52 70.39 69.6 70.82 70.06 70.55 70.13 70.66 70.66 70.82 70.75 70.82 70.99 70.91 71.06 71.25 70.55 71.57 70.58 71.84 70.88 72.43 70.96 73.06 71.64 72.96 71.82 73.41 71.32 74.36 70.86 74.2 69.87 74.62 69.83 75.03 69.24 75.34 69.06 75.77 68.3 75.18 67.99 75.67 67.34 75.7 67.12 75.15 67.28 73.83 66.53 73.02 65.65 73.48 64.44 72.82 64.05 73.11 64.14 73.53 63.51 73.86 62.87 74.12 62.66 74.05 62.44 74.33 62.11 74.21 61.84 74.78 61.5 74.65 61.15 74.33 60.78 74.38 60.84 74.02 60.41 74.07 59.88 73.73 59.49 73.19 59.33 72.58 58.51 71.98 57.28 70.16 57.07 69.14 56.51 68.34 56.5 68.06 57.07 67.72 58.1 67.6 58.63 67.27 58.66 66.9 58.5 66.65 59.43 65.42 60.09 65.42 60.97 64.92 61.21 64.96 61.69 65.43 62.13 65.47 62.47 65.93 63.37 66.57 63.42 65.76 63.74 65.14 63.65 64.09 64.57 63.91 64.97 63.5 65.05 63.04 63.75 62.13 64.02 61.86 64.31 60.86 62.79 59.31 63.15 58.31 64.06 57.9 65.02 57.76 65.16 57 64.63 56.62 64.8 56.21 64.74 55.64 65.75 55.86 65.91 56.32 65.41 56.64 65.6 57.11 65.35 57.26 65.42 58.74 66.05 56.65 66.46 56.66 66.68 56.92 66.25 58.94 66.34 59.12 66.56 59.29 67.13 59.1 67.88 57.97 67.69 57.4 67.87 57.02 68.83 57.76 68.72 58.08 69.44 58.2 69.08 58.93 69.26 59.24 68.87 59.85 68.26 59.81 67.77 60.08 67.51 60.53 67.01 60.86 67.2 61.15 67.17 61.88 66.5 62.58 66.09 62.29 66.24 62.98 65.99 63.69 65.93 63.84 66.07 63.95 66.52 63.75 66.74 64.03 67.03 63.98 69.44 64.74 69.29 64.03 69.54 63.4 69.9 63.52 70.17 63.29 70.53 63.33 71.26 63 71.49 62.13 70.85 61.75 70.99 61.19 71.46 60.98 72.21 61.38 73.46 61.55 74.24 60.95 74.42 60.51 74.82 60.34 75.41 59.66 75.63 59.64 76.99 60.48 z"/>
</g>
<g fill="#000000" fill-opacity="0.000" stroke="#000000" stroke-width="0.05" id="img-1745d1d4-196">
  <path d="M58.5,66.65 L 58.25 66.25 57.78 66.33 57.15 66.16 57.53 65.98 58.27 64.93 58.65 64.68 58.79 63.82 58.66 63.18 58.95 62.64 58.75 62.27 58.46 62.26 57.69 61.81 57.38 60.92 56.61 59.79 56.68 58.19 56.31 57.22 56.41 57.2 56.66 57.13 57.6 56.79 57.47 56.08 57 55.7 57.17 55.25 57.65 54.89 57.43 54.53 57.55 54.16 57.85 54.02 58.3 54.19 58.99 54.16 60.26 54.78 60.43 55.54 59.85 56.1 59.85 56.8 61.04 56.11 61.51 56.39 61.75 57.2 62.35 57.53 63.07 57.31 63.24 58.02 63.15 58.31 62.79 59.31 64.31 60.86 64.02 61.86 63.75 62.13 65.05 63.04 64.97 63.5 64.57 63.91 63.65 64.09 63.74 65.14 63.42 65.76 63.37 66.57 62.47 65.93 62.13 65.47 61.69 65.43 61.21 64.96 60.97 64.92 60.09 65.42 59.43 65.42 58.5 66.65 z"/>
</g>
<g fill="#000000" fill-opacity="0.000" stroke="#000000" stroke-width="0.05" id="img-1745d1d4-197">
  <path d="M52.93,62.8 L 52.38 62.64 52.57 62.32 53.19 62.36 53.29 62.54 52.93 62.8 z"/>
</g>
<g fill="#000000" fill-opacity="0.000" stroke="#000000" stroke-width="0.05" id="img-1745d1d4-198">
  <path d="M51.84,62.03 L 51.71 61.35 52.01 61.23 52.29 61.36 52.51 61.78 52.36 62.31 51.84 62.03 z"/>
</g>
<g fill="#000000" fill-opacity="0.000" stroke="#000000" stroke-width="0.05" id="img-1745d1d4-199">
  <path d="M21.72,27.02 L 21.57 27.94 21.8 28.1 21.96 28.58 22.2 28.62 22.46 29.08 22.8 29.1 23.59 29.59 23.84 30.69 24.28 31.26 24.15 31.29 24.19 31.49 25.51 32.02 25.54 32.16 25.26 32.29 25.13 32.58 25.79 33.47 25.69 34.03 26.46 35 26.62 35.06 26.84 34.78 26.24 34.2 25.93 33.29 26.04 33.13 27.45 34.11 27.47 34.99 28.04 35.27 27.85 35.8 28.24 36.2 28.27 36.8 28.64 37.51 28.43 38.33 28.62 38.95 28.77 39 28.74 39.31 29.1 39.66 29.41 40.42 30.13 40.7 30.13 41.28 30.49 41.89 30.66 42.63 30.94 43.09 31.47 43.46 31.75 44.07 31.86 44.67 31.57 45.34 31.53 45.86 31.76 46.94 32.13 47.46 32.66 47.8 33.66 47.97 33.48 48.13 33.19 48.01 33.41 48.37 33.83 47.97 33.68 47.19 34.1 47.09 34.47 47.65 35.14 48.11 35.36 48.76 35.55 48.87 36.05 48.71 36.17 48.88 36.03 49.45 36.65 50.09 36.71 50.83 37.73 51.28 38.1 51.94 37.95 53.13 37.68 53.54 36.81 54.09 36.61 54.43 36.08 54.82 35.4 55.11 35.03 54.9 34.76 54.45 34.31 52.61 33.93 52.15 33.59 51.33 32.03 50.44 30.02 48.39 27.9 47.19 28.36 47.32 27.25 46.51 26.99 45.86 26.84 45.78 26.74 46.03 26.3 45.95 26.44 46.16 26.23 46.21 26.14 45.51 25.63 44.95 25.28 44.19 25.41 44.89 25.12 44.87 25.08 44.37 25.03 44.82 24.82 45.01 24.94 44.83 24.66 44.23 24.9 43.81 24.81 43.43 24.55 44.11 24.4 44.15 24.67 43.28 24.65 42.66 24.95 42.09 24.94 39.83 24.9 39.65 24.85 39.76 24.86 40.47 24.73 40.71 24.73 39.34 24.16 38.02 23.76 37.59 23.6 37.65 23.42 36.7 23.16 36.5 22.88 36.62 22.61 36.47 22.63 36.31 21.97 36.29 21.43 35.83 21.48 35.7 19.84 34.55 19.96 34.3 19.77 34.4 19.22 34.18 19.21 33.8 19.72 33.25 19.72 32.81 19.47 32.75 19.44 33.28 19.16 33.6 19.34 33.57 19.15 33.71 19.11 34.01 18.15 33.57 18.37 33.56 18.18 33.44 17.72 33.99 17.4 34.04 16.74 33.49 16.22 32.73 15.87 32.58 15.41 32.68 14.98 32.05 14.57 31.77 14.21 31.67 14.03 31.79 13.39 31.56 13.27 31.3 13.05 31.24 12.88 30.29 12.41 29.88 11.78 29.62 11.47 29.13 11.15 28.99 11.25 28.93 11.11 28.73 10.93 28.86 10.72 28.58 10.44 28.57 10.18 27.96 10.27 27.79 10.48 27.96 11.19 27.93 12.38 28.32 12.94 28.31 13.7 27.7 13.77 28.24 14.04 28.51 14.59 28.73 15.17 28.61 15.4 28.77 15.55 28.58 15.23 28.3 14.62 28.6 14.3 28.31 14.24 27.95 13.88 27.77 14.01 27.32 14.34 27.02 14.64 26.74 14.63 27.02 14.62 27.23 14.72 27.02 21.72 27.02 z"/>
</g>
<g fill="#000000" fill-opacity="0.000" stroke="#000000" stroke-width="0.05" id="img-1745d1d4-200">
  <path d="M36.2,48.28 L 35.79 47.98 35.57 47 36.2 48.28 z"/>
</g>
<g fill="#000000" fill-opacity="0.000" stroke="#000000" stroke-width="0.05" id="img-1745d1d4-201">
  <path d="M26.73,47.22 L 25.2 46.11 26.09 46.06 26.14 46.33 26.79 46.88 26.73 47.22 z"/>
</g>
<g fill="#000000" fill-opacity="0.000" stroke="#000000" stroke-width="0.05" id="img-1745d1d4-202">
  <path d="M31.72,43.09 L 32.3 43.39 32.53 44.2 31.98 43.94 31.66 43.34 31.72 43.09 z"/>
</g>
<g fill="#000000" fill-opacity="0.000" stroke="#000000" stroke-width="0.05" id="img-1745d1d4-203">
  <path d="M24.63,42.04 L 24.29 44.41 24.63 45.12 24.58 45.49 24.94 45.77 25.03 46.19 24.4 45.41 24.53 45.15 24.39 44.74 23.78 44.6 24.12 44.03 24.63 42.04 z"/>
</g>
<g fill="#000000" fill-opacity="0.000" stroke="#000000" stroke-width="0.05" id="img-1745d1d4-204">
  <path d="M29.2,39.18 L 29.08 39.01 29.28 37.89 29.79 37.69 29.73 38.08 29.88 38.26 29.52 38.08 29.2 39.18 z"/>
</g>
<g fill="#000000" fill-opacity="0.000" stroke="#000000" stroke-width="0.05" id="img-1745d1d4-205">
  <path d="M10.39,4.52 L 10.3 4.46 10.41 4.75 10.71 4.82 11.1 5.34 11.35 5.39 11.57 6.28 11.21 6.96 11.06 9.11 11.37 9.66 11.32 10.02 11.93 10.43 11.99 12.01 12.33 12.94 12.16 14.6 12.72 15.72 13.37 16.19 13.55 16.88 13.91 17.1 14.11 16.96 14.4 17.11 15.14 18.03 16.75 19.38 17.14 19.92 17.12 20.22 17.64 20.78 17.65 21.65 17.86 22.02 18.11 22.01 18.06 21.75 18.31 21.6 18.63 21.92 18.65 22.55 19.21 22.36 19.39 22.45 19.8 24.33 20.26 24.57 21.03 24.59 20.98 25.48 21.4 25.94 21.44 26.85 21.72 27.01 21.72 27.02 14.72 27.02 14.78 26.89 14.86 26.02 14.51 25.55 14.93 24.79 15.1 24.06 14.71 23.69 14.61 23.25 14.11 23.19 14.12 23.02 13.48 22.36 13.41 22.05 12.99 21.75 12.74 21.8 12.66 21.54 12.38 21.28 12.21 20.76 11.91 20.64 11.74 20.28 10.72 19.27 9.55 18.98 9.33 18.64 8.16 17.86 7.88 17.85 7.65 17.46 7.05 17.05 7.05 16.49 6.88 16.13 6.49 15.99 6.61 15.12 6.4 13.84 6.19 13.54 5.7 13.46 5.89 13.19 5.64 12.89 5.75 13.19 5.47 13.22 5.58 13.6 5.36 13.2 5.27 11.17 4.52 10.62 4.27 10.24 3.93 10.15 4.05 9.48 3.88 8.77 3.1 7.55 2.61 7.29 2.2 6.79 2.39 6.61 2.4 6.19 1.98 5.68 2.45 5.73 2.56 5.14 1.87 4.7 1.67 4.31 1.35 4.23 1.05 2.88 0.47 2.46 0 1.55 0 1.09 5.02 0.59 11.85 0 11.42 0.61 11.37 1.27 10.79 1.45 10.65 2.06 10.27 2.73 10.48 3.42 10.39 4.52 z"/>
</g>
<g fill="#000000" fill-opacity="0.000" stroke="#000000" stroke-width="0.05" id="img-1745d1d4-206">
  <path d="M9.59,26.88 L 8.98 26.47 8.72 26.51 9.24 25.74 9.09 25.25 9.29 24.94 9.59 25.29 9.76 26.02 9.59 26.88 z"/>
</g>
<g fill="#000000" fill-opacity="0.000" stroke="#000000" stroke-width="0.05" id="img-1745d1d4-207">
  <path d="M19.66,21.3 L 19.16 21.02 18.12 19.78 17.82 19.69 17.39 18.92 17.52 18.54 17.44 18.1 18.35 18.67 18.55 19.12 18.46 19.59 19.44 19.74 19.41 20.61 19.73 21.07 19.66 21.3 z"/>
</g>
<defs>
  <g id="img-1745d1d4-163">
    <circle cx="0" cy="0" r="0.5"/>
  </g>
</defs>
</svg>
